<svg width="1087" height="739" viewBox="0 0 1087 739" fill="none" xmlns="http://www.w3.org/2000/svg">
<g clip-path="url(#clip0)">
<path d="M1027.79 736.089C1030.34 708.595 1037.37 681.707 1048.6 656.498C1051.73 649.483 1055.17 642.622 1058.93 635.915C1059.12 635.564 1059.17 635.154 1059.06 634.77C1058.95 634.387 1058.7 634.06 1058.36 633.859C1058.01 633.658 1057.61 633.598 1057.22 633.692C1056.84 633.787 1056.5 634.028 1056.29 634.365C1042.61 658.791 1033.03 685.307 1027.93 712.851C1026.51 720.543 1025.45 728.289 1024.73 736.089C1024.55 738.057 1027.61 738.044 1027.79 736.089Z" fill="#F2F2F2"/>
<path d="M1066.35 640.841C1077.06 640.841 1085.74 632.131 1085.74 621.387C1085.74 610.643 1077.06 601.934 1066.35 601.934C1055.64 601.934 1046.96 610.643 1046.96 621.387C1046.96 632.131 1055.64 640.841 1066.35 640.841Z" fill="#F2F2F2"/>
<path d="M1029.78 736.606C1031.43 718.769 1035.99 701.325 1043.27 684.971C1045.3 680.42 1047.54 675.969 1049.98 671.618C1050.1 671.391 1050.13 671.124 1050.06 670.875C1049.99 670.626 1049.83 670.414 1049.61 670.283C1049.38 670.153 1049.12 670.114 1048.87 670.176C1048.62 670.237 1048.4 670.394 1048.26 670.612C1039.39 686.459 1033.18 703.661 1029.87 721.53C1028.95 726.52 1028.25 731.545 1027.79 736.606C1027.67 737.882 1029.66 737.874 1029.78 736.606H1029.78Z" fill="#F2F2F2"/>
<path d="M1054.79 674.814C1061.74 674.814 1067.37 669.164 1067.37 662.193C1067.37 655.223 1061.74 649.573 1054.79 649.573C1047.84 649.573 1042.21 655.223 1042.21 662.193C1042.21 669.164 1047.84 674.814 1054.79 674.814Z" fill="#F2F2F2"/>
<path d="M1027.27 735.414C1017.64 720.332 1010.54 703.764 1006.26 686.373C1005.07 681.532 1004.1 676.643 1003.36 671.707C1003.31 671.452 1003.17 671.224 1002.97 671.071C1002.76 670.917 1002.5 670.851 1002.24 670.885C1001.99 670.92 1001.76 671.052 1001.6 671.255C1001.44 671.458 1001.36 671.715 1001.39 671.972C1004.11 689.941 1009.75 707.34 1018.1 723.472C1020.43 727.975 1022.97 732.364 1025.7 736.64C1026.39 737.719 1027.95 736.487 1027.27 735.414V735.414Z" fill="#F2F2F2"/>
<path d="M1001.37 673.928C1008.32 673.928 1013.95 668.278 1013.95 661.308C1013.95 654.337 1008.32 648.687 1001.37 648.687C994.424 648.687 988.792 654.337 988.792 661.308C988.792 668.278 994.424 673.928 1001.37 673.928Z" fill="#F2F2F2"/>
<path d="M215.724 736.089C213.179 708.595 206.151 681.707 194.92 656.498C191.79 649.482 188.344 642.622 184.584 635.915C184.395 635.564 184.35 635.154 184.457 634.77C184.565 634.386 184.816 634.059 185.159 633.858C185.502 633.657 185.91 633.598 186.296 633.692C186.681 633.786 187.016 634.028 187.228 634.365C200.903 658.791 210.483 685.307 215.585 712.851C217.004 720.543 218.071 728.289 218.785 736.089C218.967 738.057 215.904 738.044 215.724 736.089V736.089Z" fill="#F2F2F2"/>
<path d="M177.169 640.841C187.878 640.841 196.56 632.131 196.56 621.387C196.56 610.643 187.878 601.934 177.169 601.934C166.46 601.934 157.778 610.643 157.778 621.387C157.778 632.131 166.46 640.841 177.169 640.841Z" fill="#F2F2F2"/>
<path d="M213.741 736.606C212.09 718.769 207.53 701.325 200.244 684.971C198.213 680.42 195.978 675.969 193.539 671.618C193.416 671.391 193.387 671.124 193.456 670.875C193.526 670.626 193.689 670.414 193.912 670.283C194.134 670.153 194.399 670.114 194.649 670.176C194.9 670.237 195.117 670.394 195.254 670.612C204.125 686.459 210.341 703.661 213.651 721.53C214.572 726.52 215.264 731.545 215.727 736.606C215.845 737.882 213.858 737.874 213.741 736.606H213.741Z" fill="#F2F2F2"/>
<path d="M188.728 674.814C195.675 674.814 201.307 669.164 201.307 662.193C201.307 655.223 195.675 649.573 188.728 649.573C181.78 649.573 176.148 655.223 176.148 662.193C176.148 669.164 181.78 674.814 188.728 674.814Z" fill="#F2F2F2"/>
<path d="M216.248 735.414C225.881 720.332 232.98 703.764 237.261 686.373C238.45 681.532 239.417 676.643 240.161 671.707C240.204 671.452 240.344 671.224 240.551 671.071C240.759 670.917 241.017 670.851 241.273 670.885C241.528 670.92 241.76 671.052 241.92 671.255C242.08 671.458 242.155 671.715 242.13 671.972C239.409 689.941 233.764 707.34 225.419 723.472C223.086 727.975 220.551 732.364 217.814 736.64C217.124 737.719 215.562 736.487 216.248 735.414H216.248Z" fill="#F2F2F2"/>
<path d="M242.145 673.928C249.093 673.928 254.725 668.278 254.725 661.308C254.725 654.337 249.093 648.687 242.145 648.687C235.198 648.687 229.566 654.337 229.566 661.308C229.566 668.278 235.198 673.928 242.145 673.928Z" fill="#F2F2F2"/>
<path d="M954.911 481.774L955.214 710.502C955.215 714.748 953.538 718.821 950.55 721.828C947.561 724.835 943.506 726.53 939.274 726.541L844.571 726.68C871.231 676.646 886.326 597.893 886.237 537.189C886.213 513.232 883.787 489.339 878.995 465.87L938.924 465.782C943.157 465.78 947.217 467.463 950.214 470.461C953.211 473.46 954.9 477.528 954.911 481.774V481.774Z" fill="#F2F2F2"/>
<path d="M1085.49 739H150.972C150.573 738.999 150.191 738.839 149.909 738.555C149.627 738.272 149.469 737.888 149.469 737.488C149.469 737.088 149.627 736.704 149.909 736.42C150.191 736.137 150.573 735.977 150.972 735.976H1085.49C1085.89 735.976 1086.28 736.135 1086.56 736.419C1086.84 736.702 1087 737.087 1087 737.488C1087 737.889 1086.84 738.273 1086.56 738.557C1086.28 738.841 1085.89 739 1085.49 739Z" fill="#3F3D56"/>
<path d="M816.134 450.512L647.356 449.848L663.768 395.068C665.079 390.764 667.727 386.994 671.326 384.309C674.926 381.624 679.287 380.166 683.772 380.146H683.852L780.185 380.526C784.684 380.563 789.052 382.048 792.646 384.763C796.241 387.478 798.871 391.279 800.151 395.606L816.134 450.512Z" fill="#3F3D56"/>
<path d="M910.357 431.767C905.657 431.767 901.15 433.64 897.827 436.974C894.503 440.308 892.636 444.83 892.636 449.545H928.078C928.078 444.83 926.211 440.308 922.888 436.974C919.565 433.64 915.057 431.767 910.357 431.767Z" fill="#F2F2F2"/>
<path d="M964.786 737.813H498.978C493.273 737.807 487.803 735.53 483.769 731.483C479.735 727.436 477.466 721.949 477.459 716.225V469.864C477.466 464.14 479.735 458.653 483.769 454.606C487.803 450.559 493.273 448.282 498.978 448.276H964.786C970.491 448.282 975.961 450.559 979.995 454.606C984.029 458.653 986.298 464.14 986.305 469.864V716.225C986.298 721.949 984.029 727.436 979.995 731.483C975.961 735.53 970.491 737.807 964.786 737.813ZM498.978 450.815C493.944 450.821 489.118 452.83 485.558 456.401C481.999 459.972 479.997 464.814 479.991 469.864V716.225C479.997 721.275 481.999 726.117 485.558 729.688C489.118 733.259 493.944 735.268 498.978 735.274H964.786C969.82 735.268 974.646 733.259 978.206 729.688C981.765 726.117 983.767 721.275 983.773 716.225V469.864C983.767 464.814 981.765 459.972 978.206 456.401C974.646 452.83 969.82 450.821 964.786 450.815H498.978Z" fill="#3F3D56"/>
<path d="M752.134 429.862H711.629C708.776 429.862 706.039 428.725 704.021 426.7C702.004 424.676 700.87 421.931 700.87 419.068C700.87 416.205 702.004 413.46 704.021 411.435C706.039 409.411 708.776 408.274 711.629 408.274H752.134C754.988 408.274 757.724 409.411 759.742 411.435C761.76 413.46 762.894 416.205 762.894 419.068C762.894 421.931 761.76 424.676 759.742 426.7C757.724 428.725 754.988 429.862 752.134 429.862Z" fill="white"/>
<path d="M731.882 689.557C712.855 689.557 694.256 683.896 678.436 673.292C662.616 662.687 650.286 647.613 643.005 629.978C635.724 612.343 633.819 592.937 637.531 574.216C641.243 555.494 650.405 538.297 663.859 524.8C677.312 511.302 694.453 502.11 713.114 498.386C731.775 494.662 751.118 496.574 768.696 503.878C786.274 511.183 801.298 523.553 811.869 539.425C822.439 555.296 828.081 573.956 828.081 593.044C828.053 618.632 817.908 643.164 799.873 661.257C781.839 679.35 757.387 689.528 731.882 689.557V689.557ZM731.882 499.072C713.356 499.072 695.246 504.583 679.843 514.909C664.439 525.235 652.434 539.911 645.344 557.083C638.255 574.254 636.4 593.149 640.014 611.377C643.628 629.606 652.549 646.351 665.649 659.493C678.748 672.635 695.438 681.585 713.608 685.211C731.778 688.837 750.611 686.976 767.727 679.864C784.843 672.751 799.472 660.706 809.764 645.253C820.056 629.799 825.55 611.63 825.55 593.044C825.522 568.13 815.644 544.244 798.084 526.627C780.524 509.009 756.716 499.1 731.882 499.072V499.072Z" fill="#3F3D56"/>
<path d="M731.882 656.54C719.365 656.54 707.128 652.816 696.72 645.839C686.313 638.862 678.201 628.945 673.41 617.343C668.62 605.741 667.367 592.974 669.809 580.657C672.251 568.34 678.279 557.027 687.13 548.147C695.981 539.267 707.258 533.219 719.535 530.77C731.812 528.32 744.537 529.577 756.102 534.383C767.666 539.189 777.551 547.327 784.505 557.769C791.459 568.21 795.171 580.486 795.171 593.045C795.152 609.879 788.478 626.018 776.613 637.921C764.748 649.825 748.662 656.521 731.882 656.54V656.54ZM731.882 532.089C719.865 532.089 708.118 535.664 698.127 542.362C688.135 549.06 680.348 558.58 675.749 569.718C671.151 580.856 669.948 593.112 672.292 604.936C674.636 616.761 680.423 627.622 688.92 636.146C697.417 644.671 708.243 650.477 720.029 652.829C731.815 655.181 744.031 653.973 755.133 649.36C766.235 644.746 775.724 636.934 782.4 626.909C789.076 616.885 792.64 605.1 792.64 593.045C792.621 576.884 786.214 561.39 774.824 549.963C763.434 538.535 747.99 532.108 731.882 532.089V532.089Z" fill="#3F3D56"/>
<path d="M731.882 641.301C758.447 641.301 779.982 619.696 779.982 593.044C779.982 566.393 758.447 544.788 731.882 544.788C705.317 544.788 683.782 566.393 683.782 593.044C683.782 619.696 705.317 641.301 731.882 641.301Z" fill="#CCCCCC"/>
<path d="M702.769 593.045C702.77 585.395 705.524 578.004 710.524 572.229C715.524 566.454 722.434 562.684 729.984 561.613C725.497 560.973 720.925 561.307 716.578 562.593C712.231 563.879 708.21 566.087 704.787 569.067C701.364 572.048 698.619 575.731 696.738 579.867C694.857 584.004 693.884 588.498 693.884 593.045C693.884 597.591 694.857 602.085 696.738 606.222C698.619 610.358 701.364 614.041 704.787 617.022C708.21 620.002 712.231 622.21 716.578 623.496C720.925 624.782 725.497 625.116 729.984 624.476C722.434 623.405 715.524 619.635 710.524 613.86C705.524 608.086 702.77 600.694 702.769 593.045V593.045Z" fill="white"/>
<path d="M942.002 450.816H878.713V449.546C878.713 441.126 882.047 433.051 887.981 427.097C893.916 421.143 901.965 417.798 910.357 417.798C918.75 417.798 926.799 421.143 932.733 427.097C938.668 433.051 942.002 441.126 942.002 449.546V450.816ZM881.271 448.276H939.443C939.117 440.756 935.91 433.654 930.491 428.449C925.072 423.244 917.859 420.338 910.357 420.338C902.855 420.338 895.643 423.244 890.224 428.449C884.805 433.654 881.598 440.756 881.271 448.276V448.276Z" fill="#3F3D56"/>
<path d="M509.104 486.373C506.601 486.373 504.153 485.628 502.072 484.232C499.99 482.837 498.368 480.854 497.41 478.533C496.452 476.213 496.201 473.659 496.69 471.196C497.178 468.733 498.383 466.47 500.154 464.694C501.924 462.918 504.179 461.709 506.635 461.219C509.09 460.729 511.635 460.98 513.948 461.941C516.261 462.902 518.238 464.53 519.629 466.618C521.02 468.707 521.762 471.162 521.762 473.674C521.758 477.04 520.423 480.268 518.05 482.649C515.677 485.03 512.46 486.369 509.104 486.373V486.373ZM509.104 463.514C507.101 463.514 505.144 464.11 503.478 465.227C501.813 466.343 500.515 467.929 499.749 469.786C498.982 471.642 498.782 473.685 499.172 475.656C499.563 477.626 500.528 479.436 501.944 480.857C503.36 482.278 505.164 483.246 507.129 483.638C509.093 484.03 511.129 483.828 512.979 483.059C514.83 482.291 516.411 480.988 517.524 479.318C518.637 477.647 519.23 475.683 519.23 473.674C519.227 470.98 518.16 468.398 516.261 466.493C514.363 464.589 511.789 463.517 509.104 463.514Z" fill="#3F3D56"/>
<path d="M509.104 480.023C512.599 480.023 515.433 477.18 515.433 473.674C515.433 470.167 512.599 467.324 509.104 467.324C505.609 467.324 502.775 470.167 502.775 473.674C502.775 477.18 505.609 480.023 509.104 480.023Z" fill="#009DFF"/>
<path d="M542.014 480.023C545.509 480.023 548.343 477.18 548.343 473.674C548.343 470.167 545.509 467.324 542.014 467.324C538.519 467.324 535.685 470.167 535.685 473.674C535.685 477.18 538.519 480.023 542.014 480.023Z" fill="#CCCCCC"/>
<path d="M574.924 480.023C578.42 480.023 581.254 477.18 581.254 473.674C581.254 470.167 578.42 467.324 574.924 467.324C571.429 467.324 568.595 470.167 568.595 473.674C568.595 477.18 571.429 480.023 574.924 480.023Z" fill="#CCCCCC"/>
<path d="M542.015 486.373C539.511 486.373 537.064 485.628 534.982 484.232C532.901 482.837 531.278 480.854 530.32 478.533C529.362 476.213 529.112 473.659 529.6 471.196C530.088 468.733 531.294 466.47 533.064 464.694C534.834 462.918 537.09 461.709 539.545 461.219C542 460.729 544.545 460.98 546.858 461.941C549.171 462.902 551.148 464.53 552.539 466.618C553.93 468.707 554.672 471.162 554.672 473.674C554.669 477.04 553.334 480.268 550.961 482.649C548.588 485.03 545.37 486.369 542.015 486.373ZM542.015 463.514C540.012 463.514 538.054 464.11 536.389 465.227C534.723 466.343 533.426 467.929 532.659 469.786C531.893 471.642 531.692 473.685 532.083 475.656C532.474 477.626 533.438 479.436 534.854 480.857C536.27 482.278 538.075 483.246 540.039 483.638C542.003 484.03 544.039 483.828 545.89 483.059C547.74 482.291 549.321 480.988 550.434 479.318C551.547 477.647 552.141 475.683 552.141 473.674C552.138 470.98 551.07 468.398 549.171 466.493C547.273 464.589 544.699 463.517 542.015 463.514Z" fill="#3F3D56"/>
<path d="M574.925 486.373C572.421 486.373 569.974 485.628 567.892 484.232C565.811 482.837 564.189 480.854 563.23 478.533C562.272 476.213 562.022 473.659 562.51 471.196C562.999 468.733 564.204 466.47 565.974 464.694C567.745 462.918 570 461.709 572.455 461.219C574.911 460.729 577.456 460.98 579.769 461.941C582.082 462.902 584.059 464.53 585.449 466.618C586.84 468.707 587.583 471.162 587.583 473.674C587.579 477.04 586.244 480.268 583.871 482.649C581.498 485.03 578.281 486.369 574.925 486.373ZM574.925 463.514C572.922 463.514 570.964 464.11 569.299 465.227C567.634 466.343 566.336 467.929 565.569 469.786C564.803 471.642 564.602 473.685 564.993 475.656C565.384 477.626 566.348 479.436 567.764 480.857C569.181 482.278 570.985 483.246 572.949 483.638C574.914 484.03 576.95 483.828 578.8 483.059C580.65 482.291 582.232 480.988 583.344 479.318C584.457 477.647 585.051 475.683 585.051 473.674C585.048 470.98 583.98 468.398 582.082 466.493C580.183 464.589 577.61 463.517 574.925 463.514Z" fill="#3F3D56"/>
<path d="M643.277 558.597H478.725V561.137H643.277V558.597Z" fill="#3F3D56"/>
<path d="M639.19 609.713H478.725V612.253H639.19V609.713Z" fill="#3F3D56"/>
<path d="M985.039 558.597H820.487V561.137H985.039V558.597Z" fill="#3F3D56"/>
<path d="M984.75 609.713H824.284V612.253H984.75V609.713Z" fill="#3F3D56"/>
<path d="M345.339 307.921C335.074 303.19 328.327 289.664 328.711 276.324C329.095 262.985 336.093 250.509 345.743 244.148C350.448 241.123 355.828 239.319 361.4 238.896C366.972 238.474 372.561 239.447 377.665 241.728C388.023 246.151 401.929 247.355 408.154 258.349C412.939 266.798 411.215 285.645 407.828 295.04C404.9 303.159 397.742 307.734 390.761 310.295C383.034 313.103 374.797 314.214 366.605 313.552C358.414 312.89 350.459 310.47 343.28 306.457" fill="#2F2E41"/>
<path d="M282.752 722.203L267.995 717.386L279.489 657.989L301.269 665.098L282.752 722.203Z" fill="#FFB8B8"/>
<path d="M258.826 709.715L287.286 719.004L281.456 736.982L235.077 721.844C235.843 719.483 237.064 717.297 238.672 715.41C240.28 713.522 242.243 711.971 244.448 710.845C246.653 709.719 249.058 709.039 251.525 708.846C253.992 708.652 256.473 708.947 258.826 709.715V709.715Z" fill="#2F2E41"/>
<path d="M414.861 722.525L399.342 722.524L391.96 662.473L414.863 662.474L414.861 722.525Z" fill="#FFB8B8"/>
<path d="M388.258 718.075H418.186V736.98H369.414C369.414 734.498 369.902 732.039 370.849 729.746C371.796 727.452 373.184 725.368 374.933 723.613C376.683 721.857 378.76 720.465 381.047 719.514C383.333 718.564 385.783 718.075 388.258 718.075V718.075Z" fill="#2F2E41"/>
<path d="M414.08 697.963C413.987 697.963 413.893 697.96 413.799 697.955L396.603 697.133C395.155 697.062 393.788 696.441 392.781 695.395C391.773 694.349 391.2 692.958 391.178 691.504L388.848 520.841C388.842 520.418 388.696 520.009 388.432 519.678C388.169 519.347 387.803 519.114 387.393 519.016C386.982 518.917 386.551 518.958 386.167 519.132C385.782 519.307 385.467 519.605 385.27 519.979L294.186 693.245C293.621 694.331 292.721 695.204 291.622 695.735C290.522 696.266 289.281 696.427 288.082 696.193L270.968 692.923C270.162 692.769 269.398 692.442 268.73 691.965C268.061 691.487 267.504 690.871 267.095 690.157C266.686 689.443 266.436 688.649 266.361 687.83C266.286 687.01 266.389 686.184 266.662 685.407L333.027 496.761L338.134 440.957C338.248 439.656 338.805 438.434 339.713 437.497C340.621 436.56 341.823 435.966 343.116 435.815C362.454 433.431 389.474 417.535 400.193 410.811C400.851 410.395 401.588 410.12 402.357 410.004C403.126 409.888 403.911 409.933 404.662 410.136C405.422 410.341 406.131 410.7 406.748 411.19C407.364 411.681 407.873 412.292 408.245 412.987C434.068 461.132 443.944 516.274 436.443 570.426L419.713 693.022C419.534 694.392 418.862 695.649 417.826 696.558C416.789 697.468 415.457 697.967 414.08 697.963V697.963Z" fill="#2F2E41"/>
<path d="M367.792 321.029C384.962 321.029 398.881 307.064 398.881 289.839C398.881 272.613 384.962 258.648 367.792 258.648C350.622 258.648 336.703 272.613 336.703 289.839C336.703 307.064 350.622 321.029 367.792 321.029Z" fill="#FFB8B8"/>
<path d="M336.815 454.356L327.454 387.248C325.175 377.051 327.025 366.364 332.596 357.535C338.168 348.705 347.006 342.457 357.168 340.162C367.33 337.867 377.985 339.714 386.79 345.296C395.595 350.879 401.831 359.74 404.127 369.934C406.793 382.339 412.209 397.44 410.23 413.719C396.367 452.323 371.199 464.225 336.815 454.356Z" fill="#B3B3B3"/>
<path d="M377.953 350.224H355.169C353.659 350.222 352.211 349.62 351.143 348.548C350.075 347.477 349.474 346.025 349.473 344.509V336.89C349.474 335.375 350.075 333.922 351.143 332.851C352.211 331.78 353.659 331.177 355.169 331.176H377.953C379.463 331.177 380.911 331.78 381.979 332.851C383.046 333.922 383.647 335.375 383.649 336.89V344.509C383.647 346.025 383.046 347.477 381.979 348.548C380.911 349.62 379.463 350.222 377.953 350.224Z" fill="#B3B3B3"/>
<path d="M493.422 477.064C494.04 475.169 494.236 473.16 493.997 471.181C493.758 469.201 493.089 467.297 492.037 465.605C490.985 463.913 489.576 462.472 487.91 461.385C486.243 460.298 484.359 459.591 482.391 459.313L411.47 357.449L390.44 378.307L466.766 471.877C466.52 475.226 467.508 478.549 469.541 481.216C471.574 483.883 474.512 485.71 477.797 486.349C481.083 486.988 484.488 486.396 487.368 484.685C490.248 482.974 492.402 480.262 493.422 477.064V477.064Z" fill="#FFB8B8"/>
<path d="M433.656 388.611L408.044 405.764C407.316 406.252 406.491 406.577 405.625 406.716C404.76 406.856 403.875 406.806 403.031 406.571C402.187 406.337 401.403 405.922 400.732 405.356C400.062 404.79 399.521 404.086 399.147 403.291L386.027 375.445C383.562 371.69 382.681 367.108 383.577 362.702C384.473 358.297 387.073 354.428 390.807 351.942C394.542 349.457 399.107 348.558 403.501 349.443C407.894 350.328 411.759 352.925 414.249 356.664L434.791 379.419C435.379 380.071 435.82 380.842 436.084 381.68C436.348 382.518 436.429 383.404 436.321 384.276C436.213 385.148 435.92 385.987 435.46 386.735C435 387.483 434.384 388.123 433.656 388.611V388.611Z" fill="#B3B3B3"/>
<path d="M242.879 340.195C243.034 340.88 243.136 341.576 243.182 342.278L297.557 373.748L310.773 366.115L324.863 384.62L302.775 400.415C300.99 401.691 298.841 402.352 296.651 402.298C294.46 402.245 292.346 401.48 290.625 400.118L234.555 355.74C232.025 356.68 229.269 356.824 226.655 356.155C224.041 355.485 221.692 354.032 219.92 351.99C218.149 349.948 217.039 347.414 216.738 344.724C216.438 342.034 216.961 339.315 218.238 336.931C219.515 334.546 221.485 332.608 223.886 331.374C226.288 330.14 229.007 329.669 231.682 330.023C234.357 330.378 236.861 331.541 238.861 333.358C240.861 335.175 242.263 337.559 242.879 340.195V340.195Z" fill="#FFB8B8"/>
<path d="M313.361 396.616L299.698 368.929C299.31 368.142 299.095 367.279 299.068 366.401C299.042 365.522 299.204 364.648 299.545 363.838C299.885 363.028 300.396 362.301 301.042 361.707C301.687 361.113 302.453 360.666 303.287 360.395L332.499 350.922C336.528 348.95 341.172 348.66 345.413 350.118C349.654 351.575 353.146 354.66 355.123 358.696C357.1 362.733 357.401 367.391 355.96 371.65C354.519 375.908 351.454 379.42 347.436 381.415L322.302 398.927C321.582 399.428 320.763 399.768 319.9 399.923C319.038 400.078 318.152 400.045 317.304 399.825C316.455 399.606 315.664 399.206 314.984 398.652C314.303 398.098 313.75 397.404 313.361 396.616H313.361Z" fill="#B3B3B3"/>
<path d="M388.655 250.556C389.774 250.72 390.916 250.509 391.904 249.956C392.892 249.403 393.67 248.539 394.119 247.497C394.534 246.441 394.702 245.304 394.611 244.173C394.519 243.042 394.171 241.947 393.593 240.972C392.416 239.029 390.773 237.413 388.813 236.269C386.557 234.757 383.948 233.856 381.242 233.656C379.892 233.567 378.538 233.771 377.272 234.252C376.007 234.734 374.86 235.483 373.908 236.449C372.98 237.438 372.367 238.683 372.148 240.024C371.929 241.365 372.113 242.741 372.678 243.976C373.815 246.176 376.2 247.409 378.524 248.246C383.135 249.903 388.046 250.55 392.926 250.144" fill="#2F2E41"/>
<path d="M398.595 304.039C393.161 304.296 394.097 292.728 392.396 287.544C390.696 282.36 388.352 276.177 383.003 275.183C378.619 274.368 374.658 277.584 370.84 279.893C364.034 284.007 355.225 285.525 348.079 282.039C340.933 278.554 336.588 269.241 340.063 262.073C341.122 260.102 342.572 258.371 344.325 256.986C346.077 255.6 348.094 254.591 350.252 254.02C354.576 252.905 359.083 252.688 363.494 253.382C373.336 254.592 382.792 257.955 391.197 263.233C396.997 266.882 402.515 271.851 404.242 278.497C405.969 285.143 406.672 303.216 399.922 304.36L398.595 304.039Z" fill="#2F2E41"/>
<path d="M384.379 234.468C380.274 229.248 381.82 221.023 386.604 216.421C391.388 211.82 398.502 210.386 405.104 210.971C411.645 211.632 417.897 214.007 423.235 217.857C428.572 221.707 432.807 226.898 435.514 232.908C439.686 242.483 439.651 253.434 443.424 263.173C445.435 268.365 448.484 273.089 452.384 277.053C456.283 281.018 460.951 284.14 466.098 286.227C471.246 288.314 476.765 289.322 482.315 289.188C487.865 289.055 493.33 287.783 498.372 285.45C504.939 282.413 511.192 276.464 510.817 269.219C514.969 285.279 507.491 303.649 493.32 312.202C485.02 317.211 475.19 318.912 465.575 320.082C459.308 320.845 452.868 321.412 446.752 319.841C438.197 317.643 431.034 311.307 426.696 303.589C422.359 295.871 420.652 286.877 420.586 278.016C420.535 271.114 421.435 264.208 420.959 257.322C420.483 250.436 418.42 243.314 413.445 238.546C408.469 233.779 400.073 232.209 394.613 236.409C392.419 238.096 390.81 240.561 388.339 241.806C385.869 243.051 381.965 242.083 381.8 239.314L384.379 234.468Z" fill="#2F2E41"/>
<path d="M265.261 340.418H8.84202C6.49781 340.415 4.25039 339.48 2.59278 337.817C0.935162 336.154 0.00272023 333.899 0 331.547V186.657C0.00272357 184.305 0.935162 182.051 2.59278 180.388C4.25039 178.725 6.49781 177.789 8.84202 177.786H265.261C267.605 177.789 269.853 178.725 271.51 180.388C273.168 182.051 274.1 184.305 274.103 186.657V331.547C274.1 333.899 273.168 336.154 271.51 337.817C269.853 339.48 267.605 340.415 265.261 340.418V340.418ZM8.84202 179.758C7.01872 179.76 5.27069 180.487 3.98142 181.781C2.69215 183.074 1.96693 184.828 1.96489 186.657V331.547C1.96693 333.376 2.69215 335.13 3.98142 336.423C5.27069 337.717 7.01872 338.444 8.84202 338.447H265.261C267.084 338.444 268.832 337.717 270.122 336.423C271.411 335.13 272.136 333.376 272.138 331.547V186.657C272.136 184.828 271.411 183.074 270.122 181.781C268.832 180.487 267.084 179.76 265.261 179.758H8.84202Z" fill="#F2F2F2"/>
<path d="M93.3737 279.496C113.624 279.496 130.04 263.026 130.04 242.71C130.04 222.394 113.624 205.925 93.3737 205.925C73.1235 205.925 56.7075 222.394 56.7075 242.71C56.7075 263.026 73.1235 279.496 93.3737 279.496Z" fill="#E6E6E6"/>
<path d="M234.664 307.667L191.623 232.876C191.354 232.409 190.967 232.02 190.502 231.75C190.036 231.481 189.507 231.338 188.969 231.338C188.431 231.338 187.902 231.481 187.436 231.75C186.971 232.02 186.584 232.409 186.315 232.876L160.048 278.519L120.891 210.475C120.546 209.875 120.049 209.378 119.452 209.031C118.855 208.685 118.177 208.503 117.487 208.503C116.797 208.503 116.12 208.685 115.522 209.031C114.925 209.378 114.429 209.875 114.084 210.475L58.9005 306.366C58.5556 306.965 58.374 307.645 58.374 308.337C58.374 309.029 58.5556 309.709 58.9005 310.308C59.2454 310.908 59.7415 311.405 60.3389 311.751C60.9363 312.097 61.614 312.28 62.3038 312.28H232.01C232.548 312.28 233.076 312.138 233.542 311.868C234.008 311.598 234.395 311.21 234.664 310.742C234.933 310.275 235.075 309.744 235.075 309.205C235.075 308.665 234.933 308.134 234.664 307.667V307.667Z" fill="#009DFF"/>
<path d="M34.3857 195.528H18.6665V211.298H34.3857V195.528Z" fill="#3F3D56"/>
<path d="M365.074 127.074H164.718C162.886 127.072 161.13 126.341 159.835 125.042C158.54 123.742 157.811 121.98 157.809 120.143V6.93133C157.811 5.09369 158.54 3.33192 159.835 2.03251C161.13 0.733099 162.886 0.00213755 164.718 0H365.074C366.906 0.00207046 368.662 0.733007 369.957 2.03243C371.252 3.33186 371.981 5.09367 371.983 6.93133V120.143C371.981 121.98 371.252 123.742 369.957 125.042C368.662 126.341 366.906 127.072 365.074 127.074V127.074ZM164.718 1.54029C163.293 1.5419 161.927 2.1104 160.92 3.12106C159.913 4.13173 159.346 5.50204 159.344 6.93133V120.143C159.346 121.572 159.913 122.942 160.92 123.953C161.927 124.964 163.293 125.532 164.718 125.534H365.074C366.499 125.532 367.865 124.964 368.872 123.953C369.879 122.942 370.446 121.572 370.448 120.143V6.93133C370.446 5.50205 369.879 4.13179 368.872 3.12114C367.865 2.11049 366.499 1.54196 365.074 1.54029H164.718Z" fill="#CCCCCC"/>
<path d="M230.768 79.4718C246.59 79.4718 259.417 66.6032 259.417 50.729C259.417 34.8548 246.59 21.9862 230.768 21.9862C214.945 21.9862 202.118 34.8548 202.118 50.729C202.118 66.6032 214.945 79.4718 230.768 79.4718Z" fill="#F2F2F2"/>
<path d="M341.167 101.484L307.536 43.0451C307.326 42.6798 307.024 42.3765 306.66 42.1656C306.296 41.9547 305.883 41.8437 305.462 41.8437C305.042 41.8437 304.629 41.9547 304.265 42.1656C303.901 42.3765 303.598 42.6798 303.388 43.0451L282.865 78.7085L252.268 25.5415C251.999 25.0732 251.611 24.6843 251.144 24.4139C250.678 24.1436 250.148 24.0012 249.609 24.0012C249.07 24.0012 248.541 24.1436 248.074 24.4139C247.607 24.6843 247.219 25.0732 246.95 25.5415L203.832 100.467C203.562 100.936 203.42 101.467 203.42 102.008C203.42 102.548 203.562 103.08 203.832 103.548C204.101 104.016 204.489 104.405 204.956 104.675C205.422 104.946 205.952 105.088 206.491 105.088H339.093C339.513 105.088 339.926 104.977 340.29 104.766C340.654 104.555 340.956 104.252 341.167 103.887C341.377 103.522 341.488 103.107 341.488 102.685C341.488 102.264 341.377 101.849 341.167 101.484Z" fill="#E6E6E6"/>
<path d="M184.676 13.8628H172.394V26.1851H184.676V13.8628Z" fill="#CCCCCC"/>
</g>
<defs>
<clipPath id="clip0">
<rect width="1087" height="739" fill="white"/>
</clipPath>
</defs>
</svg>
