<svg width="1050" height="679" viewBox="0 0 1050 679" fill="none" xmlns="http://www.w3.org/2000/svg">
<g clip-path="url(#clip0)">
<g opacity="0.5">
<path opacity="0.5" d="M642.357 -63.9864L89.1318 181.8L437.805 926.298L991.03 680.512L642.357 -63.9864Z" fill="url(#paint0_linear)"/>
</g>
<path d="M637.881 -55.3744L98.7319 184.159L439.699 912.203L978.849 672.67L637.881 -55.3744Z" fill="white"/>
<path d="M493.745 -14.5723L226.281 104.257L255.834 167.359L523.298 48.5301L493.745 -14.5723Z" fill="url(#paint1_linear)"/>
<path d="M331.124 -16.8296C310.48 -7.65432 301.558 16.474 311.204 37.0663C320.849 57.6585 345.409 66.9147 366.053 57.7394C386.697 48.5642 395.619 24.4359 385.973 3.84361C376.327 -16.7487 351.768 -26.0048 331.124 -16.8296ZM358.661 41.9659C354.317 44.0185 349.444 44.7635 344.663 44.1057C339.883 43.4479 335.412 41.4173 331.822 38.2731C328.232 35.1289 325.685 31.0138 324.507 26.4533C323.33 21.8929 323.574 17.0941 325.21 12.6697C326.846 8.24534 329.798 4.39622 333.691 1.61391C337.583 -1.16841 342.238 -2.75764 347.062 -2.95085C351.887 -3.14406 356.66 -1.93247 360.774 0.529185C364.888 2.99085 368.155 6.59086 370.158 10.8695C371.5 13.6473 372.268 16.6554 372.416 19.7221C372.565 22.7888 372.092 25.854 371.025 28.7427C369.957 31.6314 368.316 34.287 366.194 36.5578C364.073 38.8286 361.513 40.6702 358.661 41.9774V41.9659Z" fill="url(#paint2_linear)"/>
<path d="M490.941 -13.2737L229.111 103.052L257.364 163.379L519.194 47.0532L490.941 -13.2737Z" fill="#6C63FF"/>
<path d="M332.405 -14.0793C325.165 -10.8638 319.066 -5.62933 314.88 0.962193C310.694 7.55371 308.609 15.2062 308.889 22.9518C309.169 30.6975 311.8 38.1884 316.451 44.4772C321.102 50.7661 327.563 55.5703 335.018 58.2825C342.472 60.9946 350.585 61.4928 358.33 59.7141C366.075 57.9353 373.105 53.9595 378.53 48.2894C383.955 42.6193 387.532 35.5097 388.808 27.8596C390.084 20.2095 389.003 12.3626 385.7 5.31117C381.272 -4.143 373.17 -11.497 363.175 -15.1333C353.181 -18.7696 342.113 -18.3905 332.405 -14.0793V-14.0793ZM358.732 42.1392C354.556 43.9935 349.91 44.6001 345.38 43.8825C340.85 43.1648 336.64 41.1551 333.283 38.1074C329.926 35.0598 327.571 31.1109 326.518 26.7603C325.465 22.4096 325.76 17.8524 327.365 13.6649C328.971 9.47742 331.815 5.84762 335.539 3.23446C339.262 0.621289 343.698 -0.85791 348.284 -1.01612C352.871 -1.17432 357.402 -0.00443083 361.306 2.34564C365.21 4.69571 368.311 8.12043 370.217 12.1868C372.77 17.6407 372.994 23.8588 370.84 29.4736C368.686 35.0884 364.331 39.6401 358.732 42.1277V42.1392Z" fill="#6C63FF"/>
<path d="M294.734 239.53L179.298 290.815L231.954 403.248L347.39 351.962L294.734 239.53Z" fill="url(#paint3_linear)"/>
<path d="M399.474 462.161L284.038 513.447L336.694 625.879L452.129 574.593L399.474 462.161Z" fill="url(#paint4_linear)"/>
<path d="M292.428 245.52L185.444 293.051L234.245 397.251L341.228 349.721L292.428 245.52Z" fill="#69F0AE"/>
<path d="M395.81 466.257L288.827 513.787L337.627 617.987L444.611 570.457L395.81 466.257Z" fill="#6C63FF"/>
<path d="M524.52 181.269L377.877 246.419L382.545 256.386L529.188 191.236L524.52 181.269Z" fill="#E0E0E0"/>
<path d="M627.017 153.794L384.887 261.368L389.555 271.335L631.685 163.761L627.017 153.794Z" fill="#E0E0E0"/>
<path d="M616.952 176.319L391.877 276.315L396.545 286.282L621.619 186.286L616.952 176.319Z" fill="#E0E0E0"/>
<path d="M627.907 402.016L481.265 467.166L485.933 477.133L632.575 411.982L627.907 402.016Z" fill="#E0E0E0"/>
<path d="M730.4 374.531L488.27 482.104L492.938 492.071L735.068 384.497L730.4 374.531Z" fill="#E0E0E0"/>
<path d="M720.339 397.066L495.265 497.062L499.932 507.028L725.007 407.032L720.339 397.066Z" fill="#E0E0E0"/>
<path d="M236.149 325.959L263.698 334.672L272.763 283.03L286.169 286.6L271.09 350.446L229.541 332.708L236.149 325.959Z" fill="url(#paint5_linear)"/>
<path d="M239.661 325.277L263.615 332.846L271.493 287.941L283.144 291.049L270.034 346.563L233.907 331.148L239.661 325.277Z" fill="white"/>
<path d="M343.688 547.39L367.643 554.959L375.521 510.053L387.171 513.162L374.061 568.675L337.934 553.26L343.688 547.39Z" fill="white"/>
<path d="M803.585 552.599L461.51 704.576L513.52 815.631L855.596 663.654L803.585 552.599Z" fill="#E0E0E0"/>
<path d="M753.995 641.106C740.849 637.455 727.395 638.148 723.207 652.789C721.795 657.724 721.629 665.385 716.195 667.927C708.198 671.671 698.553 664.183 691.612 661.133C678.68 655.447 665.404 659.318 657.917 671.267C654.121 677.322 652.495 684.29 651.202 691.189C650.644 694.182 650.573 697.88 649.28 700.699C646.8 706.096 639.041 705.61 633.951 705.402C632.836 705.402 631.697 705.275 630.558 705.16C634.582 699.76 636.591 693.184 636.253 686.52C635.921 675.577 628.624 663.605 615.87 664.946C604.444 666.101 596.4 676.848 597.682 687.722C598.773 696.967 604.954 704.131 612.88 708.523C608.988 710.198 604.836 711.504 601.158 713.237C599.44 714.047 597.772 714.954 596.163 715.953C585.046 710.73 570.441 709.747 560.439 715.075C555.599 717.652 559.134 725.313 563.999 722.713C571.615 718.657 580.015 719.674 587.976 722.251L588.641 722.482C587.854 723.463 587.159 724.511 586.565 725.613C582.068 734.118 586.565 747.569 597.504 748.494C612.927 749.776 613.651 729.924 605.275 722.02C604.919 721.684 604.563 721.361 604.183 721.049C607.648 719.42 611.397 718.195 614.707 716.82C617.591 715.63 620.335 714.142 622.893 712.382L623.487 712.532C635.268 715.132 653.658 715.941 657.893 702.04C661.524 689.976 661.868 664.357 681.444 666.726C689.429 667.685 695.978 673.659 703.571 675.82C710.37 677.796 718.236 677.877 723.812 673C728.415 668.979 729.448 663.039 730.859 657.493C731.583 654.627 732.295 651.206 734.692 649.161C739.022 645.475 746.176 647.647 751.005 648.987C756.285 650.443 759.346 642.586 753.995 641.106ZM600.944 738.856C598.346 741.364 595.593 739.376 594.205 736.753C592.521 733.564 593.244 730.421 595.392 727.613C595.743 727.154 596.119 726.714 596.519 726.295C601.656 729.531 605.856 734.165 600.992 738.856H600.944ZM610.056 676.455C615.395 671.625 622.834 672.688 626.014 679.321C629.193 685.954 627.793 695.314 623.332 701.162C622.741 701.929 622.086 702.647 621.375 703.311C618.266 702.299 615.391 700.701 612.915 698.608C606.604 693.061 603.032 682.811 610.104 676.421L610.056 676.455Z" fill="#6C63FF"/>
<path d="M825.146 192.202L729.376 228.568C711.366 227.262 673.471 222.501 635.861 205.225C593.991 185.996 546.024 186.043 505.353 206.184C411.624 208.368 360.037 196.674 332.512 185.603L339.773 171.089L242.698 134.227L0 28.2839V462.501L84.9373 499.364L130.497 392.913L230.549 437.98L249.758 390.44L315.451 437.922L319.924 441.586L313.766 447.814C308.12 453.622 304.974 461.316 304.974 469.313C304.974 477.311 308.12 485.005 313.766 490.813C316.498 493.626 319.791 495.867 323.442 497.398C327.094 498.929 331.028 499.719 335.003 499.719C338.979 499.719 342.913 498.929 346.564 497.398C350.216 495.867 353.509 493.626 356.241 490.813L352.871 494.28C347.225 500.087 344.079 507.781 344.079 515.779C344.079 523.777 347.225 531.471 352.871 537.278V537.278C355.603 540.091 358.896 542.332 362.547 543.863C366.199 545.395 370.133 546.185 374.108 546.185C378.084 546.185 382.018 545.395 385.67 543.863C389.321 542.332 392.614 540.091 395.346 537.278L414.803 517.576L401.444 531.096C395.798 536.904 392.652 544.598 392.652 552.595C392.652 560.593 395.798 568.287 401.444 574.095V574.095C404.176 576.908 407.469 579.149 411.12 580.68C414.772 582.211 418.706 583.001 422.681 583.001C426.657 583.001 430.591 582.211 434.242 580.68C437.894 579.149 441.187 576.908 443.919 574.095L463.127 554.647L455.047 562.828C451.1 566.885 448.9 572.261 448.9 577.85C448.9 583.44 451.1 588.816 455.047 592.873C456.956 594.837 459.255 596.401 461.805 597.47C464.355 598.539 467.102 599.091 469.878 599.091C472.654 599.091 475.401 598.539 477.951 597.47C480.501 596.401 482.8 594.837 484.708 592.873L497.522 579.907C519.53 595.565 537.339 606.994 546.059 609.952C582.4 622.224 582.4 597.645 582.4 597.645C630.937 622.213 655.212 573.078 655.212 573.078C715.886 597.645 715.886 536.215 715.886 536.215C731.049 546.454 741.988 541.762 749.629 532.749C760.034 520.523 761.303 503.27 754.161 489.426L812.154 437.229L837.236 487.173L937.288 442.106L982.847 540.479L1049.94 511.301V81.6251L825.146 192.202Z" fill="url(#paint6_linear)"/>
<path d="M809.034 419.583L703.417 511.012L621.28 362.429L809.034 316.714V419.583Z" fill="#BE7C5E"/>
<path d="M304.44 179.56C304.44 179.56 338.337 225.274 539.13 213.846L656.481 385.286L735.118 471.457C747.469 485 748.169 505.535 736.044 519.263C728.676 527.595 718.081 531.974 703.417 522.441C703.417 522.441 703.417 579.584 644.747 556.727C644.747 556.727 621.279 602.441 574.344 579.584C574.344 579.584 574.344 602.441 539.142 591.012C503.94 579.584 316.174 431.012 316.174 431.012L234.037 373.869L304.44 179.56Z" fill="#FDA57D"/>
<path d="M726.885 236.714C726.885 236.714 676.176 236.714 626.037 214.539C580.442 194.397 527.349 196.963 485.278 223.402C450.99 244.954 421.281 280.638 421.839 339.572C421.839 339.572 467.469 385.286 515.71 293.857H550.912C550.912 293.857 584.808 408.155 679.996 396.703C775.185 385.251 797.347 373.846 797.347 373.846L726.885 236.714Z" fill="#BE7C5E"/>
<path d="M418.813 462.393L415.004 458.683C404.713 448.66 388.029 448.66 377.738 458.683L350.464 485.248C340.174 495.27 340.174 511.521 350.464 521.544L354.273 525.253C364.564 535.276 381.248 535.276 391.539 525.253L418.813 498.689C429.103 488.666 429.103 472.416 418.813 462.393Z" fill="#BE7C5E"/>
<path d="M380.991 419.217L377.183 415.508C366.892 405.485 350.208 405.485 339.917 415.508L312.643 442.072C302.352 452.095 302.352 468.345 312.643 478.368L316.452 482.078C326.742 492.101 343.427 492.101 353.718 482.078L380.991 455.513C391.282 445.491 391.282 429.24 380.991 419.217Z" fill="#BE7C5E"/>
<path d="M471.611 490.957L467.802 487.247C457.511 477.224 440.827 477.224 430.536 487.247L397.398 519.523C387.107 529.546 387.107 545.796 397.398 555.819L401.207 559.529C411.497 569.552 428.182 569.552 438.472 559.529L471.611 527.253C481.901 517.23 481.901 500.979 471.611 490.957Z" fill="#BE7C5E"/>
<path d="M499.4 530.722L496.74 528.132C489.554 521.133 477.903 521.133 470.717 528.132L449.802 548.503C442.615 555.502 442.615 566.85 449.802 573.85L452.461 576.44C459.648 583.439 471.299 583.439 478.485 576.44L499.4 556.069C506.586 549.07 506.586 537.722 499.4 530.722Z" fill="#BE7C5E"/>
<path d="M926.373 442.441L820.768 488.155L715.151 236.714L809.034 202.429L926.373 442.441Z" fill="white"/>
<path d="M128.432 385.298L234.037 431.012L339.654 179.571L245.771 145.274L128.432 385.298Z" fill="white"/>
<path d="M11.0815 42.4166L245.771 145.274L93.2307 488.155L11.0815 453.869V42.4166Z" fill="#333333"/>
<path d="M1043.72 99.5595L809.034 202.428L961.587 545.298L1043.72 511.012V99.5595Z" fill="#4D8AF0"/>
<path d="M443 266C437.48 266 433 270.48 433 276C433 281.52 437.48 286 443 286C448.52 286 453 281.52 453 276C453 270.48 448.52 266 443 266ZM441 281L436 276L437.41 274.59L441 278.17L448.59 270.58L450 272L441 281Z" fill="black"/>
</g>
<defs>
<linearGradient id="paint0_linear" x1="714.423" y1="803.403" x2="380.706" y2="52.26" gradientUnits="userSpaceOnUse">
<stop stop-color="#808080" stop-opacity="0.25"/>
<stop offset="0.54" stop-color="#808080" stop-opacity="0.12"/>
<stop offset="1" stop-color="#808080" stop-opacity="0.1"/>
</linearGradient>
<linearGradient id="paint1_linear" x1="168772" y1="-63124.9" x2="167074" y2="-66946.1" gradientUnits="userSpaceOnUse">
<stop stop-color="#808080" stop-opacity="0.25"/>
<stop offset="0.54" stop-color="#808080" stop-opacity="0.12"/>
<stop offset="1" stop-color="#808080" stop-opacity="0.1"/>
</linearGradient>
<linearGradient id="paint2_linear" x1="49875.4" y1="-12592.7" x2="47513" y2="-17910.1" gradientUnits="userSpaceOnUse">
<stop stop-color="#808080" stop-opacity="0.25"/>
<stop offset="0.54" stop-color="#808080" stop-opacity="0.12"/>
<stop offset="1" stop-color="#808080" stop-opacity="0.1"/>
</linearGradient>
<linearGradient id="paint3_linear" x1="68358.9" y1="14904" x2="62970" y2="2774.35" gradientUnits="userSpaceOnUse">
<stop stop-color="#808080" stop-opacity="0.25"/>
<stop offset="0.54" stop-color="#808080" stop-opacity="0.12"/>
<stop offset="1" stop-color="#808080" stop-opacity="0.1"/>
</linearGradient>
<linearGradient id="paint4_linear" x1="79749.4" y1="38872.4" x2="74360" y2="26741.6" gradientUnits="userSpaceOnUse">
<stop stop-color="#808080" stop-opacity="0.25"/>
<stop offset="0.54" stop-color="#808080" stop-opacity="0.12"/>
<stop offset="1" stop-color="#808080" stop-opacity="0.1"/>
</linearGradient>
<linearGradient id="paint5_linear" x1="31374" y1="8907.67" x2="29930.8" y2="5659.4" gradientUnits="userSpaceOnUse">
<stop stop-color="#808080" stop-opacity="0.25"/>
<stop offset="0.54" stop-color="#808080" stop-opacity="0.12"/>
<stop offset="1" stop-color="#808080" stop-opacity="0.1"/>
</linearGradient>
<linearGradient id="paint6_linear" x1="629565" y1="355243" x2="629565" y2="58994.8" gradientUnits="userSpaceOnUse">
<stop stop-color="#808080" stop-opacity="0.25"/>
<stop offset="0.54" stop-color="#808080" stop-opacity="0.12"/>
<stop offset="1" stop-color="#808080" stop-opacity="0.1"/>
</linearGradient>
<clipPath id="clip0">
<rect width="1050" height="679" fill="white"/>
</clipPath>
</defs>
</svg>
