<svg width="1150" height="985" viewBox="0 0 1150 985" fill="none" xmlns="http://www.w3.org/2000/svg">
<g clip-path="url(#clip0)">
<path d="M40.7286 106.718C63.0554 106.718 81.1549 88.6828 81.1549 66.4353C81.1549 44.1878 63.0554 26.1527 40.7286 26.1527C18.4018 26.1527 0.302368 44.1878 0.302368 66.4353C0.302368 88.6828 18.4018 106.718 40.7286 106.718Z" fill="#FF6584"/>
<path d="M245.923 249.539V233.67H184.671V249.539H172.42V26.1533H41.3412V400.903H149.145H172.42H280.224V249.539H245.923Z" fill="#E6E6E6"/>
<path d="M700.278 208.742C700.278 208.742 700.195 208.822 700.051 208.961L700.052 208.742L700.046 208.966C696.948 211.969 662.447 245.89 649.062 280.297C644.619 275.371 641.477 272.366 641.477 272.366C641.477 272.366 641.422 272.418 641.328 272.51L641.329 272.366L641.325 272.513C638.8 274.959 604.455 308.73 604.455 335.492C604.455 361.329 618.792 371.526 637.245 372.827L635.906 398.313H639.646L640.059 372.957C640.53 372.967 641.002 372.975 641.477 372.975C655.112 372.975 667.017 368.65 673.442 357.537C679.954 360.097 686.833 361.61 693.822 362.018L691.779 400.903H697.485L698.116 362.216C698.834 362.232 699.554 362.243 700.278 362.243C731.474 362.243 756.763 347.443 756.763 305.055C756.763 262.666 700.278 208.742 700.278 208.742Z" fill="#F2F2F2"/>
<path d="M565.657 235.22V212.917H497.055V235.22H465.204V147H434.578V112.821H365.976V147H334.125V285.494C329.507 279.735 324.554 274.25 319.292 269.069C319.292 269.069 319.237 269.121 319.143 269.212L319.143 269.069L319.14 269.215C316.614 271.662 282.27 305.433 282.27 332.194C282.27 358.032 296.607 368.229 315.06 369.53L313.721 395.016H317.461L317.874 369.66C318.345 369.67 318.817 369.677 319.292 369.677C324.314 369.74 329.317 369.036 334.125 367.589V400.903H596.283V235.22H565.657Z" fill="#F2F2F2"/>
<path d="M1093.52 210.328C1093.52 210.328 1093.43 210.407 1093.29 210.547L1093.29 210.328L1093.28 210.551C1090.08 213.659 1053.23 249.891 1040.97 285.5V267.848L923.368 90.8488L805.764 267.848V400.903H1040.97V332.109C1048.49 353.051 1066.02 362.12 1087.06 363.604L1085.02 402.488H1090.72L1091.35 363.802C1092.07 363.818 1092.79 363.829 1093.52 363.829C1124.71 363.829 1150 349.028 1150 306.64C1150 264.252 1093.52 210.328 1093.52 210.328Z" fill="#F2F2F2"/>
<path d="M187.12 448.901C272.706 448.901 342.088 442.528 342.088 434.667C342.088 426.806 272.706 420.433 187.12 420.433C101.534 420.433 32.153 426.806 32.153 434.667C32.153 442.528 101.534 448.901 187.12 448.901Z" fill="#F2F2F2"/>
<path d="M1046.49 621.323C1084.66 621.323 1115.6 618.48 1115.6 614.975C1115.6 611.469 1084.66 608.626 1046.49 608.626C1008.32 608.626 977.374 611.469 977.374 614.975C977.374 618.48 1008.32 621.323 1046.49 621.323Z" fill="#F2F2F2"/>
<path d="M306.564 510.24C344.733 510.24 375.676 507.398 375.676 503.892C375.676 500.386 344.733 497.544 306.564 497.544C268.394 497.544 237.451 500.386 237.451 503.892C237.451 507.398 268.394 510.24 306.564 510.24Z" fill="#F2F2F2"/>
<path d="M1075.89 589.463C1075.89 607.261 1065.27 613.476 1052.17 613.476C1051.86 613.476 1051.56 613.473 1051.26 613.466C1050.65 613.453 1050.05 613.424 1049.46 613.384C1037.63 612.55 1028.45 606.016 1028.45 589.463C1028.45 572.332 1050.42 550.716 1052.07 549.117L1052.07 549.114C1052.14 549.052 1052.17 549.022 1052.17 549.022C1052.17 549.022 1075.89 571.664 1075.89 589.463Z" fill="#009DFF"/>
<path d="M1051.3 610.753L1059.98 598.675L1051.28 612.08L1051.26 613.466C1050.65 613.453 1050.05 613.424 1049.46 613.384L1050.39 595.577L1050.38 595.439L1050.4 595.413L1050.49 593.731L1041.77 580.294L1050.52 592.469L1050.54 592.827L1051.24 579.372L1043.78 565.487L1051.33 577.011L1052.07 549.117L1052.07 549.022V549.114L1051.95 571.11L1059.38 562.39L1051.92 573.005L1051.72 585.051L1058.66 573.49L1051.69 586.824L1051.58 593.521L1061.66 577.43L1051.55 595.858L1051.3 610.753Z" fill="#3F3D56"/>
<path d="M128.933 846.702C200.141 846.702 257.866 841.399 257.866 834.859C257.866 828.319 200.141 823.017 128.933 823.017C57.7253 823.017 0 828.319 0 834.859C0 841.399 57.7253 846.702 128.933 846.702Z" fill="#F2F2F2"/>
<path d="M183.778 787.266C183.778 820.47 163.97 832.064 139.532 832.064C138.966 832.064 138.401 832.057 137.837 832.045C136.704 832.021 135.583 831.967 134.475 831.892C112.42 830.336 95.286 818.146 95.286 787.266C95.286 755.308 136.27 714.982 139.349 711.998L139.354 711.992C139.473 711.877 139.532 711.821 139.532 711.821C139.532 711.821 183.778 754.061 183.778 787.266Z" fill="#009DFF"/>
<path d="M137.92 826.984L154.103 804.452L137.88 829.458L137.837 832.045C136.704 832.021 135.583 831.967 134.475 831.892L136.219 798.671L136.206 798.413L136.235 798.365L136.4 795.228L120.136 770.16L136.451 792.874L136.489 793.541L137.807 768.441L123.883 742.537L137.977 764.035L139.349 711.998L139.354 711.821V711.992L139.125 753.027L152.987 736.759L139.069 756.562L138.702 779.035L151.645 757.467L138.648 782.342L138.443 794.835L157.233 764.817L138.373 799.195L137.92 826.984Z" fill="#3F3D56"/>
<path d="M362.913 276.275C362.913 346.373 321.093 370.848 269.504 370.848C217.916 370.848 176.095 346.373 176.095 276.275C176.095 206.177 269.504 117.002 269.504 117.002C269.504 117.002 362.913 206.177 362.913 276.275Z" fill="#009DFF"/>
<path d="M266.102 360.125L267.058 301.46L306.872 228.882L267.208 292.258L267.638 265.879L295.077 213.37L267.752 258.897V258.899L268.526 211.456L297.909 169.652L268.647 203.995L269.131 117.001L266.093 232.166L266.343 227.415L236.469 181.85L265.864 236.535L263.081 289.52L262.997 288.113L228.559 240.165L262.893 293.082L262.545 299.707L262.483 299.808L262.511 300.352L255.45 434.78H264.885L266.017 365.345L300.267 312.558L266.102 360.125Z" fill="#3F3D56"/>
<path d="M199.105 276.275C199.105 346.373 157.284 370.848 105.696 370.848C54.1076 370.848 12.287 346.373 12.287 276.275C12.287 206.177 105.696 117.002 105.696 117.002C105.696 117.002 199.105 206.177 199.105 276.275Z" fill="#009DFF"/>
<path d="M102.293 360.125L103.25 301.46L143.062 228.882L103.399 292.258L103.829 265.879L131.269 213.37L103.943 258.897V258.899L104.717 211.456L134.099 169.652L104.839 203.995L105.321 117.001L102.285 232.166L102.534 227.415L72.6607 181.85L102.055 236.535L99.2722 289.52L99.1889 288.113L64.7506 240.165L99.0847 293.082L98.7368 299.707L98.6743 299.808L98.7025 300.352L91.6414 434.78H101.077L102.209 365.345L136.458 312.558L102.293 360.125Z" fill="#3F3D56"/>
<path d="M324.937 215.376C324.937 310.165 268.386 343.262 198.626 343.262C128.866 343.262 72.3141 310.165 72.3141 215.376C72.3141 120.587 198.626 0 198.626 0C198.626 0 324.937 120.587 324.937 215.376Z" fill="#F2F2F2"/>
<path d="M194.024 328.762L195.318 249.432L249.154 151.289L195.521 236.987L196.102 201.318L233.207 130.313L196.256 191.878L197.302 127.724L237.034 71.1952L197.466 117.636L198.119 0L194.013 155.729L194.35 149.304L153.954 87.6915L193.703 161.637L189.938 233.286L189.827 231.384L143.257 166.545L189.686 238.103L189.214 247.063L189.13 247.197L189.169 247.933L179.62 429.713H192.379L193.909 335.82L240.224 264.439L194.024 328.762Z" fill="#3F3D56"/>
<path d="M322.487 490.012C322.491 491.823 322.182 493.622 321.575 495.328C320.689 497.798 319.207 500.012 317.26 501.777C315.213 503.624 312.718 504.906 310.022 505.499C308.886 505.755 307.725 505.883 306.561 505.881C303.659 505.875 300.813 505.088 298.324 503.602C296.02 502.208 294.105 500.258 292.757 497.932C291.538 495.823 290.823 493.464 290.665 491.035C290.508 488.607 290.913 486.175 291.85 483.927C292.787 481.68 294.229 479.677 296.067 478.074C297.904 476.47 300.087 475.31 302.446 474.681C304.805 474.053 307.278 473.973 309.673 474.449C312.068 474.925 314.322 475.943 316.259 477.425C318.196 478.907 319.765 480.813 320.845 482.995C321.925 485.178 322.487 487.579 322.487 490.012V490.012Z" fill="#3F3D56"/>
<path d="M294.559 479.582L295.985 479.402L298.7 482.958L296.97 487.077L292.525 487.639L291.187 485.88L294.559 479.582Z" fill="#F2F2F2"/>
<path d="M303.484 496.453L299.037 497.017L296.323 493.461L298.058 489.342L302.504 488.779L305.217 492.333L303.484 496.453Z" fill="#F2F2F2"/>
<path d="M299.424 500.991L298.324 503.602C296.02 502.208 294.106 500.258 292.757 497.933L296.71 497.435L299.424 500.991Z" fill="#F2F2F2"/>
<path d="M308.551 484.19L304.105 484.754L301.391 481.199L303.125 477.08L307.572 476.516L310.284 480.072L308.551 484.19Z" fill="#F2F2F2"/>
<path d="M315.066 493.568L310.619 494.131L307.906 490.576L309.639 486.457L314.086 485.893L316.799 489.449L315.066 493.568Z" fill="#F2F2F2"/>
<path d="M311.006 503.155L310.022 505.499C308.886 505.755 307.726 505.883 306.561 505.881C305.375 505.882 304.192 505.749 303.036 505.485L302.117 504.28L303.847 500.161L308.292 499.599L311.006 503.155Z" fill="#F2F2F2"/>
<path d="M320.728 482.763L316.414 483.311L313.699 479.755L315.038 476.574C317.457 478.091 319.423 480.229 320.728 482.763V482.763Z" fill="#F2F2F2"/>
<path d="M321.575 495.328C320.689 497.798 319.207 500.012 317.26 501.777L315.87 499.952L317.6 495.833L321.575 495.328Z" fill="#F2F2F2"/>
<path d="M669.785 985C834.192 985 967.469 977.212 967.469 967.605C967.469 957.998 834.192 950.21 669.785 950.21C505.379 950.21 372.101 957.998 372.101 967.605C372.101 977.212 505.379 985 669.785 985Z" fill="#F2F2F2"/>
<path d="M523.532 917.68L460.728 973.827C432.568 961.523 413.871 940.585 404.38 911.247L467.185 855.099C467.58 891.992 486.752 912.513 523.532 917.68Z" fill="#E6E6E6"/>
<path d="M460.244 880.383L417.821 916.486L418.616 917.414L461.039 881.311L460.244 880.383Z" fill="#3F3D56"/>
<path d="M464.498 887.942L423.619 924.694L424.439 925.6L465.317 888.847L464.498 887.942Z" fill="#3F3D56"/>
<path d="M554.451 713.811L470.543 722.658C454.954 696.249 452.109 668.366 461.664 639.049L545.572 630.201C524.205 660.333 527.679 688.155 554.451 713.811Z" fill="#F2F2F2"/>
<path d="M525.084 646.642L469.478 651.141L469.577 652.357L525.183 647.858L525.084 646.642Z" fill="#3F3D56"/>
<path d="M524.087 655.251L469.351 661.177L469.483 662.39L524.22 656.463L524.087 655.251Z" fill="#3F3D56"/>
<path d="M477.714 536.596L421.621 473.789C434.083 445.779 455.171 427.233 484.652 417.895L540.746 480.702C503.72 480.947 483.049 499.968 477.714 536.596Z" fill="#E6E6E6"/>
<path d="M479.34 431.267L478.406 432.055L514.466 474.473L515.4 473.685L479.34 431.267Z" fill="#3F3D56"/>
<path d="M471.079 437.011L470.167 437.824L506.885 478.706L507.797 477.892L471.079 437.011Z" fill="#3F3D56"/>
<path d="M540.706 239.051L483.417 272.01L564.882 412.61L622.171 379.651L540.706 239.051Z" fill="#3F3D56"/>
<path d="M550.822 273.085L505.233 300.3L505.862 301.347L551.451 274.132L550.822 273.085Z" fill="#009DFF"/>
<path d="M558.075 283.176L512.486 310.391L513.115 311.438L558.704 284.223L558.075 283.176Z" fill="#009DFF"/>
<path d="M562.975 291.721L517.386 318.936L518.015 319.983L563.605 292.768L562.975 291.721Z" fill="#009DFF"/>
<path d="M570.326 302.707L524.736 329.922L525.366 330.969L570.955 303.754L570.326 302.707Z" fill="#009DFF"/>
<path d="M581.351 318.576L535.761 345.792L536.391 346.838L581.98 319.623L581.351 318.576Z" fill="#009DFF"/>
<path d="M748.49 417.189C748.49 417.189 780.024 402.076 802.463 407.709L748.49 262.662V247.768L824.886 428.892C843.986 464.767 868.135 546.534 826.963 553.098C780.253 560.545 696.174 588.472 696.174 588.472L677.49 426.498L748.49 417.189Z" fill="#2F2E41"/>
<path d="M564.451 368.783C564.451 368.783 514.004 305.483 500.925 327.824C487.847 350.165 559.662 387.745 559.662 387.745L564.451 368.783Z" fill="#FFB9B9"/>
<path d="M581.267 370.644L560.714 359.474C560.714 359.474 547.635 392.986 547.635 398.571C547.635 404.156 568.188 406.018 568.188 406.018L581.267 370.644Z" fill="#D0CDE1"/>
<path d="M659.74 229.15C686.57 229.15 708.319 207.478 708.319 180.744C708.319 154.01 686.57 132.338 659.74 132.338C632.911 132.338 611.162 154.01 611.162 180.744C611.162 207.478 632.911 229.15 659.74 229.15Z" fill="#FFB9B9"/>
<path d="M697.109 175.158C697.109 175.158 717.661 236.597 732.609 240.32C747.556 244.044 674.688 271.97 674.688 271.97C674.688 271.97 652.267 219.841 641.056 206.808C629.846 193.776 697.109 175.158 697.109 175.158Z" fill="#FFB9B9"/>
<path opacity="0.1" d="M813.884 534.48C854.158 528.06 831.929 449.676 813.062 412.681C814.772 413.98 816.305 415.495 817.621 417.189C836.305 441.392 873.674 545.651 826.963 553.098C780.253 560.545 696.175 588.472 696.175 588.472L693.633 566.436C717.658 558.75 777.257 540.32 813.884 534.48Z" fill="black"/>
<path d="M878.344 854.705C878.344 854.705 925.055 891.941 921.318 895.664C917.581 899.388 878.344 958.964 844.713 964.55C811.082 970.135 796.134 970.135 796.134 964.55C796.134 958.964 805.476 945.932 822.292 940.347C839.108 934.761 840.976 897.526 839.108 890.079C837.239 882.632 878.344 854.705 878.344 854.705Z" fill="#2F2E41"/>
<path d="M738.214 577.301L768.108 716.934C768.108 716.934 891.423 854.705 887.687 856.567C883.95 858.429 846.581 895.664 839.108 895.664C831.634 895.664 702.714 750.446 702.714 750.446L656.003 629.431L738.214 577.301Z" fill="#2F2E41"/>
<path opacity="0.1" d="M738.214 577.301L768.108 716.934C768.108 716.934 891.423 854.705 887.687 856.567C883.95 858.429 846.581 895.664 839.108 895.664C831.634 895.664 702.714 750.446 702.714 750.446L656.003 629.431L738.214 577.301Z" fill="black"/>
<path d="M768.108 532.618C768.108 532.618 753.161 595.919 712.056 638.739C670.951 681.56 652.266 769.063 652.266 769.063L611.161 944.07C611.161 944.07 538.293 934.761 542.03 916.143L581.267 761.616C581.267 761.616 626.109 547.513 650.398 532.618C674.687 517.724 768.108 532.618 768.108 532.618Z" fill="#2F2E41"/>
<path d="M607.425 929.176C607.425 929.176 618.635 964.549 611.162 968.273C603.688 971.997 471.031 979.444 463.557 953.379C463.557 953.379 459.82 940.347 489.715 940.347C519.609 940.347 551.372 912.42 551.372 912.42L607.425 929.176Z" fill="#2F2E41"/>
<path d="M663.477 264.523C663.477 264.523 712.056 216.117 725.135 219.841C738.214 223.564 738.214 242.182 738.214 242.182C738.214 242.182 779.319 247.767 775.582 381.815C771.845 515.862 809.213 530.757 796.135 538.204C783.056 545.651 633.583 579.163 627.977 545.651C622.372 512.139 624.241 383.677 639.188 342.718C654.135 301.759 672.819 275.694 663.477 264.523Z" fill="#575A89"/>
<path d="M725.135 275.694C725.135 275.694 781.187 301.759 749.424 352.027C717.661 402.295 693.371 456.286 659.74 454.424C626.109 452.562 573.793 420.912 558.846 420.912C543.898 420.912 564.451 366.921 575.661 365.059C586.872 363.197 639.188 394.847 639.188 394.847C639.188 394.847 657.872 268.247 725.135 275.694Z" fill="#575A89"/>
<path d="M687.765 186.093C683.621 185.847 679.574 187.242 675.459 187.786C660.736 189.734 645.419 179.088 642.168 164.647C641.907 162.724 641.332 160.857 640.465 159.119C638.199 155.433 633.038 154.73 628.784 155.577C624.53 156.425 620.497 158.409 616.165 158.636C609.475 158.985 603.053 154.882 599.488 149.231C595.923 143.579 594.913 136.626 595.395 129.968L598.602 133.322C599.905 130.575 600.408 127.519 600.054 124.501C601.753 124.05 603.54 124.041 605.244 124.476C606.948 124.91 608.511 125.773 609.784 126.982C612.612 127.282 610.478 121.756 612.578 119.846C613.458 119.046 614.807 119.197 615.997 119.208C622.013 119.266 626.88 114.681 631.62 110.99C639.833 104.61 649.438 100.244 659.658 98.2465C666.451 96.9263 673.674 96.7141 680.116 99.2346C685.407 101.305 689.835 105.075 693.932 109C704.018 118.664 712.949 130.018 717.145 143.319C720.556 154.213 720.652 165.87 717.422 176.819C715.732 182.505 710.636 201.978 703.177 202.431C693.804 203.001 699.431 186.787 687.765 186.093Z" fill="#2F2E41"/>
</g>
<defs>
<clipPath id="clip0">
<rect width="1150" height="985" fill="white"/>
</clipPath>
</defs>
</svg>
