<svg width="939" height="799" viewBox="0 0 939 799" fill="none" xmlns="http://www.w3.org/2000/svg">
<path d="M662.706 198.729H660.089V67.6548C660.089 55.7611 655.353 44.3546 646.923 35.9445C638.492 27.5344 627.058 22.8097 615.136 22.8097H322.532C310.61 22.8097 299.176 27.5344 290.745 35.9445C282.315 44.3546 277.579 55.7611 277.579 67.6548V125.083H276.587C275.887 125.083 275.216 125.361 274.72 125.855C274.225 126.349 273.947 127.019 273.947 127.717V153.401C273.947 154.099 274.225 154.769 274.72 155.263C275.216 155.757 275.887 156.035 276.587 156.035H277.579V181.741H276.357C276.01 181.741 275.667 181.809 275.346 181.942C275.026 182.074 274.735 182.268 274.49 182.513C274.245 182.757 274.05 183.048 273.917 183.367C273.785 183.687 273.717 184.029 273.717 184.375V232.982C273.717 233.68 273.995 234.35 274.49 234.844C274.985 235.338 275.657 235.615 276.357 235.615H277.579V254.467H276.472C276.125 254.467 275.782 254.535 275.462 254.667C275.141 254.8 274.85 254.994 274.605 255.238C274.36 255.483 274.166 255.773 274.033 256.093C273.9 256.412 273.832 256.755 273.832 257.1V306.167C273.832 306.866 274.11 307.536 274.605 308.03C275.1 308.524 275.772 308.801 276.472 308.801H277.579V753.494C277.579 765.388 282.315 776.795 290.745 785.205C299.176 793.615 310.61 798.34 322.532 798.34H615.136C627.058 798.34 638.492 793.615 646.923 785.205C655.353 776.795 660.089 765.388 660.089 753.494V292.734H662.706C663.407 292.734 664.078 292.456 664.573 291.962C665.068 291.468 665.347 290.798 665.347 290.1V201.363C665.347 200.664 665.068 199.995 664.573 199.501C664.078 199.007 663.407 198.729 662.706 198.729Z" fill="#3F3D56"/>
<path d="M606.665 43.4216H562.893V48.6721C562.893 55.2842 560.259 61.6255 555.572 66.301C550.884 70.9765 544.526 73.6032 537.897 73.6032H398.449C395.168 73.6047 391.919 72.9616 388.887 71.7107C385.855 70.4597 383.1 68.6254 380.779 66.3125C378.458 63.9996 376.616 61.2533 375.359 58.2305C374.102 55.2077 373.454 51.9676 373.453 48.6951V43.4216H332.411C324.361 43.4216 316.641 46.6111 310.949 52.2885C305.257 57.9659 302.059 65.666 302.059 73.6951V73.6951V747.455C302.059 755.484 305.257 763.184 310.949 768.861C316.641 774.538 324.361 777.728 332.411 777.728H606.665C614.712 777.728 622.429 774.54 628.119 768.864C633.809 763.189 637.005 755.492 637.005 747.466V73.6951C637.007 69.721 636.224 65.7856 634.7 62.1134C633.177 58.4413 630.943 55.1044 628.127 52.2933C625.311 49.4821 621.967 47.2518 618.286 45.7296C614.606 44.2074 610.661 43.4231 606.676 43.4216H606.665Z" fill="white"/>
<path d="M528.119 697.856H410.945C402.566 697.856 394.531 694.463 388.607 688.423C382.682 682.383 379.354 674.192 379.354 665.65C379.354 657.108 382.682 648.916 388.607 642.877C394.531 636.837 402.566 633.443 410.945 633.443H528.119C536.497 633.443 544.532 636.837 550.457 642.877C556.381 648.916 559.71 657.108 559.71 665.65C559.71 674.192 556.381 682.383 550.457 688.423C544.532 694.463 536.497 697.856 528.119 697.856V697.856Z" fill="#009DFF"/>
<path d="M574.515 437.628H364.549C361.642 437.628 358.854 436.407 356.799 434.232C354.744 432.058 353.589 429.109 353.589 426.034C353.589 422.959 354.744 420.01 356.799 417.835C358.854 415.661 361.642 414.44 364.549 414.44H574.515C577.422 414.44 580.21 415.661 582.265 417.835C584.32 420.01 585.475 422.959 585.475 426.034C585.475 429.109 584.32 432.058 582.265 434.232C580.21 436.407 577.422 437.628 574.515 437.628V437.628Z" fill="#E6E6E6"/>
<path d="M574.515 468.547H364.549C361.642 468.547 358.854 467.461 356.799 465.528C354.744 463.595 353.589 460.974 353.589 458.24C353.589 455.507 354.744 452.886 356.799 450.953C358.854 449.02 361.642 447.934 364.549 447.934H574.515C577.422 447.934 580.21 449.02 582.265 450.953C584.32 452.886 585.475 455.507 585.475 458.24C585.475 460.974 584.32 463.595 582.265 465.528C580.21 467.461 577.422 468.547 574.515 468.547V468.547Z" fill="#E6E6E6"/>
<path d="M574.515 502.041H364.549C361.642 502.041 358.854 500.82 356.799 498.645C354.744 496.471 353.589 493.522 353.589 490.447C353.589 487.372 354.744 484.423 356.799 482.249C358.854 480.074 361.642 478.853 364.549 478.853H574.515C577.422 478.853 580.21 480.074 582.265 482.249C584.32 484.423 585.475 487.372 585.475 490.447C585.475 493.522 584.32 496.471 582.265 498.645C580.21 500.82 577.422 502.041 574.515 502.041V502.041Z" fill="#E6E6E6"/>
<path d="M574.515 532.959H364.549C361.642 532.959 358.854 531.873 356.799 529.941C354.744 528.008 353.589 525.387 353.589 522.653C353.589 519.92 354.744 517.298 356.799 515.366C358.854 513.433 361.642 512.347 364.549 512.347H574.515C577.422 512.347 580.21 513.433 582.265 515.366C584.32 517.298 585.475 519.92 585.475 522.653C585.475 525.387 584.32 528.008 582.265 529.941C580.21 531.873 577.422 532.959 574.515 532.959V532.959Z" fill="#E6E6E6"/>
<path d="M430.382 566.454H364.397C361.53 566.454 358.781 565.232 356.754 563.058C354.728 560.884 353.589 557.935 353.589 554.86C353.589 551.785 354.728 548.836 356.754 546.661C358.781 544.487 361.53 543.265 364.397 543.265H430.382C433.249 543.265 435.998 544.487 438.025 546.661C440.052 548.836 441.19 551.785 441.19 554.86C441.19 557.935 440.052 560.884 438.025 563.058C435.998 565.232 433.249 566.454 430.382 566.454H430.382Z" fill="#E6E6E6"/>
<path d="M607.212 347.45H331.852C329.418 347.448 327.084 346.484 325.363 344.772C323.642 343.06 322.673 340.738 322.671 338.317V135.004C322.673 132.582 323.642 130.26 325.363 128.548C327.084 126.836 329.418 125.873 331.852 125.87H607.212C609.646 125.873 611.98 126.836 613.701 128.548C615.422 130.261 616.39 132.582 616.393 135.004V338.317C616.39 340.738 615.422 343.06 613.701 344.772C611.98 346.484 609.646 347.448 607.212 347.45V347.45Z" fill="#E6E6E6"/>
<g clip-path="url(#clip0)">
<path d="M77.679 771.498C125.032 801.899 184.189 800.356 241.066 793.232C249.008 792.238 256.889 791.15 264.693 790.013C264.74 789.998 264.802 789.999 264.85 789.984C265.225 789.928 265.6 789.872 265.96 789.831C267.571 789.592 269.182 789.353 270.777 789.114L270.437 789.858L269.37 792.167C269.756 791.392 270.144 790.634 270.53 789.859C270.644 789.627 270.773 789.395 270.885 789.162C284.286 762.6 297.515 735.099 299.67 705.479C301.89 674.736 289.154 640.749 261.495 627.193C257.868 625.42 254.055 624.059 250.126 623.133C248.494 622.732 246.845 622.423 245.181 622.162C227.764 619.58 209.112 624.833 196.152 636.864C179.01 652.807 173.016 679.631 181.724 701.371C157.7 679.239 159.902 641.109 166.045 609.009C172.203 576.91 179.825 541.149 162.289 513.564C152.539 498.209 136.367 489.23 118.599 486.221C118.054 486.134 117.51 486.047 116.965 485.975C96.3423 482.919 73.7796 487.796 56.6521 499.945C24.2288 522.931 9.15488 564.004 5.68127 603.628C0.0804724 667.39 23.8413 736.929 77.679 771.498Z" fill="#F2F2F2"/>
<path d="M86.9218 669.269C88.9981 683.155 93.0864 696.663 99.0577 709.368C104.535 720.6 111.659 730.95 120.195 740.073C137.641 758.912 160.102 772.57 184.16 781.179C202.546 787.581 221.666 791.63 241.066 793.232C249.008 792.238 256.889 791.15 264.693 790.013C264.74 789.998 264.802 789.999 264.85 789.984C265.225 789.928 265.6 789.872 265.96 789.831C267.571 789.592 269.182 789.353 270.777 789.114L270.437 789.858L269.37 792.167C269.756 791.392 270.144 790.633 270.53 789.859C270.644 789.627 270.773 789.395 270.885 789.162C255.671 775.545 243.939 758.476 236.673 739.386C229.407 720.296 226.818 699.741 229.123 679.444C231.594 659.279 238.79 639.985 250.126 623.133C248.494 622.731 246.845 622.423 245.181 622.162C240.883 628.762 237.177 635.73 234.105 642.984C223.076 668.857 220.663 697.597 227.222 724.949C233.284 749.695 246.273 772.195 264.665 789.81C263.137 789.784 261.592 789.743 260.08 789.687C231.45 788.811 202.676 784.216 176.149 773.052C153.743 763.642 133.167 749.156 117.813 730.196C100.992 709.431 92.6903 683.809 90.0797 657.453C87.2969 629.235 89.4107 600.255 94.3757 572.399C99.4395 543.843 107.975 516.015 119.793 489.535C120.057 488.935 120.08 488.256 119.858 487.639C119.635 487.022 119.185 486.514 118.599 486.221C118.108 485.926 117.52 485.838 116.965 485.975C116.694 486.063 116.446 486.21 116.241 486.407C116.035 486.604 115.876 486.844 115.776 487.111C114.318 490.382 112.891 493.654 111.527 496.958C100.163 524.477 92.2589 553.303 87.9961 582.773C83.8482 611.204 82.4117 640.789 86.9218 669.269Z" fill="white"/>
<path d="M912.444 784.376C894.016 797.664 870.134 798.331 847.049 796.698C843.826 796.471 840.625 796.204 837.454 795.916C837.435 795.911 837.41 795.912 837.39 795.907C837.238 795.893 837.085 795.878 836.94 795.87C836.285 795.808 835.63 795.747 834.982 795.685L835.135 795.978L835.616 796.886C835.443 796.582 835.27 796.284 835.098 795.981C835.047 795.89 834.99 795.799 834.939 795.707C828.959 785.291 823.028 774.493 821.515 762.599C819.951 750.253 824.346 736.274 835.202 730.206C836.625 729.413 838.133 728.781 839.697 728.322C840.346 728.124 841.004 727.964 841.669 727.823C845.741 726.918 849.979 727.115 853.949 728.393C857.919 729.671 861.478 731.985 864.258 735.096C867.039 738.207 868.941 742.003 869.77 746.094C870.599 750.185 870.324 754.423 868.974 758.372C878.178 748.926 876.461 733.603 873.286 720.796C870.105 707.989 866.255 693.739 872.724 682.236C876.321 675.833 882.645 671.861 889.743 670.261C889.96 670.214 890.178 670.167 890.396 670.126C898.852 668.412 907.644 669.953 915.014 674.444C928.585 683.003 935.556 699.233 937.818 715.131C941.463 740.715 933.397 769.267 912.444 784.376Z" fill="#F2F2F2"/>
<path d="M906.495 743.365C905.96 749.008 904.606 754.543 902.475 759.794C900.511 764.442 897.864 768.77 894.622 772.634C887.881 780.531 879.344 786.692 869.729 790.599C862.456 793.58 854.836 795.63 847.05 796.698C843.826 796.471 840.626 796.204 837.455 795.915C837.436 795.91 837.411 795.912 837.391 795.907C837.239 795.893 837.086 795.878 836.94 795.87C836.286 795.808 835.631 795.747 834.982 795.685L835.136 795.978L835.616 796.886C835.444 796.582 835.271 796.284 835.098 795.981C835.047 795.889 834.99 795.799 834.94 795.707C840.777 789.886 845.135 782.749 847.649 774.895C850.164 767.041 850.76 758.698 849.389 750.565C847.955 742.49 844.634 734.868 839.697 728.322C840.346 728.124 841.005 727.964 841.67 727.822C843.546 730.39 845.192 733.118 846.588 735.975C851.597 746.165 853.195 757.699 851.146 768.869C849.24 778.977 844.493 788.331 837.462 795.833C838.077 795.789 838.699 795.739 839.307 795.684C850.83 794.707 862.33 792.227 872.782 787.148C881.716 782.912 889.472 776.542 895.367 768.6C901.697 759.862 904.486 749.352 904.965 738.67C905.334 727.161 904.129 715.656 901.383 704.475C898.721 693.073 894.674 682.041 889.334 671.623C889.214 671.387 889.19 671.113 889.267 670.86C889.343 670.606 889.513 670.392 889.743 670.261C889.935 670.131 890.17 670.083 890.397 670.126C890.508 670.155 890.611 670.209 890.698 670.284C890.785 670.359 890.854 670.453 890.901 670.558C891.559 671.845 892.206 673.133 892.828 674.435C898.008 685.282 901.821 696.73 904.181 708.518C906.471 719.889 907.694 731.785 906.495 743.365Z" fill="white"/>
<path d="M937.853 798.256H1.14652C0.842444 798.256 0.550821 798.135 0.335807 797.92C0.120793 797.705 0 797.413 0 797.109C0 796.804 0.120793 796.513 0.335807 796.297C0.550821 796.082 0.842444 795.961 1.14652 795.961H937.853C938.158 795.961 938.449 796.082 938.664 796.297C938.879 796.513 939 796.804 939 797.109C939 797.413 938.879 797.705 938.664 797.92C938.449 798.135 938.158 798.256 937.853 798.256Z" fill="#3F3D56"/>
<path d="M733.329 785.276L719.274 785.275L712.586 731.009L733.333 731.01L733.329 785.276Z" fill="#FFB8B8"/>
<path d="M709.233 781.255H736.341V798.339H692.165C692.165 796.096 692.606 793.874 693.464 791.801C694.322 789.729 695.579 787.845 697.164 786.259C698.749 784.673 700.63 783.414 702.701 782.556C704.772 781.697 706.991 781.255 709.233 781.255V781.255Z" fill="#2F2E41"/>
<path d="M786.069 785.276L772.014 785.275L765.326 731.009L786.073 731.01L786.069 785.276Z" fill="#FFB8B8"/>
<path d="M761.973 781.255H789.081V798.339H744.905C744.905 796.096 745.346 793.874 746.204 791.801C747.062 789.729 748.319 787.845 749.904 786.259C751.489 784.673 753.371 783.414 755.441 782.556C757.512 781.697 759.732 781.255 761.973 781.255V781.255Z" fill="#2F2E41"/>
<path d="M784.353 623.654C782.838 622.679 781.556 621.384 780.596 619.859C779.636 618.334 779.021 616.618 778.796 614.83C778.571 613.041 778.74 611.226 779.291 609.51C779.843 607.794 780.763 606.221 781.988 604.9L772.733 473.437L799.393 476.025L800.125 604.766C802.206 606.973 803.406 609.867 803.497 612.9C803.588 615.933 802.565 618.894 800.621 621.223C798.677 623.551 795.947 625.084 792.948 625.533C789.95 625.981 786.892 625.312 784.353 623.654H784.353Z" fill="#FFB8B8"/>
<path d="M732.666 757.938L717.192 757.199C715.874 757.137 714.63 756.571 713.716 755.618C712.802 754.665 712.287 753.398 712.278 752.078L711.198 595.37C711.193 594.626 711.349 593.89 711.654 593.211C711.959 592.533 712.408 591.929 712.968 591.44C713.528 590.952 714.187 590.59 714.9 590.38C715.613 590.169 716.363 590.116 717.099 590.222L779.003 599.217C780.226 599.388 781.347 599.996 782.158 600.928C782.97 601.859 783.419 603.053 783.421 604.289L791.383 749.495C791.388 750.177 791.259 750.853 791.002 751.484C790.745 752.115 790.366 752.689 789.886 753.172C789.406 753.656 788.836 754.04 788.207 754.302C787.579 754.564 786.905 754.699 786.224 754.699H769.542C768.311 754.704 767.12 754.266 766.184 753.466C765.249 752.665 764.632 751.555 764.445 750.337L754.153 684.849C754.003 683.89 753.511 683.019 752.769 682.395C752.027 681.772 751.084 681.438 750.115 681.456C749.146 681.474 748.216 681.842 747.498 682.493C746.779 683.143 746.32 684.032 746.205 684.995L738.034 753.393C737.88 754.646 737.275 755.8 736.332 756.638C735.388 757.476 734.172 757.94 732.911 757.944C732.829 757.944 732.748 757.942 732.666 757.938Z" fill="#2F2E41"/>
<path d="M743.559 604.296C729.916 596.709 719.256 594.715 714.116 594.202C713.433 594.136 712.771 593.932 712.169 593.602C711.567 593.272 711.039 592.823 710.616 592.282C710.183 591.738 709.865 591.111 709.682 590.44C709.498 589.769 709.453 589.068 709.548 588.379L724.381 478.154C725.235 471.706 727.723 465.584 731.609 460.37C735.495 455.156 740.65 451.024 746.582 448.367C752.324 445.725 758.646 444.597 764.947 445.092C771.247 445.586 777.317 447.686 782.577 451.191C783.086 451.53 783.584 451.875 784.074 452.228C790.132 456.671 794.741 462.809 797.319 469.87C799.897 476.93 800.33 484.597 798.562 491.903C789.466 529.147 786.341 590.206 785.807 602.068C785.765 603.079 785.425 604.055 784.83 604.873C784.234 605.691 783.41 606.314 782.462 606.664C776.865 608.7 770.96 609.752 765.005 609.775C757.505 609.82 750.12 607.934 743.559 604.296V604.296Z" fill="#048CC9"/>
<path d="M778.768 517.61C778.144 517.161 777.628 516.577 777.259 515.902C776.89 515.226 776.678 514.476 776.637 513.708L774.683 478.275C774.49 474.765 775.602 471.307 777.805 468.569C780.008 465.83 783.146 464.005 786.614 463.446C790.081 462.886 793.633 463.631 796.585 465.537C799.536 467.443 801.678 470.376 802.597 473.769L811.178 505.448C811.535 506.769 811.353 508.179 810.673 509.366C809.992 510.554 808.869 511.423 807.549 511.783L783.139 518.407C782.397 518.61 781.619 518.644 780.863 518.506C780.106 518.368 779.391 518.062 778.768 517.61Z" fill="#048CC9"/>
<path d="M755.966 433.401C771.518 433.401 784.126 420.782 784.126 405.215C784.126 389.649 771.518 377.03 755.966 377.03C740.414 377.03 727.806 389.649 727.806 405.215C727.806 420.782 740.414 433.401 755.966 433.401Z" fill="#FFB8B8"/>
<path d="M705.207 488.494C705.125 487.728 705.215 486.954 705.472 486.229C705.728 485.503 706.144 484.845 706.689 484.301L731.756 459.206C734.24 456.72 737.555 455.242 741.063 455.057C744.57 454.873 748.022 455.995 750.752 458.207C753.482 460.419 755.298 463.565 755.848 467.037C756.398 470.509 755.645 474.062 753.733 477.012L735.881 504.544C735.135 505.692 733.965 506.497 732.627 506.782C731.289 507.067 729.893 506.809 728.745 506.065L707.529 492.284C706.884 491.867 706.34 491.309 705.938 490.653C705.536 489.997 705.286 489.259 705.207 488.494Z" fill="#048CC9"/>
<path d="M763.879 431.577C764.278 432.038 764.765 432.414 765.312 432.683C765.859 432.952 766.454 433.109 767.062 433.144C767.67 433.179 768.279 433.091 768.853 432.887C769.427 432.682 769.954 432.364 770.403 431.952C776.682 426.865 781.662 420.355 784.932 412.961C788.593 404.227 789.13 393.569 784.963 385.382C781.441 378.461 775.118 374.056 768.806 370.455C766.387 368.929 763.735 367.807 760.955 367.134C759.551 366.815 758.096 366.794 756.683 367.072C755.271 367.35 753.932 367.921 752.753 368.748C751.502 369.7 750.534 370.975 749.953 372.436C749.371 373.898 749.199 375.49 749.453 377.042C746.566 373.235 742.674 370.311 738.215 368.6C735.479 367.421 732.423 367.216 729.555 368.019C725.501 369.373 722.5 373.47 720.831 377.872C719.481 381.242 718.986 384.895 719.391 388.503C719.568 390.226 720.093 391.895 720.935 393.408C721.776 394.922 722.916 396.248 724.286 397.306C727.592 399.59 731.852 399.358 735.697 398.347C739.543 397.337 743.275 395.623 747.187 395.145C751.099 394.668 755.435 395.703 757.766 399.196C759.408 401.656 759.795 404.896 760.13 407.984L761.872 424.049C761.995 426.347 762.49 428.61 763.337 430.75C763.48 431.049 763.663 431.327 763.879 431.577V431.577Z" fill="#2F2E41"/>
<path d="M702.991 516.155C699.799 516.162 696.697 515.092 694.187 513.118L646.277 475.286C645.887 475.424 645.49 475.541 645.088 475.637C643.362 476.042 641.569 476.078 639.827 475.743C638.085 475.409 636.433 474.711 634.979 473.696C633.514 472.68 632.283 471.363 631.369 469.832C630.454 468.302 629.876 466.593 629.675 464.821C629.299 461.62 630.161 458.395 632.084 455.809C634.008 453.224 636.847 451.472 640.019 450.914C643.191 450.357 646.456 451.035 649.145 452.809C651.834 454.584 653.743 457.321 654.48 460.46C654.605 461.008 654.693 461.565 654.742 462.126L703.448 490.25L715.569 483.265L728.996 500.86L711.231 513.533C708.824 515.244 705.944 516.16 702.991 516.155V516.155Z" fill="#FFB8B8"/>
</g>
<defs>
<clipPath id="clip0">
<rect width="939" height="798.34" fill="white"/>
</clipPath>
</defs>
</svg>
