<svg width="1048" height="679" viewBox="0 0 1048 679" fill="none" xmlns="http://www.w3.org/2000/svg">
<g clip-path="url(#clip0)">
<path opacity="0.1" d="M649.72 489.396C671.82 488.085 699.24 472.486 720.56 465.587C745.793 457.443 771.126 449.607 796.56 442.08C885.1 415.865 974.59 393.527 1065.03 375.067C1073.47 373.34 1081.92 371.654 1090.39 370.01C1077.2 340.355 1056.77 314.819 1031.13 295.952C1031.79 289.46 1032.12 282.937 1032.13 276.41C1032.13 173.246 952.9 89.6148 855.13 89.6148C825.029 89.5816 795.434 97.6661 769.23 113.08C700.03 65.7127 609.71 37.0447 510.89 37.0447C370.47 37.0447 247.2 94.9322 177.35 182.102L505.63 239.812L706.97 275.192C477.44 282.32 247.2 289.406 18.3298 272.674C-11.8822 303.093 -31.0043 343.486 -35.7684 386.95C-40.5326 430.413 -30.6432 474.25 -7.79021 510.967V510.967C-7.79021 514.703 -7.6402 518.407 -7.3702 522.08C-1.54021 523.818 4.08979 525.504 9.13979 526.607C90.2131 544.429 171.806 559.344 253.92 571.352C193.41 610.176 119.72 615.67 49.9198 632.111C83.7198 661.144 129.62 678.938 180.2 678.938H933.32C1014.87 678.938 1080.97 619.864 1080.97 546.981C1093.21 525.983 1101.36 502.687 1104.97 478.418C954.07 493.579 801.29 480.415 649.72 489.396Z" fill="#6C63FF"/>
<path opacity="0.1" d="M1106 447.377C1106.08 417.34 1099.22 387.723 1085.99 361.024C1072.76 334.326 1053.56 311.329 1030 293.975C1030.65 287.486 1030.99 280.967 1031 274.443C1031 171.28 951.73 87.6794 854 87.6794C823.897 87.6459 794.299 95.7265 768.09 111.134C698.89 63.746 608.56 35.0676 509.74 35.0676C349 35.0676 210.64 110.978 149.28 219.833C145.87 219.625 142.44 219.511 138.98 219.511C41.2398 219.511 -38.0202 303.142 -38.0202 406.305C-38.0887 442.745 -27.9711 478.418 -8.90016 508.979V508.979C-8.90016 601.799 75.2898 677.044 179.1 677.044H932.24C1013.78 677.044 1079.88 617.96 1079.88 545.077C1097.03 515.618 1106.07 481.82 1106 447.377V447.377Z" fill="#6C63FF"/>
<path d="M896.28 332.934C894.851 331.792 893.176 331.028 891.4 330.707C889.53 330.26 887.62 329.979 885.72 329.667L861.1 325.972C858.615 325.492 856.08 325.352 853.56 325.556C852.296 325.664 851.065 326.032 849.939 326.64C848.813 327.247 847.814 328.082 847 329.094C846.266 330.036 845.864 331.211 845.86 332.424C845.997 333.645 846.379 334.821 846.98 335.879C847.218 336.373 847.422 336.884 847.59 337.408C847.826 338.585 848.119 339.749 848.47 340.894C848.579 341.142 848.72 341.374 848.89 341.581C848.895 341.64 848.895 341.699 848.89 341.758C848.62 343.194 849.49 344.693 849.1 346.077C848.76 347.263 847.65 347.981 846.95 348.969C846.483 349.671 846.225 350.499 846.207 351.352C846.189 352.205 846.413 353.045 846.85 353.766C847.6 354.973 848.96 355.796 849.35 357.179C849.86 359.001 848.48 360.759 847.25 362.164C844.987 364.75 842.896 367.493 840.99 370.374C840.455 371.083 840.109 371.927 839.99 372.819C839.88 374.63 841.55 376.222 841.26 378.022C841.03 379.438 839.7 380.301 838.55 381.144C834.3 384.058 830.89 388.74 830.55 394.037C829.459 385.61 826.104 377.675 820.87 371.144C819.44 369.354 817.87 367.554 817.28 365.286C817.06 364.38 817.02 363.413 816.72 362.539C815.72 359.781 812.54 358.595 811.15 356.056C810.15 354.266 810.15 351.966 808.91 350.395C807.67 348.824 805.72 348.47 804.65 346.951C804.116 345.922 803.661 344.85 803.29 343.746C802.842 342.845 802.21 342.057 801.44 341.435C801.293 341.313 801.139 341.198 800.98 341.092C801.146 340.938 801.279 340.748 801.371 340.537C801.462 340.325 801.509 340.096 801.51 339.864C801.51 338.647 800.35 337.845 799.34 337.242C798.04 336.472 796.77 335.639 795.53 334.776C796.883 334.12 798.055 333.122 798.94 331.873C800.05 330.009 800.509 327.804 800.24 325.629C800.172 323.874 799.542 322.193 798.45 320.853C797.82 320.156 797.03 319.656 796.37 319.001C794.66 317.263 794.08 314.693 793.37 312.32C792.43 309.198 790.96 305.92 788.22 304.266C786.9 303.465 785.36 303.09 784.07 302.247C782.78 301.404 781.7 299.812 782.15 298.283C782.45 297.242 783.38 296.524 784.01 295.64C784.762 294.496 785.051 293.09 784.813 291.726C784.575 290.362 783.83 289.151 782.74 288.355C782 287.866 781.09 287.44 780.94 286.545C780.361 286.388 779.836 286.065 779.426 285.612C779.016 285.16 778.736 284.596 778.62 283.985C778.395 282.761 778.395 281.504 778.62 280.281C778.88 278.345 779.137 276.417 779.39 274.495C779.831 274.686 780.303 274.784 780.78 274.784C781.257 274.784 781.73 274.686 782.17 274.495C783.036 275.956 784.041 277.323 785.17 278.574C788.215 282.316 790.587 286.599 792.17 291.217C792.74 292.882 793.32 294.745 794.8 295.629C795.31 295.931 795.89 296.087 796.39 296.41C797.007 296.857 797.536 297.422 797.95 298.074C799.15 299.729 800.35 301.373 801.54 303.028L801.6 303.277C801.633 303.424 801.687 303.564 801.76 303.694C801.982 303.953 802.288 304.116 802.62 304.151C806.3 305.036 810.43 305.848 813.62 303.756C816.5 301.883 817.76 298.179 820.2 295.702C821.93 293.943 824.38 292.58 824.87 290.104C824.286 289.916 823.712 289.697 823.15 289.448C823.65 288.928 824.15 288.324 824.83 287.637C825.818 286.631 826.709 285.526 827.49 284.339C828.334 282.874 829.006 281.309 829.49 279.677C831.417 273.961 833.35 268.241 835.29 262.518C836.21 259.812 837.13 257.086 838.29 254.453C839.49 251.602 840.91 248.865 842.22 246.066C845.601 238.786 848.21 231.145 850 223.278C850.318 222.204 850.423 221.075 850.31 219.958C850.03 218.158 848.72 216.743 847.47 215.463C846.213 214.047 844.781 212.811 843.21 211.789C842.422 211.279 841.543 210.937 840.627 210.784C839.71 210.63 838.773 210.668 837.87 210.895C835.31 211.675 833.7 214.401 833.11 217.138C832.52 219.875 832.74 222.695 832.49 225.463C832.13 229.469 830.81 233.34 830.49 237.357C830.32 239.677 830.49 242.029 830.22 244.349C829.728 247.386 828.712 250.305 827.22 252.965C823.977 259.309 819.587 264.942 814.29 269.552C813.68 270.083 813.05 270.593 812.45 271.165C812.45 270.718 812.52 270.26 812.58 269.812C812.145 269.93 811.72 270.087 811.31 270.281C811.361 269.755 811.31 269.224 811.16 268.72C810.36 266.233 806.8 265.598 806.16 263.069C806.054 262.444 805.997 261.811 805.99 261.175C805.78 258.959 804.33 257.086 803.83 254.932C803.37 252.944 803.72 250.77 802.83 248.928C802.072 247.776 801.178 246.727 800.17 245.806C798.969 244.378 798.103 242.679 797.64 240.843C797.51 240.333 797.39 239.802 797.25 239.292C797.402 238.137 797.279 236.962 796.89 235.869C795.98 233.517 793.63 232.008 792.78 229.625C792.12 227.773 792.41 225.463 791.16 224.027C790.496 223.341 789.683 222.83 788.79 222.539C784.214 220.684 779.411 219.504 774.52 219.032C771.78 218.772 768.76 218.626 766.8 216.618C764.51 214.287 764.4 210.093 761.72 208.293C759.36 206.701 756.02 207.877 754.19 210.114C753.915 210.443 753.661 210.791 753.43 211.155C753.096 209.76 753.025 208.311 753.22 206.888C753.22 206.535 753.29 206.17 753.32 205.848C757.835 204.312 761.678 201.155 764.16 196.94C764.16 196.94 764.16 196.94 764.16 197.003L764.28 197.325C764.57 198.085 765.03 198.813 765.71 198.897C766.163 198.891 766.6 198.726 766.95 198.428C767.553 197.992 768.11 197.49 768.61 196.93C768.864 196.639 769.104 196.337 769.33 196.025C769.791 195.375 770.186 194.677 770.51 193.944C771.007 192.839 771.344 191.665 771.51 190.458C771.69 189.25 771.71 188.012 771.91 186.805C772.097 185.871 772.341 184.95 772.64 184.048C772.74 183.746 772.84 183.444 772.93 183.142C773.02 182.841 773.15 182.435 773.25 182.102C773.876 179.962 774.213 177.741 774.25 175.504C774.25 175.13 774.25 174.755 774.25 174.381C774.214 172.921 773.898 171.483 773.321 170.152C772.744 168.821 771.918 167.623 770.89 166.628C769.17 165.161 766.89 164.547 765.63 162.56C764.81 161.228 764.63 159.511 764.15 157.95C763.631 156.082 762.62 154.402 761.231 153.102C759.842 151.802 758.13 150.933 756.29 150.593C754.075 150.34 751.85 150.977 750.07 152.372V152.372L749.93 152.487C748.939 153.275 748.097 154.249 747.45 155.359C746.129 154.98 744.919 154.265 743.93 153.278C742.93 152.31 742.16 151.092 741.15 150.156C740.206 149.256 739.048 148.637 737.795 148.362C736.543 148.088 735.243 148.168 734.03 148.595C732.781 149.116 731.669 149.937 730.784 150.991C729.899 152.046 729.267 153.304 728.94 154.662C728.39 156.805 728.49 159.271 727.34 161.061C726.45 162.456 724.99 163.142 723.97 164.412C723.336 165.216 722.904 166.17 722.71 167.19V167.19C722.589 167.761 722.532 168.344 722.54 168.928V168.928C722.54 169.188 722.54 169.448 722.6 169.698C722.6 169.698 722.6 169.781 722.6 169.823C722.636 170.108 722.692 170.39 722.77 170.666V170.666C723.054 171.721 723.564 172.695 724.26 173.517C724.92 174.304 725.745 174.923 726.67 175.328C727.049 175.481 727.436 175.609 727.83 175.713L729.02 175.993L729.44 176.098C728.004 178.903 727.207 182.015 727.11 185.192C727.013 188.369 727.618 191.527 728.88 194.422C728.88 194.714 728.81 195.005 728.78 195.296C728.617 199.394 728.791 203.498 729.3 207.565C729.44 209.178 729.52 210.957 728.57 212.237C728.138 212.74 727.651 213.191 727.12 213.579C727.66 212.851 728.21 212.133 728.77 211.415C727.36 209.937 725.13 209.75 723.13 209.896C719.259 210.196 715.502 211.391 712.13 213.392C709.89 214.734 707.59 216.514 705.03 216.202C703.52 216.025 702.03 215.161 700.56 215.577C699.734 215.929 698.962 216.406 698.27 216.992C697.723 217.401 697.063 217.613 696.39 217.596C694.82 215.588 692.39 214.224 690.51 212.591C688.371 210.609 686.412 208.425 684.66 206.066C681.42 201.998 678.19 197.919 675.01 193.808C672.33 190.354 669.58 186.618 669.11 182.195C669.062 181.757 669.039 181.315 669.04 180.874C669.105 178.773 669.36 176.682 669.8 174.63C669.919 174.135 669.919 173.617 669.8 173.121C669.5 172.081 668.35 171.696 667.36 171.467C667.49 170.666 667.58 169.844 667.63 169.063C668.19 160.114 667.58 151.02 669.4 142.258C670.09 138.886 671.22 135.473 673.55 133.028C677.2 129.188 683.31 128.262 686.11 123.715C688.45 119.927 687.52 114.568 684.58 111.228C681.64 107.887 677.11 106.524 672.8 106.691C671.591 106.648 670.396 106.981 669.37 107.648C668.411 108.535 667.693 109.669 667.29 110.936L663 121.79C661.756 124.615 660.707 127.529 659.86 130.51C658.66 135.067 658.39 139.875 657.44 144.474C657.44 148.012 655.25 152.424 654.05 155.681C652.71 159.344 651.26 162.965 650.05 166.701C649.75 167.638 648.7 170.416 648.05 172.945C647.804 173.093 647.576 173.272 647.37 173.475C646.848 174.172 646.373 174.905 645.95 175.671C645.04 176.92 643.56 177.586 642.56 178.793C641.56 180 641.35 182.216 642.74 182.82C643.022 182.918 643.314 182.985 643.61 183.017C643.792 183.033 643.973 183.065 644.15 183.111C645.65 183.548 646.24 185.515 646.02 187.138C645.8 188.761 645.02 190.26 644.89 191.883C644.62 194.755 646.24 197.429 647.8 199.844C649.415 202.461 651.199 204.96 653.14 207.325C654.55 208.97 656.14 210.447 657.56 212.029C662.97 217.814 667.27 224.578 672.13 230.863C673.879 233.235 675.867 235.405 678.06 237.336C679.493 238.502 680.992 239.576 682.55 240.551L690.91 246.066C691.858 246.789 692.931 247.316 694.07 247.617C694.442 247.669 694.819 247.669 695.19 247.617C695.24 247.877 695.28 248.127 695.34 248.387C695.99 251.113 697.42 253.59 697.58 256.368C697.74 259.146 697.5 261.987 697.69 264.797C697.87 267.388 698.42 270 698.56 272.549C698.84 277.461 697.68 282.31 696.56 287.117C694.87 294.151 693.85 301.332 690.56 307.71C689.64 309.469 688.56 311.259 688.56 313.267C688.56 313.506 688.56 313.756 688.62 313.995L687.12 314.88C686.68 315.14 686.24 315.4 685.84 315.671C683.94 316.961 681.91 318.387 681.13 320.613C680.5 322.414 680.79 324.474 680.03 326.222C679.994 326.301 679.954 326.377 679.91 326.451C679.11 328.074 677.52 329.282 677.16 331.061C676.89 332.424 677.41 333.87 677.16 335.223C677.16 335.223 677.16 335.223 677.16 335.275C676.933 335.955 676.752 336.65 676.62 337.356C676.609 337.587 676.63 337.818 676.68 338.043C676.871 338.832 677.29 339.54 677.88 340.072C678.24 340.432 678.632 340.756 679.05 341.04C679.477 341.331 679.917 341.602 680.37 341.852L680.63 341.997C681.01 342.206 681.39 342.403 681.78 342.591L682.04 342.705C682.49 342.913 682.95 343.1 683.41 343.267L683.73 343.371C684.09 343.496 684.46 343.61 684.83 343.704L685.08 343.787L685.31 343.839L686.31 344.058L686.68 344.131C687.12 344.207 687.57 344.269 688.03 344.318H688.43C688.77 344.318 689.1 344.37 689.43 344.38H689.9C690.25 344.38 690.59 344.38 690.9 344.38H691.26C691.73 344.38 692.2 344.308 692.67 344.245H692.82C693.24 344.183 693.66 344.11 694.08 344.016L694.4 343.943C694.79 343.85 695.18 343.756 695.57 343.631L695.78 343.569C696.25 343.423 696.72 343.267 697.18 343.08C698.772 342.399 700.316 341.603 701.8 340.697C702.8 340.124 703.8 339.542 704.8 339.011C705.542 338.622 706.303 338.275 707.08 337.97C708.972 337.13 711.029 336.773 713.08 336.93C714.092 337.073 715.095 337.285 716.08 337.565C716.08 337.679 716.08 337.793 716.08 337.908C716.894 342.903 717.697 347.898 718.49 352.892C719.799 351.912 721.184 351.045 722.63 350.301C722.36 351.055 722.182 351.842 722.1 352.643C722.04 353.262 722.04 353.886 722.1 354.505C722.19 355.494 722.39 356.586 721.82 357.367C721.47 357.845 720.82 358.116 720.63 358.657C720.491 359.21 720.457 359.787 720.53 360.353C720.489 361 720.226 361.61 719.79 362.072C719.353 362.534 718.771 362.818 718.15 362.871C718.437 363.709 718.443 364.623 718.169 365.465C717.895 366.307 717.357 367.028 716.64 367.512C716.222 367.722 715.832 367.988 715.48 368.303C715.138 368.763 714.908 369.302 714.81 369.875C713.489 375.028 710.771 379.677 706.98 383.267C705.558 384.43 704.261 385.748 703.11 387.2C702.399 388.325 701.812 389.529 701.36 390.79C698.694 397.575 695.987 404.363 693.24 411.154C691.72 414.953 690.24 418.813 689.76 422.903C688.56 434.12 678.96 443.631 680.76 454.765C681.124 457.547 682.202 460.174 683.88 462.372C685.88 464.88 688.88 466.316 691.88 467.481C699.59 470.603 707.72 472.309 715.82 474.026L728.54 476.742C731.036 477.34 733.569 477.757 736.12 477.991C739.19 478.21 742.34 477.908 745.33 478.719C747.18 479.219 748.95 480.145 750.86 480.249C752.5 480.343 754.52 479.979 755.49 481.373C756.46 482.767 755.71 484.609 756.63 485.847C758.11 487.814 761.72 485.847 763.33 487.7C763.77 488.411 764.107 489.186 764.33 489.999C764.575 490.502 764.915 490.948 765.33 491.31C765.428 491.898 765.468 492.494 765.45 493.09C765.241 495.506 764.758 497.889 764.01 500.187C762.81 504.411 761.614 508.64 760.42 512.871C759.965 514.366 759.63 515.897 759.42 517.45C759.345 518.204 759.345 518.964 759.42 519.718C759.63 522.018 760.9 524.391 763.01 525.14C764.647 525.59 766.388 525.366 767.87 524.515C769.301 523.738 770.643 522.796 771.87 521.706C774.084 519.963 776.03 517.878 777.64 515.525C782.64 507.741 781.02 497.21 784.53 488.605C786.86 482.861 791.4 478.199 792.91 472.143C793.263 470.991 793.305 469.759 793.03 468.584C792.4 466.503 790.27 465.317 788.28 464.567H788.19C786.555 463.962 784.885 463.465 783.19 463.079C782.77 462.986 782.34 462.913 781.91 462.84C780.959 462.035 780.202 461.008 779.7 459.843C779.622 459.224 779.464 458.618 779.23 458.043C779.071 457.795 778.858 457.59 778.607 457.445C778.357 457.301 778.077 457.22 777.79 457.211C776.79 457.107 775.45 457.481 774.36 457.398C772.13 457.231 770.65 454.953 768.65 453.902C766.65 452.851 764.48 453.111 762.35 453.267C761.588 453.375 760.814 453.326 760.07 453.121C759.182 452.695 758.37 452.115 757.67 451.404C756.439 450.408 755.003 449.722 753.474 449.403C751.945 449.083 750.365 449.138 748.86 449.562C747.903 449.964 746.89 450.203 745.86 450.27C743.91 450.155 742.53 448.345 741.09 446.971C737.15 443.215 731.54 442.226 726.76 439.76C726.029 439.477 725.418 438.93 725.04 438.22C724.49 436.805 725.73 435.39 726.85 434.422L735.07 427.315C744.07 419.531 755.32 413.673 759.5 402.257C759.936 400.727 760.612 399.282 761.5 397.981C761.824 397.584 762.197 397.234 762.61 396.94C764.429 395.714 766.632 395.267 768.76 395.691C771.353 396.295 773.811 397.412 776 398.98C779.58 401.234 783.064 403.662 786.45 406.264C789.805 408.758 792.995 411.484 796 414.422C801.25 419.625 805.62 425.795 810.51 431.404C815.4 437.013 820.99 442.247 827.78 444.932C834.57 447.616 842.78 447.502 848.61 442.996C855.34 437.793 857.5 428.491 859.2 419.958C862.95 416.191 864.08 410.457 865.91 405.39C867.06 402.174 868.53 399.146 869.77 395.941C871.25 392.174 872.41 388.282 873.57 384.401C874.885 380.503 875.777 376.465 876.23 372.362C876.71 365.879 875.04 358.98 876.79 352.892C879.1 352.362 881.2 351.009 883.47 350.218C886.85 349.063 890.47 349.25 894.05 349.271H894.28C895.514 349.408 896.755 349.103 897.8 348.407C899 347.367 899.19 345.587 899.25 343.975C899.39 339.989 899.15 335.515 896.28 332.934ZM751.39 155.432C750.563 155.644 749.708 155.708 748.86 155.619L751.39 155.432Z" fill="url(#paint0_linear)"/>
<path d="M755.33 221.259C754.119 222.329 752.7 223.113 751.17 223.558L744.08 226.202C740.23 227.638 736.21 229.084 732.15 228.564C729.88 228.272 720.15 226.784 718.68 224.942C716.44 222.091 724.29 217.898 726.97 215.494C727.578 215.04 728.14 214.524 728.65 213.954C729.65 212.684 729.52 210.905 729.38 209.302C728.872 205.243 728.698 201.145 728.86 197.055C728.938 196.08 729.072 195.11 729.26 194.152C730.26 189.365 734.54 191.113 737.92 192.383C741.989 193.758 745.923 195.531 749.67 197.679C750.812 198.291 751.804 199.167 752.57 200.239C754.05 202.57 753.46 205.629 753.22 208.564C753.01 210.843 753.02 213.028 754.39 214.682C755.08 215.315 755.712 216.011 756.28 216.763C756.6 217.521 756.681 218.364 756.51 219.172C756.339 219.98 755.926 220.711 755.33 221.259Z" fill="#BE6F72"/>
<path d="M657.39 146.264C658.39 141.654 658.61 136.899 659.81 132.331C660.657 129.36 661.706 126.457 662.95 123.642L667.36 112.934C667.763 111.67 668.481 110.539 669.44 109.656C670.468 108.994 671.661 108.661 672.87 108.699C677.18 108.533 681.71 109.927 684.65 113.226C687.59 116.524 688.52 121.862 686.18 125.64C683.38 130.187 677.27 131.103 673.62 134.932C671.29 137.378 670.16 140.78 669.47 144.141C667.65 152.882 668.26 161.946 667.7 170.874C667.52 173.652 667 176.826 664.7 178.262C663.31 178.971 661.764 179.283 660.22 179.167L653.66 179.282C652.56 179.282 648.57 180 647.84 179.136C646.56 177.627 649.48 170.114 650.01 168.439C651.19 164.724 652.64 161.103 654.01 157.45C655.2 154.193 657.39 149.792 657.39 146.264Z" fill="#BE6F72"/>
<path d="M792.84 473.173C791.33 479.188 786.79 483.87 784.46 489.604C780.95 498.189 782.53 508.688 777.57 516.451C775.961 518.809 774.016 520.897 771.8 522.642C770.572 523.729 769.23 524.668 767.8 525.441C766.318 526.292 764.577 526.516 762.94 526.066C760.83 525.317 759.56 522.944 759.35 520.655C759.275 519.904 759.275 519.147 759.35 518.397C759.56 516.848 759.895 515.32 760.35 513.829C761.55 509.618 762.747 505.4 763.94 501.175C764.687 498.884 765.17 496.509 765.38 494.099C765.51 491.477 763.91 488.064 764.59 485.618C764.9 484.515 766.06 483.537 766.59 482.611C767.343 481.278 767.921 479.847 768.31 478.355C769.13 475.452 769.69 472.351 771.41 469.906C772.532 468.455 773.845 467.177 775.31 466.108C776.391 465.121 777.658 464.381 779.03 463.933C780.361 463.689 781.728 463.757 783.03 464.13C784.726 464.507 786.397 465.001 788.03 465.608H788.12C790.12 466.357 792.24 467.512 792.87 469.614C793.176 470.781 793.166 472.012 792.84 473.173V473.173Z" fill="#3F3D56"/>
<path d="M899.24 345.244C899.18 346.857 898.99 348.657 897.79 349.666C896.745 350.362 895.504 350.667 894.27 350.53H894C890.43 350.53 886.8 350.322 883.42 351.477C880.85 352.362 878.49 353.985 875.81 354.307C872.12 354.745 868.65 352.643 865.38 350.811C862.301 349.085 859.141 347.522 855.91 346.129C853.79 345.223 849.46 344.64 848.44 342.226C848.091 341.084 847.797 339.924 847.56 338.751C847.392 338.226 847.188 337.715 846.95 337.221C846.35 336.167 845.969 334.994 845.83 333.777C845.834 332.564 846.236 331.389 846.97 330.447C847.786 329.442 848.784 328.615 849.909 328.013C851.033 327.411 852.26 327.047 853.52 326.94C856.04 326.736 858.575 326.876 861.06 327.356L885.68 331.04C887.58 331.321 889.49 331.602 891.36 332.081C893.136 332.401 894.81 333.165 896.24 334.308C899.15 336.847 899.39 341.311 899.24 345.244Z" fill="#3F3D56"/>
<path d="M877.6 351.904C874.6 358.491 876.76 366.285 876.22 373.569C875.767 377.662 874.874 381.69 873.56 385.577C872.4 389.448 871.24 393.329 869.76 397.086C868.52 400.208 867.05 403.329 865.9 406.513C864.07 411.591 862.9 417.304 859.19 421.082C857.49 429.594 855.33 438.896 848.6 444.058C842.75 448.553 834.6 448.709 827.77 445.993C820.94 443.277 815.39 438.074 810.5 432.466C805.61 426.857 801.24 420.749 795.99 415.525C792.981 412.586 789.784 409.864 786.42 407.377C783.033 404.817 779.55 402.41 775.97 400.155C773.778 398.595 771.321 397.482 768.73 396.878C766.602 396.453 764.399 396.9 762.58 398.126C762.167 398.42 761.794 398.77 761.47 399.167C760.58 400.463 759.904 401.905 759.47 403.433C755.27 414.817 744 420.665 735 428.428L726.78 435.514C725.66 436.482 724.42 437.897 724.97 439.302C725.348 440.013 725.958 440.559 726.69 440.842C731.47 443.298 737.08 444.287 741.02 448.033C742.46 449.406 743.84 451.217 745.79 451.321C746.82 451.258 747.833 451.023 748.79 450.624C750.295 450.2 751.873 450.145 753.402 450.463C754.93 450.781 756.367 451.462 757.6 452.455C758.3 453.166 759.112 453.746 760 454.172C760.743 454.377 761.518 454.426 762.28 454.318C764.41 454.162 766.67 453.964 768.58 454.952C770.49 455.941 772.06 458.272 774.29 458.438C775.38 458.522 776.68 458.147 777.72 458.251C778.006 458.261 778.286 458.341 778.537 458.486C778.787 458.631 779.001 458.836 779.16 459.084C779.393 459.655 779.552 460.258 779.63 460.873C780.04 462.341 781.42 463.236 782.32 464.443C783.7 466.295 783.9 468.813 783.76 471.154C783.307 478.475 780.172 485.336 775 490.322C773.532 491.884 771.659 492.968 769.61 493.444C768.584 493.667 767.516 493.549 766.558 493.107C765.6 492.664 764.799 491.919 764.27 490.977C764.047 490.167 763.71 489.396 763.27 488.688C761.66 486.846 758.05 488.803 756.57 486.836C755.65 485.608 756.31 483.641 755.43 482.372C754.55 481.102 752.43 481.331 750.8 481.258C748.89 481.154 747.12 480.218 745.27 479.729C742.27 478.917 739.13 479.219 736.06 479C733.509 478.766 730.976 478.349 728.48 477.752L715.76 475.046C707.66 473.329 699.53 471.591 691.82 468.522C688.87 467.356 685.9 465.92 683.82 463.423C682.143 461.228 681.066 458.604 680.7 455.827C678.89 444.724 688.49 435.233 689.7 424.047C690.13 419.968 691.7 416.118 693.18 412.33C695.893 405.56 698.6 398.785 701.3 392.008C701.737 390.746 702.307 389.538 703 388.407C704.151 386.959 705.448 385.643 706.87 384.484C710.659 380.906 713.378 376.267 714.7 371.123C714.798 370.551 715.028 370.012 715.37 369.552C715.724 369.243 716.114 368.981 716.53 368.772C717.244 368.288 717.782 367.568 718.055 366.728C718.329 365.888 718.324 364.977 718.04 364.141C718.661 364.088 719.243 363.804 719.679 363.342C720.116 362.88 720.379 362.27 720.42 361.623C720.347 361.059 720.381 360.487 720.52 359.937C720.76 359.396 721.36 359.125 721.71 358.647C722.28 357.866 722.08 356.774 721.99 355.796C721.93 355.176 721.93 354.552 721.99 353.933C722.209 351.729 723.156 349.673 724.67 348.116C727.06 345.671 730.46 346.305 733.76 345.723C737.052 344.983 740.267 343.913 743.36 342.528C752.037 338.97 761.173 336.772 770.47 336.004C779.813 335.239 789.197 336.794 797.85 340.541C799.109 341.071 800.296 341.771 801.38 342.622C802.15 343.239 802.781 344.024 803.23 344.921C803.599 346.023 804.054 347.091 804.59 348.116C805.66 349.635 807.68 350.124 808.85 351.56C810.02 352.996 810.12 355.421 811.09 357.2C812.48 359.739 815.7 360.915 816.66 363.673C816.96 364.547 817 365.504 817.22 366.409C817.76 368.678 819.38 370.468 820.81 372.258C826.052 378.782 829.409 386.72 830.49 395.15C830.81 389.875 834.22 385.202 838.49 382.289C839.64 381.508 840.97 380.645 841.2 379.229C841.49 377.44 839.82 375.847 839.93 374.026C840.051 373.137 840.396 372.297 840.93 371.592C842.836 368.717 844.927 365.981 847.19 363.402C848.42 361.997 849.8 360.28 849.29 358.428C848.9 357.044 847.54 356.233 846.79 355.025C846.352 354.306 846.128 353.468 846.146 352.616C846.164 351.765 846.423 350.938 846.89 350.239C847.59 349.25 848.7 348.532 849.04 347.356C849.43 345.972 848.56 344.474 848.83 343.048C849.196 341.907 849.922 340.928 850.89 340.27C852.217 339.013 853.725 337.981 855.36 337.211C858 336.17 860.94 336.555 863.74 336.961C868.42 337.637 873.67 338.678 876.31 342.757C878 345.306 878.86 349.177 877.6 351.904Z" fill="#65617D"/>
<path opacity="0.1" d="M899.24 345.244C899.18 346.857 898.99 348.657 897.79 349.666C896.745 350.362 895.503 350.667 894.27 350.53H894C894.41 348.366 896.94 347.127 897.38 344.932C897.455 344.257 897.396 343.574 897.207 342.924C897.018 342.274 896.702 341.672 896.28 341.155C894.14 338.147 890.7 336.482 887.28 335.265C877.618 331.818 867.267 331.012 857.22 332.924C854.488 333.387 851.83 334.237 849.32 335.452C848.488 335.994 847.687 336.584 846.92 337.221C846.32 336.167 845.938 334.994 845.8 333.777C845.804 332.564 846.206 331.389 846.94 330.447C847.756 329.442 848.754 328.615 849.878 328.013C851.002 327.411 852.23 327.047 853.49 326.94C856.01 326.736 858.545 326.876 861.03 327.356L885.65 331.04C887.55 331.321 889.46 331.602 891.33 332.081C893.106 332.401 894.78 333.165 896.21 334.308C899.15 336.847 899.39 341.311 899.24 345.244Z" fill="black"/>
<path opacity="0.1" d="M792.84 473.173C791.33 479.188 786.79 483.87 784.46 489.604C780.95 498.189 782.53 508.688 777.57 516.451C775.961 518.809 774.016 520.897 771.8 522.642C770.572 523.729 769.23 524.668 767.8 525.441C766.318 526.292 764.577 526.516 762.94 526.066C760.83 525.317 759.56 522.944 759.35 520.655C759.275 519.904 759.275 519.147 759.35 518.397L759.41 518.563C760.28 520.748 761.7 523.038 763.94 523.423C764.781 523.486 765.625 523.368 766.42 523.076C767.215 522.784 767.944 522.325 768.56 521.727C771.86 518.969 773.78 514.859 775.61 510.894C777.042 508.035 778.176 505.025 778.99 501.914C779.39 500.145 779.58 498.334 779.99 496.565C781.89 487.97 788.36 480.957 789.79 472.247C789.907 471.648 789.934 471.034 789.87 470.426C789.682 469.633 789.392 468.871 789.01 468.157C788.663 467.352 788.408 466.507 788.25 465.639C790.25 466.388 792.37 467.543 793 469.645C793.259 470.814 793.203 472.035 792.84 473.173Z" fill="black"/>
<path opacity="0.1" d="M777.74 458.251C776.814 460.769 775.257 462.982 773.23 464.661C770.383 466.918 767.05 468.418 763.52 469.032C761.877 469.468 760.152 469.446 758.52 468.969C756.3 468.168 754.7 466.003 752.43 465.379C750.81 464.921 749.07 465.327 747.43 465.077C744.48 464.651 742.19 462.309 739.81 460.436C732.52 454.734 722.95 452.892 715.66 447.19C715.335 446.982 715.066 446.692 714.88 446.347C714.74 445.973 714.688 445.57 714.73 445.171C714.757 441.712 715.504 438.301 716.92 435.171C718.079 432.988 719.46 430.94 721.04 429.063C727.57 420.738 734.13 412.351 741.95 405.327C745.23 402.382 748.81 399.635 752.95 398.303C755.25 397.564 759.79 396.867 762.59 398.116C762.176 398.409 761.803 398.759 761.48 399.157C760.589 400.453 759.913 401.895 759.48 403.423C755.27 414.817 744 420.665 735 428.428L726.78 435.514C725.66 436.482 724.42 437.897 724.97 439.302C725.348 440.013 725.958 440.559 726.69 440.842C731.47 443.298 737.08 444.287 741.02 448.033C742.46 449.406 743.84 451.217 745.79 451.321C746.819 451.258 747.832 451.023 748.79 450.624C750.294 450.2 751.873 450.145 753.401 450.463C754.93 450.781 756.367 451.462 757.6 452.455C758.3 453.166 759.111 453.746 760 454.172C760.743 454.377 761.518 454.426 762.28 454.318C764.41 454.162 766.67 453.964 768.58 454.952C770.49 455.941 772.06 458.272 774.29 458.438C775.4 458.522 776.7 458.126 777.74 458.251Z" fill="black"/>
<path d="M685.77 317.023C683.87 318.293 681.85 319.729 681.07 321.935C680.43 323.735 680.73 325.796 679.96 327.544C679.19 329.292 677.46 330.509 677.08 332.382C676.81 333.746 677.34 335.182 677.08 336.545C676.853 337.254 676.67 337.976 676.53 338.709C676.43 340.26 677.71 341.519 678.96 342.382C681.621 344.184 684.651 345.31 687.807 345.672C690.963 346.033 694.156 345.619 697.13 344.464C699.8 343.423 702.21 341.727 704.77 340.395C707.266 338.899 710.122 338.177 713 338.314C714.65 338.501 716.23 339.125 717.88 339.354C718.695 339.522 719.537 339.481 720.333 339.234C721.129 338.988 721.856 338.543 722.45 337.939C722.959 337.207 723.302 336.364 723.45 335.473C724.84 329.76 724.21 323.704 722.89 317.96C721.57 312.216 719.57 306.69 718.16 300.978C717.16 296.743 716.39 292.403 714.72 288.397C713.05 284.391 710.24 280.666 706.31 279.136C706 278.978 705.648 278.93 705.31 279.001C705.058 279.11 704.835 279.282 704.66 279.5C701.551 282.928 699.209 287.029 697.8 291.508C696.23 296.493 695.8 301.779 694.36 306.784C693.74 308.865 692.94 311.654 691.36 313.246C689.78 314.838 687.56 315.827 685.77 317.023Z" fill="#3F3D56"/>
<path opacity="0.1" d="M723.48 335.442C723.313 336.335 722.954 337.178 722.43 337.908C721.838 338.514 721.111 338.959 720.314 339.204C719.517 339.449 718.674 339.486 717.86 339.313C716.22 339.105 714.64 338.47 712.99 338.272C710.112 338.133 707.256 338.856 704.76 340.353C702.2 341.685 699.76 343.34 697.11 344.412C693.234 345.941 688.999 346.192 684.98 345.13C682.846 344.571 680.818 343.643 678.98 342.382C677.72 341.529 676.45 340.301 676.55 338.709C676.69 337.98 676.874 337.26 677.1 336.555C677.36 335.192 676.84 333.756 677.1 332.393C677.48 330.52 679.22 329.271 679.98 327.544C680.74 325.816 680.45 323.746 681.08 321.945C681.86 319.729 683.89 318.303 685.79 317.023C687.69 315.744 689.95 314.765 691.47 313.215C691.667 312.974 691.844 312.716 692 312.445C693.097 310.686 693.901 308.748 694.38 306.711C695.85 301.696 696.25 296.42 697.81 291.425C699.225 286.949 701.571 282.853 704.68 279.427C704.847 279.204 705.068 279.031 705.32 278.928C705.658 278.856 706.009 278.9 706.32 279.053C710.24 280.593 713.05 284.318 714.73 288.324C716.41 292.33 717.12 296.649 718.17 300.894C719.57 306.607 721.58 312.154 722.9 317.887C724.22 323.621 724.87 329.719 723.48 335.442Z" fill="black"/>
<path opacity="0.1" d="M753.22 208.532C748.518 210.087 743.43 209.778 738.933 207.665C734.436 205.553 730.849 201.785 728.86 197.086C728.938 196.111 729.072 195.141 729.26 194.183C730.26 189.396 734.54 191.144 737.92 192.414C741.989 193.789 745.923 195.563 749.67 197.71C750.812 198.323 751.804 199.198 752.57 200.27C754.05 202.57 753.46 205.629 753.22 208.532Z" fill="black"/>
<path d="M747.18 208.47C758.225 208.47 767.18 199.152 767.18 187.658C767.18 176.164 758.225 166.847 747.18 166.847C736.134 166.847 727.18 176.164 727.18 187.658C727.18 199.152 736.134 208.47 747.18 208.47Z" fill="#BE6F72"/>
<path opacity="0.1" d="M801.45 343.184C801.45 344.911 799.2 345.463 797.53 345.369C791.53 345.005 785.66 343.288 779.72 343.808C772.21 344.516 765.31 348.834 757.78 349.229C754.88 349.386 751.93 348.938 749.07 349.49C745.37 350.208 742.07 352.549 738.3 352.882C735.03 353.173 731.8 351.893 728.53 352.029C726.244 352.17 724.015 352.831 722 353.964C722.219 351.761 723.166 349.705 724.68 348.147C727.07 345.702 730.47 346.337 733.77 345.754C737.062 345.015 740.277 343.945 743.37 342.559C752.047 339.002 761.183 336.803 770.48 336.035C779.817 335.262 789.198 336.806 797.85 340.541C799.109 341.071 800.296 341.771 801.38 342.622C801.435 342.803 801.458 342.994 801.45 343.184V343.184Z" fill="black"/>
<path d="M737.93 225.66L729.83 222.539L726.41 221.228C725.017 220.62 723.55 220.214 722.05 220.02C718.13 219.708 714.44 222.424 712.35 225.889C710.26 229.354 709.47 233.486 708.8 237.513C707.88 243.021 707.1 248.55 706.46 254.099C705.771 259.111 705.42 264.167 705.41 269.23C705.64 282.112 708.26 294.817 711.14 307.356C712.551 312.916 713.616 318.564 714.33 324.266C714.57 326.618 714.68 328.98 714.92 331.342C715.18 333.995 715.6 336.618 716.02 339.25L718.43 354.203C721.43 351.987 724.84 350.041 728.53 349.927C731.8 349.802 735.04 351.071 738.3 350.78C742.05 350.457 745.37 348.116 749.07 347.398C751.93 346.847 754.88 347.284 757.79 347.138C765.31 346.742 772.22 342.414 779.72 341.716C785.67 341.155 791.58 342.903 797.54 343.267C799.2 343.371 801.45 342.819 801.45 341.082C801.45 339.875 800.29 339.073 799.28 338.47C794.519 335.487 789.989 332.123 785.73 328.407C781.79 325.161 777.79 321.831 775.08 317.44C768.55 306.878 770.79 292.591 765.22 281.446C760.69 272.393 765.22 260.53 765.22 250.322C765.22 245.234 765.22 240.083 764.07 235.14C763.351 232.376 762.456 229.664 761.39 227.024L757.5 216.774C757.419 216.474 757.26 216.204 757.04 215.993C756.779 215.806 756.468 215.708 756.15 215.712C753.814 215.567 751.51 216.335 749.69 217.866C747.86 219.417 746.69 221.644 744.89 223.257C742.92 225.036 740.38 226.597 737.93 225.66Z" fill="#E3E8F4"/>
<path d="M751 219.75C751.64 216.899 752.33 213.933 754.16 211.706C755.99 209.479 759.33 208.304 761.69 209.896C764.37 211.706 764.48 215.889 766.77 218.22C768.77 220.218 771.77 220.374 774.49 220.634C779.38 221.098 784.184 222.275 788.76 224.131C789.652 224.419 790.465 224.925 791.13 225.608C792.38 227.086 792.13 229.354 792.75 231.196C793.6 233.569 795.95 235.078 796.86 237.44C797.86 240.062 796.86 242.996 796.02 245.692C794.51 250.53 793.56 255.556 792.09 260.416C790.62 265.275 788.53 270.062 785.09 273.725C783.57 275.348 781.31 276.847 779.31 275.879L778.54 281.654C778.315 282.874 778.315 284.128 778.54 285.348C778.656 285.959 778.935 286.523 779.346 286.976C779.756 287.428 780.281 287.752 780.86 287.908C781.01 288.803 781.92 289.23 782.66 289.719C783.206 290.107 783.673 290.605 784.033 291.183C784.393 291.761 784.639 292.407 784.757 293.085C784.875 293.762 784.863 294.457 784.721 295.13C784.579 295.802 784.31 296.439 783.93 297.003C783.3 297.887 782.37 298.584 782.07 299.635C781.62 301.155 782.69 302.757 783.99 303.59C785.29 304.422 786.82 304.807 788.14 305.608C790.88 307.252 792.35 310.489 793.29 313.631C793.99 316.004 794.57 318.574 796.29 320.301C796.95 320.957 797.74 321.456 798.37 322.143C799.46 323.484 800.09 325.164 800.16 326.919C800.434 329.094 799.974 331.301 798.86 333.163C796.86 336.139 793.13 337.023 789.86 338.366C784.55 340.634 780.18 344.692 775.5 348.147C773.594 349.745 771.348 350.844 768.95 351.352C765.71 351.8 762.52 350.312 759.26 350.176C757.309 350.195 755.368 350.461 753.48 350.967L747.48 352.32C747.8 347.481 745.24 342.632 743.81 338.022C741.11 329.344 740.61 320.062 741.25 310.967C741.89 301.873 743.67 292.903 745.43 283.975C746.66 277.731 746.54 271.207 748.43 265.14C750.2 259.302 752.73 253.694 753.66 247.617C755.18 237.783 748.86 229.448 751 219.75Z" fill="#3F3D56"/>
<path d="M796.49 238.99C797.042 240.048 797.43 241.189 797.64 242.372C798.103 244.205 798.969 245.901 800.17 247.325C801.176 248.249 802.07 249.297 802.83 250.447C803.75 252.258 803.4 254.464 803.83 256.441C804.33 258.595 805.78 260.468 805.99 262.684C805.996 263.319 806.053 263.953 806.16 264.578C806.81 267.096 810.37 267.7 811.16 270.218C811.69 271.852 810.78 273.631 810.95 275.348C811.074 275.879 811.105 276.429 811.04 276.971C810.814 277.585 810.417 278.114 809.9 278.491C806.591 281.781 804.299 286.023 803.32 290.676C802.357 295.303 801.851 300.021 801.81 304.755L797.9 299.375C797.486 298.723 796.957 298.158 796.34 297.71C795.84 297.398 795.26 297.242 794.75 296.93C793.27 296.056 792.69 294.203 792.12 292.539C790.537 287.93 788.165 283.657 785.12 279.927C783.53 277.981 781.68 276.025 781.33 273.496C781.225 272.335 781.286 271.163 781.51 270.02C782.51 263.205 783.58 256.222 786.77 250.177C788.26 247.346 790.19 244.786 791.62 241.914C792.58 240.01 793.93 235.057 796.49 238.99Z" fill="#3F3D56"/>
<path d="M697.84 245.536C697.859 246.412 697.644 247.276 697.22 248.033C696.838 248.494 696.34 248.835 695.782 249.019C695.224 249.203 694.628 249.222 694.06 249.074C692.922 248.776 691.849 248.253 690.9 247.533C688.114 245.702 685.327 243.867 682.54 242.029C680.985 241.053 679.485 239.983 678.05 238.824C675.857 236.897 673.869 234.731 672.12 232.362C667.26 226.118 662.96 219.344 657.55 213.631C656.08 212.07 654.55 210.572 653.13 208.938C651.19 206.577 649.405 204.081 647.79 201.467C646.23 199.063 644.61 196.399 644.88 193.527C645.04 191.904 645.79 190.406 646.01 188.793C646.23 187.18 645.64 185.213 644.14 184.776C643.963 184.73 643.783 184.698 643.6 184.682C643.304 184.65 643.013 184.583 642.73 184.485C641.34 183.881 641.55 181.644 642.55 180.468C643.55 179.292 645.03 178.637 645.94 177.346C646.364 176.581 646.838 175.847 647.36 175.151C648.03 174.553 648.83 174.135 649.69 173.933C655.459 172.164 661.56 171.925 667.44 173.236C668.44 173.465 669.58 173.881 669.88 174.89C670 175.382 670 175.897 669.88 176.389C669.439 178.441 669.185 180.531 669.12 182.632C669.119 183.07 669.142 183.508 669.19 183.944C669.66 188.356 672.41 192.091 675.09 195.536C678.27 199.635 681.5 203.704 684.74 207.762C686.493 210.114 688.451 212.291 690.59 214.266C692.59 215.993 695.18 217.388 696.74 219.604C698.01 221.394 697.6 223.839 697.74 225.993C698.206 232.497 698.239 239.027 697.84 245.536V245.536Z" fill="#3F3D56"/>
<path d="M824.84 288.949C825.828 287.949 826.719 286.851 827.5 285.671C828.341 284.208 829.012 282.646 829.5 281.019L835.3 263.902C836.22 261.196 837.14 258.48 838.3 255.848C839.5 253.007 840.92 250.27 842.23 247.523C845.6 240.294 848.205 232.705 850 224.89C850.316 223.817 850.422 222.688 850.31 221.571C850.03 219.771 848.72 218.366 847.47 217.086C846.213 215.673 844.781 214.441 843.21 213.423C842.422 212.913 841.544 212.571 840.627 212.417C839.71 212.264 838.773 212.301 837.87 212.528C835.31 213.309 833.7 216.035 833.11 218.772C832.52 221.509 832.74 224.308 832.49 227.096C832.13 231.092 830.81 234.953 830.49 238.959C830.32 241.28 830.49 243.621 830.22 245.931C829.728 248.964 828.712 251.88 827.22 254.537C823.971 260.864 819.581 266.482 814.29 271.082C812.841 272.195 811.537 273.5 810.41 274.963C809.47 276.427 808.833 278.078 808.54 279.812C807.876 282.453 808.164 285.255 809.35 287.689C810.98 290.582 814.11 291.852 817.1 292.497C821.14 293.371 822.07 291.935 824.84 288.949Z" fill="#BE6F72"/>
<path d="M747.3 157.502C748.161 155.819 749.479 154.437 751.091 153.528C752.702 152.619 754.534 152.225 756.36 152.393C758.198 152.732 759.909 153.6 761.298 154.898C762.687 156.196 763.699 157.874 764.22 159.74C764.69 161.29 764.88 163.007 765.7 164.339C766.94 166.347 769.24 166.93 770.96 168.387C771.987 169.38 772.813 170.576 773.39 171.905C773.967 173.235 774.283 174.671 774.32 176.129C774.416 179.107 773.964 182.078 772.99 184.88C772.577 186.076 772.242 187.3 771.99 188.543C771.79 189.75 771.77 190.978 771.59 192.185C771.368 193.75 770.848 195.253 770.06 196.606C769.271 197.959 768.231 199.134 767 200.062C766.649 200.36 766.212 200.525 765.76 200.53C764.98 200.437 764.5 199.49 764.21 198.637C762.62 193.86 763 188.023 760.07 184.214C758.737 182.678 757.126 181.43 755.33 180.541C754.597 180.049 753.772 179.726 752.91 179.594C751.642 179.665 750.423 180.129 749.41 180.926C747.299 182.399 744.957 183.477 742.49 184.11C741.259 184.414 739.978 184.427 738.741 184.15C737.504 183.873 736.342 183.312 735.34 182.508C733.96 181.321 732.95 179.542 731.42 178.616C729.89 177.69 728.29 177.742 726.78 177.107C725.818 176.681 724.961 176.032 724.277 175.21C723.592 174.387 723.096 173.413 722.828 172.361C722.56 171.31 722.526 170.208 722.729 169.14C722.932 168.073 723.367 167.068 724 166.202C725 164.953 726.48 164.245 727.37 162.861C728.52 161.072 728.42 158.616 728.97 156.472C729.295 155.116 729.927 153.86 730.812 152.809C731.697 151.757 732.811 150.941 734.06 150.426C735.271 149.998 736.571 149.916 737.824 150.189C739.076 150.462 740.235 151.079 741.18 151.977C742.18 152.913 742.98 154.12 743.96 155.099C744.927 156.062 746.112 156.758 747.405 157.122C748.698 157.485 750.058 157.505 751.36 157.18" fill="#3F3D56"/>
<path opacity="0.1" d="M763.74 310.666C763.158 311.205 762.745 311.914 762.556 312.701C762.367 313.488 762.41 314.316 762.68 315.078C762.9 315.567 773.22 313.496 774.31 313.34C777.03 312.934 781.8 313.132 783.63 310.541C786.89 305.952 776.79 306.971 774.94 307.138C771.42 307.45 766.42 307.95 763.74 310.666Z" fill="black"/>
<path d="M669.86 176.431C669.419 178.482 669.164 180.573 669.1 182.674C666.1 183.309 662.98 182.268 660.1 181.228L651.83 178.293C651.327 177.959 650.72 177.836 650.133 177.95C649.546 178.064 649.023 178.406 648.67 178.907C647.34 180.343 645.51 183.069 643.67 184.682C643.374 184.65 643.082 184.583 642.8 184.485C641.41 183.881 641.62 181.644 642.62 180.468C643.62 179.292 645.1 178.637 646.01 177.346C646.433 176.581 646.908 175.847 647.43 175.151C648.099 174.553 648.899 174.135 649.76 173.933C655.528 172.164 661.63 171.925 667.51 173.236C668.51 173.465 669.65 173.881 669.95 174.89C670.047 175.403 670.016 175.934 669.86 176.431Z" fill="#3F3D56"/>
<path opacity="0.1" d="M669.86 176.431C669.419 178.482 669.164 180.573 669.1 182.674C666.1 183.309 662.98 182.268 660.1 181.228L651.83 178.293C651.327 177.959 650.72 177.836 650.133 177.95C649.546 178.064 649.023 178.406 648.67 178.907C647.34 180.343 645.51 183.069 643.67 184.682C643.374 184.65 643.082 184.583 642.8 184.485C641.41 183.881 641.62 181.644 642.62 180.468C643.62 179.292 645.1 178.637 646.01 177.346C646.433 176.581 646.908 175.847 647.43 175.151C648.099 174.553 648.899 174.135 649.76 173.933C655.528 172.164 661.63 171.925 667.51 173.236C668.51 173.465 669.65 173.881 669.95 174.89C670.047 175.403 670.016 175.934 669.86 176.431Z" fill="black"/>
<path opacity="0.1" d="M745.51 373.985C746.95 374.484 748.51 375.213 749 376.711L737.42 373.652L731.42 372.06C730.36 371.779 726.56 371.456 725.86 370.593C724.86 369.323 728.41 370.197 729.05 370.291C730.99 370.593 732.93 370.905 734.86 371.269C738.5 371.945 742 373.059 745.51 373.985Z" fill="black"/>
<path opacity="0.1" d="M750 384.651C749 383.954 746.13 384.037 744.9 383.735C743.1 383.288 741.33 382.695 739.56 382.122C735.97 380.905 732.41 379.521 728.72 378.626C728.04 378.47 725.72 378.428 725.83 377.533C725.94 376.638 728.15 376.326 728.7 376.285C731.97 376.035 736.05 377.627 739.09 378.761C742.964 380.205 746.634 382.186 750 384.651V384.651Z" fill="black"/>
<path opacity="0.1" d="M742.66 364.474C738.99 363.433 735.66 361.061 731.88 360.603C730.895 360.642 729.926 360.334 729.13 359.729C728.686 359.275 728.377 358.696 728.24 358.064C730.77 357.929 733.71 359.042 736.01 360.093C737.276 360.658 738.494 361.333 739.65 362.112C740.49 362.643 741.75 364.172 742.66 364.474Z" fill="black"/>
<path d="M812.62 271.3C811.999 275.627 812.897 280.041 815.148 283.734C817.4 287.428 820.854 290.155 824.88 291.415C824.39 293.881 821.94 295.244 820.21 297.003C817.77 299.469 816.51 303.163 813.63 305.036C810.42 307.117 806.29 306.305 802.63 305.431C802.297 305.393 801.99 305.226 801.77 304.963C801.694 304.838 801.64 304.701 801.61 304.557C800.4 299.948 799.61 295.026 800.85 290.405C801.85 286.472 804.25 283.121 806.17 279.646C808.09 276.17 808.27 272.445 812.62 271.3Z" fill="#3F3D56"/>
<path d="M723.21 211.633C719.34 211.927 715.581 213.118 712.21 215.119C709.97 216.451 707.67 218.241 705.11 217.918C703.6 217.742 702.11 216.878 700.64 217.294C699.812 217.642 699.04 218.119 698.35 218.709C698 218.999 697.585 219.19 697.143 219.263C696.701 219.336 696.249 219.288 695.83 219.126L694.83 233.527C694.45 239.001 694.08 244.589 695.34 249.927C695.99 252.653 697.42 255.13 697.58 257.898C697.74 260.666 697.5 263.506 697.69 266.306C697.87 268.897 698.42 271.446 698.56 274.037C698.84 278.928 697.68 283.777 696.56 288.532C694.87 295.546 693.85 302.715 690.56 309.063C689.64 310.822 688.56 312.611 688.56 314.609C688.56 314.859 688.56 315.098 688.62 315.338C687.62 315.91 686.69 316.451 685.84 317.013C683.94 318.293 681.91 319.719 681.13 321.935C680.5 323.735 680.79 325.796 680.03 327.533C679.27 329.271 677.53 330.509 677.15 332.382C676.88 333.746 677.4 335.182 677.15 336.545C676.924 337.25 676.74 337.97 676.6 338.699C676.5 340.26 677.77 341.519 679.03 342.372C680.868 343.632 682.896 344.561 685.03 345.119L691 320.457C696.443 309.985 700.972 299.025 704.53 287.71C705.548 284.012 706.856 280.406 708.44 276.93C709.572 274.963 710.574 272.919 711.44 270.811C712.35 268.189 712.44 265.348 712.88 262.58C713.403 259.35 714.189 256.171 715.23 253.08C716.31 249.739 717.56 246.41 717.78 242.903C718.11 237.887 716.36 232.591 718.22 227.95C719.01 226.213 720.037 224.604 721.27 223.173C723.85 219.885 726.2 216.441 728.78 213.153C727.44 211.665 725.21 211.509 723.21 211.633Z" fill="#3F3D56"/>
<g opacity="0.1">
<path opacity="0.1" d="M751.39 154.079L750.14 154.172L750 154.277C750.468 154.257 750.934 154.191 751.39 154.079V154.079Z" fill="black"/>
<path opacity="0.1" d="M774.27 175.681C774.061 177.75 773.632 179.788 772.99 181.758C772.577 182.954 772.242 184.178 771.99 185.421C771.79 186.628 771.77 187.856 771.59 189.063C771.368 190.628 770.848 192.132 770.06 193.484C769.271 194.837 768.231 196.012 767 196.94C766.649 197.238 766.212 197.403 765.76 197.409C764.98 197.315 764.5 196.368 764.21 195.515C762.62 190.739 763 184.901 760.07 181.092C758.737 179.556 757.126 178.308 755.33 177.419C754.597 176.927 753.772 176.605 752.91 176.472C751.642 176.543 750.423 177.007 749.41 177.804C747.299 179.277 744.957 180.355 742.49 180.988C741.259 181.292 739.978 181.305 738.741 181.028C737.504 180.751 736.342 180.19 735.34 179.386C733.96 178.199 732.95 176.42 731.42 175.494C729.89 174.568 728.29 174.62 726.78 173.985C725.837 173.566 724.996 172.931 724.321 172.128C723.646 171.324 723.153 170.373 722.88 169.344C722.845 169.214 722.818 169.082 722.8 168.949C722.55 170.11 722.578 171.318 722.88 172.466C723.153 173.495 723.646 174.446 724.321 175.249C724.996 176.053 725.837 176.688 726.78 177.107C728.29 177.742 729.99 177.752 731.42 178.616C732.85 179.479 733.96 181.321 735.34 182.508C736.342 183.312 737.504 183.873 738.741 184.15C739.978 184.427 741.259 184.414 742.49 184.11C744.957 183.477 747.299 182.399 749.41 180.926C750.423 180.129 751.642 179.665 752.91 179.594C753.772 179.726 754.597 180.049 755.33 180.541C757.104 181.447 758.69 182.705 760 184.245C762.93 188.054 762.55 193.891 764.14 198.668C764.43 199.531 764.91 200.468 765.69 200.562C766.17 200.564 766.635 200.387 767 200.062C768.236 199.131 769.281 197.952 770.071 196.593C770.861 195.235 771.381 193.725 771.6 192.154C771.78 190.947 771.8 189.719 772 188.512C772.253 187.268 772.587 186.045 773 184.849C773.974 182.046 774.426 179.076 774.33 176.098C774.31 175.973 774.29 175.827 774.27 175.681Z" fill="black"/>
</g>
<path d="M711 259.178L710.32 268.678C710.22 269.968 707.85 300.686 690.37 336.586C675.37 367.377 646.18 407.481 591.07 430.02C586.77 431.789 582.306 433.44 577.68 434.973L572.52 418.116C585.474 413.874 597.952 408.194 609.74 401.175C637.83 384.297 659.67 360.208 674.9 329.209C682.98 312.704 688.739 295.077 692 276.867H629.299V259.178H711Z" fill="#6C63FF"/>
<path opacity="0.1" d="M584.32 430.031C639.42 407.492 668.62 367.398 683.61 336.607C701.09 300.707 703.47 270.01 703.56 268.699L704.24 259.198H711.24L710.56 268.699C710.47 269.989 708.09 300.707 690.61 336.607C675.61 367.398 646.42 407.492 591.32 430.031C587.02 431.8 582.554 433.454 577.92 434.994L577.24 432.778C579.654 431.883 582.014 430.967 584.32 430.031Z" fill="white"/>
<path d="M474 418.116L468.84 434.973C464.206 433.433 459.74 431.779 455.44 430.01C400.34 407.471 371.14 367.377 356.15 336.586C338.67 300.686 336.29 269.989 336.2 268.678L335.52 259.178H417.18V276.867H354.47C357.748 295.079 363.523 312.706 371.62 329.209C386.85 360.208 408.68 384.297 436.77 401.165C448.558 408.191 461.04 413.874 474 418.116V418.116Z" fill="#6C63FF"/>
<path opacity="0.1" d="M462.18 430.031C407.08 407.492 377.88 367.398 362.89 336.607C345.41 300.707 343.03 270.01 342.94 268.699L342.26 259.198H335.26L335.94 268.699C336.03 269.989 338.41 300.707 355.89 336.607C370.89 367.398 400.08 407.492 455.18 430.031C459.48 431.8 463.946 433.454 468.58 434.994L469.26 432.778C466.853 431.883 464.493 430.967 462.18 430.031Z" fill="white"/>
<path d="M617.59 581.071V676.461H428.92V581.071L434.92 572.746C496.06 550.166 508.45 491.279 510.92 467.981C511.287 464.761 511.498 461.524 511.55 458.282H534.88C534.932 461.524 535.142 464.761 535.51 467.981C538.02 491.279 550.41 550.186 611.51 572.746L617.59 581.071Z" fill="#6C63FF"/>
<path opacity="0.1" d="M617.59 581.071H428.92V593.038H617.59V581.071Z" fill="black"/>
<path opacity="0.1" d="M444.92 572.746C506.06 550.166 518.45 491.279 520.92 467.981C521.287 464.761 521.498 461.524 521.55 458.282H511.55C511.498 461.524 511.287 464.761 510.92 467.981C508.41 491.279 496.02 550.186 434.92 572.746L428.92 581.071V676.461H438.92V581.071L444.92 572.746Z" fill="white"/>
<path opacity="0.1" d="M400.26 259.178H417.18V276.867H401.76C401.153 271.04 400.653 265.144 400.26 259.178Z" fill="black"/>
<path opacity="0.1" d="M474 418.116L468.84 434.973C464.206 433.433 459.74 431.779 455.44 430.01C448.366 421.021 442.116 411.364 436.77 401.165C448.558 408.191 461.04 413.874 474 418.116Z" fill="black"/>
<path opacity="0.1" d="M572.51 418.116C585.464 413.874 597.943 408.194 609.73 401.175C604.381 411.376 598.13 421.036 591.06 430.031C586.76 431.8 582.296 433.451 577.67 434.984L572.51 418.116Z" fill="black"/>
<path opacity="0.1" d="M646.24 259.178C645.847 265.144 645.347 271.04 644.74 276.867H629.33V259.178H646.24Z" fill="black"/>
<path opacity="0.1" d="M535.55 467.981C527.429 469.618 519.081 469.618 510.96 467.981C511.328 464.761 511.538 461.524 511.59 458.282H534.92C534.972 461.524 535.182 464.761 535.55 467.981V467.981Z" fill="black"/>
<path d="M402.26 229.875C402.69 361.05 456.69 467.127 523.26 467.127C589.83 467.127 643.82 361.05 644.26 229.875H402.26Z" fill="#6C63FF"/>
<path opacity="0.1" d="M423.76 229.875H402.26C402.69 361.05 456.69 467.127 523.26 467.127C526.862 467.12 530.458 466.804 534.01 466.18C472.47 455.483 424.17 353.912 423.76 229.875Z" fill="white"/>
<path d="M587.42 617.585H459.09V651.924H587.42V617.585Z" fill="#3F3D56"/>
<path opacity="0.1" d="M465.09 622.268H587.42V617.585H459.09V651.924H465.09V622.268Z" fill="white"/>
<path d="M333.82 356.524C331.51 355.723 317.91 344.526 316.88 339.458C315.85 334.391 324.07 287.18 324.07 287.18C324.07 287.18 323.31 287.18 322.07 287.023V286.264L323.76 224.245C323.76 224.245 330.69 182.622 317.6 185.047C304.51 187.471 312.72 224.245 312.72 224.245C312.72 224.245 311.23 242.913 310.18 248.512C309.18 253.912 304.6 275.91 307.72 282.747C307.835 282.99 307.962 283.226 308.1 283.454V283.454C308.1 283.454 308.62 306.919 302.97 310.124C297.58 313.173 295.34 328.522 295.15 329.895L294.86 329.771C293.251 328.723 291.838 327.379 290.69 325.806C290.57 325.65 290.48 325.483 290.37 325.317C294.05 321.01 296.033 315.417 295.923 309.656C295.814 303.894 293.62 298.387 289.78 294.235C287.995 292.305 285.9 290.713 283.59 289.531C283.523 287.543 283.071 285.589 282.26 283.787C279.66 278.002 265.26 270.437 255.03 270.26C250.31 270.114 246.44 271.508 245.03 275.348C244.31 277.294 244.53 279.51 244.23 281.529C243.63 285.692 241.06 288.949 237.76 291.54C236.428 289.992 234.987 288.548 233.45 287.221C230.11 284.557 223.45 275.775 223.45 275.775C223.45 275.775 202.66 253.371 201.12 247.232C199.58 241.092 178.81 204.224 174.19 210.645C169.57 217.065 190.1 245.046 190.1 245.046C190.1 245.046 194 255.213 197 258.647C200 262.081 223 296.836 223 296.836L224.1 299.209C219.24 301.873 214.8 305.265 213.23 310.551C210.93 318.335 215.96 326.16 219.44 333.444C226.22 347.658 227.19 365.785 218.44 378.771C210.6 390.239 197 395.691 184.27 400.457C190.418 405.481 198.056 408.119 205.87 407.918C202.93 416.784 192.51 419.718 183.63 421.362C188.29 426.024 194.96 427.72 201.36 428.751C204.495 429.306 207.671 429.567 210.85 429.531H211.63L212.41 429.469C213.494 429.394 214.573 429.251 215.64 429.042C220.26 428.064 224.75 425.442 227.11 421.196C229.11 417.564 229.81 412.611 233.44 410.79C234.386 410.346 235.404 410.095 236.44 410.051H236.33C237.01 410.051 237.71 410.051 238.39 410.051L253.52 410.207C254.15 410.207 254.8 410.207 255.45 410.207C259.72 410.103 264.28 409.333 266.45 405.66C267.343 403.876 267.813 401.896 267.82 399.885C268.14 394.9 267.82 389.77 267.95 384.744C269.24 393.891 270.59 408.147 267.38 413.412C264.773 417.402 261.612 420.968 258 423.995C257.092 424.789 256.261 425.674 255.52 426.638C255.03 427.002 254.74 427.2 254.74 427.2L254.43 428.168C253.291 429.967 252.465 431.96 251.99 434.058C251.816 434.596 251.751 435.167 251.8 435.733C252.15 436.472 249.3 439.521 250.13 440.8C243.01 449.489 241.66 462.653 241.66 462.653L228.66 483.194C221.98 501.456 211.98 503.329 211.98 503.329C211.98 503.329 188.49 486.929 187.85 486.128C187.21 485.327 178.23 481.321 178.23 481.321C177.172 479.389 175.555 477.852 173.61 476.93C170.53 475.598 170.27 470.686 170.27 470.686C169.89 459.084 163.34 458.199 163.34 458.199C158.06 457.731 154.03 458.709 150.93 460.499L149.99 460.572C145.45 460.957 139.99 461.383 133.99 461.799C117.3 462.944 113.33 474.193 113.33 474.193C113.33 474.193 111.28 476.597 113.97 479.198C116.66 481.799 133.88 479.198 134.61 479.136C133.298 479.283 131.971 479.188 130.69 478.855C133.4 478.751 137.13 478.646 140.31 478.646H141.08C140.88 480.401 140.783 482.166 140.79 483.933C140.79 487.262 149.64 489.396 149.64 489.396L176.59 514.37C176.59 514.37 193.53 522.247 204.31 533.579C215.09 544.911 224.62 535.129 224.62 535.129C236.03 532.195 268.86 490.894 268.89 490.852C268.89 492.06 269.58 532.226 270.89 540.291C270.943 540.7 271.04 541.101 271.18 541.487C272.72 544.952 270.66 554.422 269.77 558.417C269.203 561.762 268.985 565.16 269.12 568.553C269.12 568.553 256.81 617.46 257.83 621.758C258.85 626.055 251.16 646.024 251.16 646.024V662.673L252.5 662.6C252.326 662.869 252.166 663.147 252.02 663.433L251.93 663.61C251.93 663.61 260.14 665.472 265.66 664.942C271.18 664.411 280.66 669.364 280.66 669.364C280.66 669.364 283.87 670.946 293.75 671.612C303.63 672.278 303.63 667.075 303.63 667.075C302.5 659.989 286.89 657.616 286.41 657.543C285.15 656.721 283.97 655.826 283 655.056L282.8 654.89C282.866 654.734 282.923 654.574 282.97 654.411C284.64 647.335 275.4 644.265 275.4 644.265V642.538C281.4 639.333 282.59 617.335 282.59 617.335C282.59 617.335 291.59 590.134 292.85 585.597C294.11 581.06 292.85 574.265 292.85 574.265L293.75 568.397C293.75 568.397 295.68 564.401 295.68 563.599C295.93 561.569 296.681 559.64 297.86 558.001C299.27 556.263 296.32 552.132 296.32 552.132L298.89 545.202V537.595L304.89 509.999C304.89 509.999 311.18 477.856 309 467.335C306.82 456.815 311.57 451.466 311.57 451.466C311.142 451.701 310.702 451.909 310.25 452.091C310.851 450.646 311.369 449.166 311.8 447.658L325.3 449.396V449.604H330.17C330.17 449.604 328.63 429.833 328.63 421.862C328.63 413.891 333.82 385.286 333.82 385.286C333.82 385.286 336.13 357.325 333.82 356.524ZM273.89 333.444C273.89 334.224 273.82 335.036 273.77 335.868L273.5 336.295L273 335.858L272.39 336.846L272.21 336.94C270.89 336.233 270.21 332.185 269.26 333.059L269.13 333.173C268.92 332.924 268.71 332.851 268.49 333.059L268.29 333.236C268.29 332.934 268.29 332.622 268.29 332.31C270.12 332.799 272.001 333.048 273.89 333.048C273.9 333.184 273.89 333.319 273.89 333.444ZM318.79 425.514H319.08L318.6 426.825C318.66 426.388 318.72 425.962 318.79 425.514V425.514ZM269.5 661.487L267.66 661.008L268.66 660.831L269.59 661.466L269.7 661.549L269.5 661.487ZM288.3 658.688C287.69 658.355 287.07 657.97 286.47 657.574C286.67 657.689 287.46 658.115 288.3 658.688V658.688Z" fill="url(#paint1_linear)"/>
<path d="M325.43 405.858L313.32 438.699H316.26L304.87 448.147L325.43 450.811V405.858Z" fill="#F86D70"/>
<path opacity="0.1" d="M325.43 405.858L313.32 438.699L310.27 437.845L304.87 448.147L325.43 450.811V405.858Z" fill="black"/>
<path d="M306.44 426.867H325.43L332.4 367.19H306.44V426.867Z" fill="#F86D70"/>
<path opacity="0.1" d="M306.44 426.867H325.43L332.4 367.19H306.44V426.867Z" fill="black"/>
<path d="M269.35 381.321L273.45 380.603L282.87 378.938C282.87 378.938 311.16 372.299 317 371.758C320.538 371.272 323.988 370.248 327.24 368.719C328.77 368.033 329.74 367.512 329.74 367.512L319.55 348.147L303.74 335.952C303.74 335.952 293.74 333.735 289.51 327.679C288.566 326.376 287.952 324.847 287.723 323.233C287.494 321.618 287.658 319.97 288.2 318.439C290.78 310.114 272.79 326.399 272.79 326.399C272.79 326.399 272.96 330.301 272.79 335.275C272.79 336.253 272.7 337.273 272.63 338.314C272.63 339.001 272.54 339.687 272.47 340.395C272.03 345.338 271.13 350.426 269.35 353.465C265 360.894 269.35 381.321 269.35 381.321Z" fill="#FBBEBE"/>
<path opacity="0.1" d="M272.79 335.691H273.19C273.91 335.691 274.49 334.099 275.19 334.027C280.82 333.465 285.96 332.237 289.53 328.085C288.589 326.782 287.975 325.255 287.747 323.643C287.518 322.031 287.681 320.385 288.22 318.855C290.8 310.53 272.81 326.805 272.81 326.805C272.81 326.805 273 330.717 272.79 335.691Z" fill="black"/>
<path d="M250.89 312.091C250.888 315.087 251.454 318.054 252.556 320.822C253.657 323.59 255.271 326.105 257.307 328.223C259.343 330.341 261.76 332.021 264.42 333.167C267.08 334.313 269.931 334.902 272.81 334.901C273.53 334.901 274.24 334.901 274.95 334.797C279.173 334.365 283.186 332.668 286.5 329.91C289.815 327.151 292.288 323.451 293.621 319.258C294.954 315.066 295.088 310.56 294.008 306.29C292.927 302.019 290.679 298.167 287.535 295.2C284.391 292.233 280.488 290.28 276.298 289.577C272.108 288.874 267.812 289.452 263.932 291.241C260.052 293.029 256.754 295.952 254.439 299.653C252.123 303.354 250.891 307.675 250.89 312.091Z" fill="#FBBEBE"/>
<path d="M244.16 277.471C243.44 279.406 243.66 281.571 243.37 283.621C242.3 291.019 235.07 295.452 228.53 298.553C221.99 301.654 214.61 305.327 212.53 312.476C210.25 320.208 215.23 327.96 218.69 335.213C225.43 349.344 226.39 367.367 217.69 380.291C209.96 391.737 196.49 397.169 183.81 401.935C189.912 406.931 197.497 409.558 205.26 409.365C202.35 418.178 192 421.102 183.18 422.726C187.81 427.367 194.44 429.052 200.79 430.072C205.42 430.821 210.17 431.31 214.79 430.343C219.41 429.375 223.79 426.763 226.17 422.538C228.17 418.928 228.85 414.006 232.46 412.185C234.089 411.517 235.845 411.25 237.59 411.404L252.59 411.571C257.26 411.571 262.79 411.196 265.2 407.044C266.089 405.27 266.555 403.301 266.56 401.3C267.21 391.061 265.32 380.239 269.37 370.894C270.59 368.074 262.76 363.61 263.58 360.624C266.4 350.353 267.11 342.268 267.08 331.581C267.08 323.309 272.25 316.181 276.52 309.198C280.79 302.216 284.36 293.402 280.99 285.91C277.19 277.554 248.65 265.411 244.16 277.471Z" fill="#3F3D56"/>
<path d="M264.13 658.49L267.95 661.123L268.54 661.529L268.65 661.601L273.18 664.723L283.76 666.576L293.06 665.91C293.06 665.91 295.74 660.082 291.53 660.218C290.181 660.146 288.867 659.75 287.69 659.062L287.11 658.761C286.5 658.428 285.89 658.053 285.29 657.658C284.04 656.836 282.86 655.941 281.91 655.181C280.51 654.057 279.58 653.204 279.58 653.204L264.13 658.49Z" fill="#FBBEBE"/>
<path opacity="0.1" d="M268 661.123L268.59 661.529L268.7 661.601L273.23 664.723L283.81 666.576L293.11 665.91C293.11 665.91 295.79 660.082 291.58 660.218C290.232 660.146 288.917 659.75 287.74 659.062C288.48 659.666 289.1 660.322 289.16 660.873C289.33 662.361 282.28 665.035 282.28 665.035L272.34 662.299C272.34 662.299 270.65 661.799 268.34 661.175L268.12 661.112L268 661.123Z" fill="black"/>
<path d="M251 663.662C251 663.662 259.15 665.514 264.63 664.983C270.11 664.453 279.55 669.364 279.55 669.364C279.55 669.364 282.74 670.925 292.55 671.591C302.36 672.257 302.36 667.075 302.36 667.075C301.24 660.03 285.74 657.71 285.26 657.606C285.45 657.71 286.26 658.136 287.08 658.709C288.18 659.458 289.37 660.436 289.46 661.227C289.63 662.704 282.58 665.389 282.58 665.389L272.64 662.663C272.64 662.663 270.95 662.153 268.64 661.529H268.42C264.995 660.558 261.515 659.811 258 659.291C253.72 658.813 251.53 662.6 251.08 663.454C251.047 663.52 251.021 663.59 251 663.662V663.662Z" fill="#3F3D56"/>
<path d="M122.54 476.534L126.87 479.989C126.87 479.989 128.13 479.926 130.01 479.864H130.61C133.3 479.76 137.01 479.656 140.16 479.656C142.196 479.561 144.237 479.679 146.25 480.01C148.41 480.801 152.25 467.148 152.25 467.148L147.91 466.107L146.47 465.754L145.47 465.504L141.94 464.64L131.24 465.91L123.72 470.946L122.54 476.534Z" fill="#FBBEBE"/>
<path opacity="0.1" d="M122.54 476.534L126.87 479.989C126.87 479.989 128.13 479.926 130.01 479.864C129.147 479.518 128.436 478.855 128.01 478.001C125.21 469.916 139.1 466.461 139.1 466.461L145.57 466.17L146.83 466.107H147.83L146.39 465.754L145.39 465.504L141.86 464.64L131.16 465.91L123.64 470.946L122.54 476.534Z" fill="black"/>
<path d="M114 480.187C116.62 482.705 133.78 480.187 134.5 480.124C133.198 480.277 131.88 480.182 130.61 479.843C129.981 479.726 129.386 479.464 128.867 479.077C128.348 478.69 127.919 478.188 127.61 477.606C124.81 469.51 138.7 466.066 138.7 466.066L145.17 465.774L146.42 465.712L162.15 465.004L162.91 460.499C162.91 460.499 157.8 460.998 149.78 461.664C145.27 462.049 139.78 462.476 133.85 462.882C117.28 464.026 113.34 475.213 113.34 475.213C113.34 475.213 111.33 477.606 114 480.187Z" fill="#3F3D56"/>
<path d="M306.45 284.869C306.557 285.117 306.684 285.353 306.83 285.577L310.65 291.404L320.59 292.445L320.7 288.345L322.37 226.659C322.37 226.659 329.25 185.286 316.25 187.669C303.25 190.052 311.41 226.659 311.41 226.659C311.41 226.659 309.93 245.223 308.89 250.801C307.88 256.191 303.35 278.106 306.45 284.869Z" fill="#FBBEBE"/>
<path d="M284.14 438.085L286.97 443.121L293.3 454.391C293.3 454.391 304.78 458.771 307.72 455.431C309.33 453.61 311.07 447.252 312.29 441.904C313.29 437.575 313.96 433.922 313.96 433.922L284.14 438.085Z" fill="#FBBEBE"/>
<path opacity="0.1" d="M284.14 438.085L286.97 443.121C287.147 442.962 287.308 442.784 287.45 442.59C290.65 438.345 304.74 441.685 312.29 441.956C313.29 437.627 313.96 433.974 313.96 433.974L284.14 438.085Z" fill="black"/>
<path opacity="0.1" d="M140.16 479.635C142.196 479.54 144.237 479.658 146.25 479.989C148.41 480.78 152.25 467.127 152.25 467.127L146.47 465.712L162.2 465.004L162.96 460.499C162.96 460.499 157.85 460.998 149.83 461.664C148.173 462.657 146.694 463.942 145.46 465.462L145.22 465.775C141.87 470.051 140.63 475.566 140.16 479.635Z" fill="black"/>
<path opacity="0.1" d="M264.13 658.49L268.54 661.529C275.12 660.29 281.13 658.344 281.84 655.285C281.843 655.237 281.843 655.188 281.84 655.139C280.44 654.016 279.51 653.162 279.51 653.162L264.13 658.49Z" fill="black"/>
<path opacity="0.1" d="M251.09 663.485C256.901 663.184 262.69 662.538 268.43 661.549C265.002 660.571 261.518 659.817 258 659.291C253.73 658.813 251.54 662.6 251.09 663.485Z" fill="black"/>
<path d="M140.64 484.89C140.64 488.209 149.43 490.332 149.43 490.332L176.2 515.129C176.2 515.129 193.02 522.954 203.72 534.224C214.42 545.493 223.86 535.816 223.86 535.816C235.2 532.902 267.86 491.789 267.86 491.789C267.86 491.789 268.62 538.74 270.15 542.184C271.68 545.629 269.64 555.046 268.75 559.031C268.188 562.355 267.974 565.732 268.11 569.104C268.11 569.104 255.88 617.772 256.9 622.018C257.92 626.263 250.27 646.159 250.27 646.159V662.736C250.27 662.736 280.22 661.539 281.87 654.515C283.52 647.491 274.36 644.432 274.36 644.432V642.705C280.36 639.52 281.49 617.647 281.49 617.647C281.49 617.647 290.42 590.592 291.69 586.086C292.96 581.581 291.69 574.807 291.69 574.807L292.58 568.979C292.58 568.979 294.49 564.994 294.49 564.203C294.739 562.184 295.487 560.266 296.66 558.636C298.06 556.909 295.13 552.798 295.13 552.798L297.68 545.899V538.345L303.68 510.894C303.68 510.894 309.93 478.927 307.76 468.449C305.59 457.97 310.31 452.674 310.31 452.674C300.08 458.251 294.92 445.837 293.23 440.499C292.8 439.125 292.59 438.209 292.59 438.209C292.59 438.209 278.54 432.819 265.46 434.11C262.803 434.334 260.185 434.911 257.67 435.827C243.14 441.269 240.85 463.808 240.85 463.808L227.98 484.234C221.35 502.403 211.41 504.255 211.41 504.255C211.41 504.255 188.09 487.949 187.41 487.148C186.73 486.347 177.85 482.372 177.85 482.372C176.8 480.449 175.193 478.919 173.26 478.001C170.2 476.669 169.95 471.758 169.95 471.758C169.57 460.218 163.07 459.271 163.07 459.271C140.51 457.315 140.64 481.581 140.64 484.89Z" fill="#3F3D56"/>
<path d="M270.38 420.051H284.14V375.629H270.38V420.051Z" fill="#F86D70"/>
<path opacity="0.1" d="M270.38 420.051H284.14V375.629H270.38V420.051Z" fill="black"/>
<path opacity="0.1" d="M306.44 284.776C306.438 284.807 306.438 284.838 306.44 284.869C306.547 285.117 306.674 285.353 306.82 285.577L310.64 291.404L320.58 292.445L320.69 288.345C317.59 288.095 310.53 287.211 306.44 284.776Z" fill="black"/>
<path d="M306.83 285.577C306.83 285.577 307.34 308.907 301.73 312.091C296.12 315.275 293.94 331.862 293.94 331.862C293.94 331.862 310.94 343.496 314.73 348.616C318.52 353.735 327.22 365.931 325.43 368.844C323.64 371.758 329.77 385.025 329.77 385.025C329.77 385.025 318.55 408.896 321.1 417.918C323.65 426.94 323.9 450.801 323.9 450.801H328.75C328.75 450.801 327.22 431.175 327.22 423.215C327.22 415.254 332.31 386.878 332.31 386.878C332.31 386.878 334.61 359.032 332.31 358.241C330.01 357.45 316.51 346.305 315.49 341.259C314.47 336.212 322.63 289.23 322.63 289.23C322.63 289.23 312.18 288.761 306.83 285.577Z" fill="#F86D70"/>
<path opacity="0.1" d="M270.12 371.508C270.585 374.755 271.721 377.857 273.45 380.603L282.87 378.938C282.87 378.938 311.16 372.299 317 371.758C320.538 371.272 323.988 370.248 327.24 368.719C324.999 360.455 320.624 352.987 314.59 347.127L311 343.662C305.71 338.551 299.579 334.473 292.9 331.623C293.32 331.987 323 358.355 316.5 363.527C310 368.699 292.5 356.108 292.5 356.108L272.6 338.314L271.88 337.669L270.73 339.531C271.315 339.782 271.886 340.067 272.44 340.385C279.222 344.258 284.256 350.768 286.44 358.491C290.53 372.799 270.12 371.508 270.12 371.508Z" fill="black"/>
<path d="M264 437.814C264 437.814 282.86 448.688 287.44 442.59C288.44 441.248 290.55 440.665 293.18 440.509C292.75 439.136 292.54 438.22 292.54 438.22C292.54 438.22 278.49 432.83 265.41 434.12C264.55 436.368 264 437.814 264 437.814Z" fill="#444053"/>
<path d="M272.68 337.689L293.3 356.149C293.3 356.149 310.73 368.782 317.3 363.569C323.87 358.355 293.69 331.654 293.69 331.654C300.355 334.513 306.479 338.579 311.78 343.662L315.37 347.127C324.81 356.233 326.94 356.233 327.26 369.614C327.34 372.913 326.26 377.648 325.43 378.501C322.37 381.623 320.23 404.297 320.7 406.95C321.17 409.604 315 432.507 317 438.875C319 445.244 292 435.691 287.43 441.8C282.86 447.908 264 437.023 264 437.023C264 437.023 274.45 409.167 277 407.315C279.55 405.462 282.61 391.134 277 384.505C271.39 377.877 270.89 371.508 270.89 371.508C270.89 371.508 291.29 372.819 287.2 358.511C286.049 354.364 284.053 350.524 281.347 347.252C278.641 343.98 275.289 341.354 271.52 339.552L272.68 337.689Z" fill="#E8E8F0"/>
<path opacity="0.1" d="M300.2 384.64C300.2 384.64 292.29 400.155 282.06 404.183C281.73 404.307 281.41 404.422 281.06 404.526C270.38 407.908 301 389.448 300.2 384.64Z" fill="black"/>
<path d="M189.58 247.377C189.58 247.377 193.4 257.461 196.46 260.905C199.52 264.349 222.2 298.834 222.2 298.834L224.12 302.996L225.77 306.545L240.3 304.953L241.3 298.855L240.74 298.147C239.28 296.326 235.3 291.436 232.63 289.302C229.32 286.659 222.69 277.908 222.69 277.908C222.69 277.908 202.05 255.619 200.52 249.521C198.99 243.423 178.34 206.857 173.76 213.184C169.18 219.511 189.58 247.377 189.58 247.377Z" fill="#FBBEBE"/>
<g opacity="0.1">
<path opacity="0.1" d="M231.74 411.404C229.996 411.247 228.24 411.511 226.61 412.174C223.01 413.995 222.33 418.917 220.33 422.528C217.99 426.753 213.53 429.365 208.94 430.332C208.027 430.516 207.106 430.648 206.18 430.728C209.103 431.024 212.052 430.891 214.94 430.332C219.53 429.365 223.99 426.753 226.33 422.528C228.33 418.917 229.01 413.995 232.61 412.174C233.555 411.731 234.574 411.484 235.61 411.446L231.74 411.404Z" fill="black"/>
<path opacity="0.1" d="M267.259 331.581C267.259 323.309 272.429 316.181 276.689 309.198C280.949 302.216 284.529 293.402 281.159 285.91C278.279 279.51 260.919 270.926 250.899 272.622C260.709 273.943 272.799 280.666 275.159 285.91C278.529 293.402 274.949 302.216 270.689 309.198C266.429 316.181 261.239 323.309 261.259 331.581C261.259 342.258 260.569 350.312 257.749 360.624C256.939 363.589 264.749 368.074 263.549 370.884C259.489 380.249 261.389 391.05 260.739 401.29C260.726 403.29 260.256 405.259 259.369 407.034C257.369 410.457 253.269 411.342 249.279 411.529H252.769C257.429 411.529 262.959 411.154 265.369 407.002C266.256 405.228 266.726 403.259 266.739 401.258C267.389 391.019 265.489 380.208 269.549 370.853C270.769 368.043 262.939 363.569 263.749 360.593C266.569 350.353 267.279 342.258 267.259 331.581Z" fill="black"/>
</g>
<path opacity="0.1" d="M224.12 302.976L225.77 306.524L240.3 304.932L241.3 298.834L240.74 298.126C239.19 298.917 227.58 304.734 224.12 302.976Z" fill="black"/>
<path opacity="0.1" d="M277.77 342.861C277.77 342.861 274.2 337.034 272.16 338.615C270.12 340.197 269.33 333.839 268.16 334.901C266.99 335.962 263.58 338.917 262.16 334.786C261.05 331.498 248.97 310.697 244.07 302.33C242.81 300.166 242.02 298.834 242.02 298.834C242.02 298.834 228.26 305.993 224.95 303.61V308.647L227.75 308.917L242.75 338.054C242.75 338.054 247.47 345.868 247.15 348.595C246.83 351.321 253.2 363.256 254.22 364.047C255.24 364.838 266.22 378.106 266.22 378.106C266.22 378.106 271.83 406.753 266.98 414.713C262.13 422.674 253.73 428.501 253.73 428.501C253.73 428.501 251.2 436.191 251.57 436.992C251.94 437.793 248.63 441.238 250.16 442.299C251.69 443.36 253.73 450.78 253.73 450.78C253.73 450.78 260.87 438.844 264.73 436.992C268.59 435.14 273.53 410.728 273.53 410.728C273.53 410.728 274.94 396.347 275.05 387.065C275.16 377.783 274.71 342.861 277.77 342.861Z" fill="black"/>
<path d="M277 342.861C277 342.861 273.44 337.034 271.4 338.616C269.36 340.197 268.56 333.839 267.4 334.901C266.24 335.962 262.83 338.917 261.4 334.786C260.28 331.498 248.2 310.697 243.31 302.33L241.26 298.834C241.26 298.834 227.5 305.993 224.18 303.61V308.647L226.99 308.917L241.99 338.054C241.99 338.054 246.72 345.868 246.39 348.595C246.06 351.321 252.39 363.256 253.46 364.047C254.53 364.838 265.46 378.106 265.46 378.106C265.46 378.106 271.07 406.753 266.23 414.713C263.673 418.712 260.563 422.295 257 425.348C254.007 427.917 251.9 431.431 251 435.358C250.826 435.894 250.765 436.461 250.82 437.023C251.19 437.814 247.88 441.269 249.41 442.33C250.94 443.392 253 450.842 253 450.842C253 450.842 260.14 438.907 264 437.054C267.86 435.202 272.81 410.79 272.81 410.79C272.81 410.79 274.21 396.409 274.33 387.127C274.45 377.845 274 342.861 277 342.861Z" fill="#F86D70"/>
<path opacity="0.1" d="M242.08 463.548C242.08 463.548 252.79 465.629 257.08 468.844C261.37 472.06 240.77 463.808 240.77 463.808L242.08 463.548Z" fill="black"/>
<path opacity="0.1" d="M267.83 491.789C267.83 491.789 279 501.477 277 510.228C275 518.979 269.84 540.998 269.84 540.998L267.83 491.789Z" fill="black"/>
<path opacity="0.1" d="M170.14 473.163C170.14 473.163 154.4 474.952 155.42 477.075C156.44 479.198 170.14 475.119 170.14 475.119V473.163Z" fill="black"/>
<path opacity="0.1" d="M291 553.724C291 553.724 292 555.046 286.16 553.724C280.32 552.403 284.63 548.324 284.63 548.324L291 553.724Z" fill="black"/>
<path opacity="0.1" d="M289 572.028C289 572.028 281 573.35 276.71 572.028C272.42 570.707 289 572.028 289 572.028Z" fill="black"/>
<path opacity="0.1" d="M272.54 643.641C272.54 643.641 271.14 642.049 264.13 644.963C257.12 647.876 254.32 648.011 252.28 647.044C250.24 646.076 272.54 643.641 272.54 643.641Z" fill="black"/>
<path opacity="0.1" d="M280.32 470.905L270.38 485.296C270.38 485.296 275.73 472.694 280.32 470.905Z" fill="black"/>
<path opacity="0.1" d="M261 338.616C261 338.616 260.57 343.392 254.16 345.254C247.75 347.117 246.53 348.626 246.53 348.626" fill="black"/>
<path opacity="0.1" d="M244.34 303.995C244.34 303.995 235.88 310.239 227.05 308.917Z" fill="black"/>
<path opacity="0.1" d="M250.78 437.679C250.78 437.679 253.25 439.292 259.18 432.237Z" fill="black"/>
<path opacity="0.1" d="M312.37 362.871C312.61 361.581 311.75 360.384 310.94 359.375L309.28 357.294C308.956 356.868 308.591 356.478 308.19 356.129C307.19 355.327 305.91 355.088 304.87 354.37" fill="black"/>
<path opacity="0.1" d="M849.29 0.114448C849.29 0.114448 765.1 -5.1717 775 56.2226C775 56.2226 773 67.0758 782.48 71.9978C782.48 71.9978 782.63 67.4505 791.12 69.0009C794.142 69.5223 797.213 69.6759 800.27 69.4588C804.399 69.1621 808.324 67.4745 811.45 64.6513V64.6513C811.45 64.6513 835.12 54.4744 844.32 14.2247C844.32 14.2247 851.13 5.44223 850.86 3.18417L836.65 9.50049C836.65 9.50049 841.51 20.1664 837.65 29.0322C837.65 29.0322 837.19 9.88551 834.46 10.3017C833.91 10.3954 827.08 13.9958 827.08 13.9958C827.08 13.9958 835.43 32.5702 829.13 46.0769C829.13 46.0769 831.52 23.1841 824.47 15.3381L814.47 21.4152C814.47 21.4152 824.23 40.6035 817.61 56.2642C817.61 56.2642 819.31 32.2476 812.36 22.8928L803.3 30.2497C803.3 30.2497 812.47 49.1674 806.88 62.1539C806.88 62.1539 806.15 34.1935 801.34 32.0811C801.34 32.0811 793.41 39.3652 792.2 42.3412C792.2 42.3412 798.48 56.0769 794.58 63.3193C794.58 63.3193 792.19 44.6929 790.23 44.5889C790.23 44.5889 782.33 56.9302 781.51 65.4005C781.51 65.4005 781.85 52.8199 788.32 43.4234C788.32 43.4234 780.68 44.7866 776.22 49.9375C776.22 49.9375 777.45 41.2174 790.27 40.4578C790.27 40.4578 796.8 31.0926 798.54 30.5202C798.54 30.5202 785.8 29.4172 778.07 32.976C778.07 32.976 784.87 24.745 800.88 28.4911L809.83 20.8844C809.83 20.8844 793.05 18.5015 785.93 21.1342C785.93 21.1342 794.12 13.8501 812.24 19.1571L821.98 13.1009C821.98 13.1009 807.67 9.89591 799.15 11.0197C799.15 11.0197 808.15 5.97293 824.84 11.4464L831.84 8.18936C831.84 8.18936 821.36 6.04576 818.29 5.70237C815.22 5.35898 815.06 4.48489 815.06 4.48489C821.699 3.33282 828.516 4.12175 834.75 6.76377C834.75 6.76377 849.55 1.08219 849.29 0.114448Z" fill="#6C63FF"/>
<path opacity="0.1" d="M745.45 15.7336C745.45 15.7336 707.45 13.3403 711.9 41.0821C711.9 41.0821 711.01 45.9937 715.27 48.2205C715.27 48.2205 715.339 46.1394 719.179 46.8574C720.543 47.0962 721.93 47.1661 723.309 47.0655C725.176 46.9335 726.949 46.1697 728.359 44.8907V44.8907C728.359 44.8907 739.059 40.3017 743.219 22.1124C743.219 22.1124 746.289 18.1373 746.169 17.1176L739.749 19.9687C739.749 19.9687 741.949 24.797 740.219 28.8033C740.219 28.8033 740.01 20.1457 738.78 20.3538C738.53 20.3538 735.44 22.0187 735.44 22.0187C735.44 22.0187 739.219 30.4162 736.369 36.5244C736.369 36.5244 737.45 26.181 734.26 22.6326L729.739 25.3798C729.739 25.3798 734.159 34.0478 731.159 41.1238C731.159 41.1238 731.929 30.2705 728.789 26.0458L724.7 29.4068C724.7 29.4068 728.84 37.9604 726.32 43.8189C726.32 43.8189 725.989 31.1862 723.809 30.2393C723.809 30.2393 720.229 33.5275 719.679 34.8803C719.679 34.8803 722.52 41.1238 720.76 44.3496C720.76 44.3496 719.68 35.9313 718.76 35.9001C718.76 35.9001 715.2 41.4776 714.82 45.2653C714.998 41.7303 716.059 38.305 717.9 35.3277C715.839 35.7338 713.938 36.7573 712.429 38.2726C712.429 38.2726 712.99 34.3392 718.78 33.9854C718.78 33.9854 721.78 29.7606 722.52 29.5005C722.52 29.5005 716.76 29.001 713.27 30.6139C713.27 30.6139 716.34 26.8886 723.58 28.5327L727.58 25.0988C727.58 25.0988 720 24.0582 716.78 25.2133C716.78 25.2133 720.479 21.925 728.669 24.3184L733.07 21.5816C733.07 21.5816 726.609 20.1248 722.749 20.6555C722.749 20.6555 726.819 18.3663 734.359 20.8428L737.51 19.3756C737.51 19.3756 732.77 18.3975 731.38 18.2518C729.99 18.1061 729.919 17.7003 729.919 17.7003C732.921 17.1806 736.003 17.5409 738.82 18.7409C738.82 18.7409 745.57 16.1706 745.45 15.7336Z" fill="#6C63FF"/>
<path d="M878.19 677.169C900.398 677.169 918.401 674.001 918.401 670.093C918.401 666.185 900.398 663.017 878.19 663.017C855.983 663.017 837.98 666.185 837.98 670.093C837.98 674.001 855.983 677.169 878.19 677.169Z" fill="#6C63FF"/>
<path d="M894.82 658.521C896.656 656.965 897.992 654.863 898.65 652.496C899.15 650.113 898.17 647.294 895.97 646.367C893.51 645.389 890.88 647.169 888.89 648.958C886.9 650.748 884.61 652.798 882.01 652.413C883.35 651.147 884.352 649.541 884.92 647.752C885.488 645.964 885.601 644.053 885.25 642.205C885.136 641.439 884.825 640.72 884.35 640.124C882.98 638.605 880.51 639.25 878.87 640.446C873.67 644.255 872.22 651.612 872.19 658.22C871.67 655.837 872.11 653.35 872.1 650.935C872.09 648.521 871.44 645.733 869.45 644.453C868.223 643.766 866.843 643.428 865.45 643.475C863.12 643.381 860.51 643.631 858.92 645.41C856.92 647.616 857.45 651.321 859.17 653.735C860.89 656.149 863.52 657.699 865.94 659.375C867.876 660.576 869.527 662.215 870.77 664.172C870.92 664.445 871.04 664.735 871.13 665.035H885.79C889.069 663.298 892.106 661.107 894.82 658.521V658.521Z" fill="#6C63FF"/>
<circle cx="528" cy="331" r="60" fill="#DAD9E7"/>
<path d="M531.488 357H521.328V317.836L509.199 321.598V313.336L530.398 305.742H531.488V357Z" fill="#D2A600"/>
</g>
<defs>
<linearGradient id="paint0_linear" x1="770.51" y1="525.421" x2="770.51" y2="106.795" gradientUnits="userSpaceOnUse">
<stop stop-color="#808080" stop-opacity="0.25"/>
<stop offset="0.54" stop-color="#808080" stop-opacity="0.12"/>
<stop offset="1" stop-color="#808080" stop-opacity="0.1"/>
</linearGradient>
<linearGradient id="paint1_linear" x1="39813.4" y1="260754" x2="89204.9" y2="260754" gradientUnits="userSpaceOnUse">
<stop stop-color="#808080" stop-opacity="0.25"/>
<stop offset="0.54" stop-color="#808080" stop-opacity="0.12"/>
<stop offset="1" stop-color="#808080" stop-opacity="0.1"/>
</linearGradient>
<clipPath id="clip0">
<rect width="1048" height="679" fill="white"/>
</clipPath>
</defs>
</svg>
