<svg width="1160" height="710" viewBox="0 0 1160 710" fill="none" xmlns="http://www.w3.org/2000/svg">
<g clip-path="url(#clip0)">
<path d="M624.726 694.895L609.424 555.229L609.412 555.013C609.416 550.979 610.778 547.111 613.201 544.258C615.623 541.406 618.907 539.801 622.333 539.796H771.64C775.065 539.801 778.349 541.406 780.772 544.258C783.194 547.111 784.556 550.979 784.56 555.013L773.427 656.674L769.246 694.895C769.217 698.91 767.844 702.749 765.424 705.578C763.005 708.406 759.735 709.995 756.326 710H637.646C634.237 709.995 630.967 708.406 628.548 705.578C626.128 702.749 624.755 698.91 624.726 694.895ZM771.64 543.178H622.333C619.684 543.181 617.143 544.415 615.261 546.611C613.38 548.807 612.31 551.789 612.284 554.908L623.393 656.243L627.585 694.565L627.597 694.783C627.6 697.921 628.66 700.929 630.544 703.148C632.428 705.367 634.982 706.615 637.646 706.618H756.326C758.99 706.615 761.545 705.367 763.429 703.148C765.313 700.929 766.372 697.921 766.375 694.783L781.689 554.908C781.662 551.789 780.592 548.807 778.711 546.611C776.829 544.415 774.288 543.181 771.64 543.178V543.178Z" fill="#3F3D56"/>
<path d="M696.986 582.066C741.388 582.066 777.382 575.001 777.382 566.285C777.382 557.57 741.388 550.505 696.986 550.505C652.584 550.505 616.59 557.57 616.59 566.285C616.59 575.001 652.584 582.066 696.986 582.066Z" fill="#F2F2F2"/>
<path d="M690.026 559.184C701.136 527.1 706.798 492.762 706.693 458.113C706.667 423.451 701.096 389.105 690.272 356.872C684.178 338.803 676.372 321.602 667.002 305.596C665.692 303.359 668.791 301.25 670.09 303.47C686.971 332.531 698.83 365.221 704.993 399.675C711.212 433.941 711.921 469.277 707.085 503.851C704.367 523.211 699.801 542.149 693.475 560.303C692.612 562.776 689.15 561.693 690.026 559.184V559.184Z" fill="#CCCCCC"/>
<path d="M704.872 405.321C709.75 399.097 711.08 390.432 711.041 382.223C710.996 372.475 708.961 362.929 708.571 353.208C708.223 344.51 709.342 335.713 713.658 328.442C717.372 322.183 723.23 317.365 729.953 317.809C744.292 318.755 750.967 338.178 753.037 352.359C755.831 370.791 753.049 389.794 745.176 406.061C737.303 422.328 724.837 434.829 709.946 441.39C707.794 442.357 706.863 438.286 708.996 437.329C722.141 431.432 733.287 420.633 740.734 406.579C748.181 392.525 751.519 375.988 750.24 359.49C749.798 351.361 747.992 343.416 744.924 336.114C742.172 329.988 737.893 323.904 731.884 322.336C725.966 320.792 720.414 324.658 716.992 330.161C712.678 337.098 711.778 345.485 712.177 353.875C713.03 371.807 719.194 393.251 707.402 408.299C705.837 410.296 703.313 407.311 704.872 405.321V405.321Z" fill="#CCCCCC"/>
<path d="M702.085 482.452C689.959 473.133 688.749 454.906 687.22 439.555C686.354 430.864 685.1 421.626 680.571 414.419C676.845 408.49 670.533 403.397 663.993 404.776C658.228 405.992 654.331 411.598 652.21 417.694C649.982 424.759 649.123 432.322 649.697 439.828C650.586 456.925 656.266 473.192 665.846 486.079C670.544 492.633 676.081 498.284 682.256 502.831C688.59 507.31 695.661 510.148 702.999 511.157C705.257 511.472 705.284 515.687 702.999 515.369C696.037 514.46 689.28 512.033 683.072 508.214C677.018 504.322 671.515 499.346 666.761 493.462C655.894 480.663 648.837 464.065 646.645 446.15C645.549 437.99 645.794 429.659 647.366 421.609C648.894 414.596 651.946 407.563 657.214 403.497C660.041 401.446 663.305 400.386 666.625 400.44C669.945 400.493 673.184 401.659 675.962 403.799C682.384 408.404 686.432 416.061 688.483 424.424C691.001 434.689 690.824 445.494 692.682 455.901C694.241 464.638 697.29 473.742 703.89 478.815C705.811 480.291 704.02 483.939 702.085 482.452V482.452Z" fill="#CCCCCC"/>
<path d="M587.902 238.906C587.902 224.861 591.438 211.132 598.063 199.454C604.689 187.776 614.106 178.674 625.124 173.3C636.142 167.925 648.266 166.519 659.962 169.259C671.658 171.999 682.402 178.762 690.835 188.693C699.268 198.624 705.01 211.277 707.337 225.052C709.664 238.827 708.47 253.105 703.906 266.081C699.342 279.057 691.614 290.147 681.698 297.95C671.782 305.753 660.124 309.918 648.199 309.918C632.212 309.897 616.886 302.408 605.582 289.095C594.278 275.783 587.92 257.733 587.902 238.906V238.906ZM590.773 238.906C590.773 252.282 594.141 265.358 600.451 276.479C606.761 287.601 615.73 296.27 626.223 301.388C636.716 306.507 648.262 307.846 659.402 305.237C670.541 302.627 680.774 296.186 688.805 286.728C696.836 277.27 702.305 265.219 704.521 252.1C706.737 238.981 705.599 225.383 701.253 213.025C696.907 200.667 689.546 190.105 680.103 182.673C670.659 175.242 659.556 171.276 648.199 171.276C632.974 171.296 618.377 178.428 607.611 191.107C596.846 203.785 590.79 220.976 590.773 238.906V238.906Z" fill="#3F3D56"/>
<path d="M613.744 219.459L606.565 217.768C606.565 217.768 612.595 225.715 613.744 226.222C613.851 227.91 613.851 229.606 613.744 231.294C627.526 300.953 678.348 270.182 678.348 270.182C659.828 270.689 658.249 261.728 658.249 261.728C669.016 259.868 671.169 251.583 671.169 251.583C670.203 252.183 669.083 252.343 668.024 252.031C666.964 251.719 666.039 250.957 665.427 249.892C677.055 246.342 675.476 232.985 675.476 232.985C673.404 234.747 670.981 235.853 668.442 236.197C669.734 234.337 680.645 218.952 674.041 211.005C674.041 211.005 666.001 227.913 644.897 229.434L643.461 229.096C643.705 227.878 643.802 226.626 643.749 225.376C643.749 220.668 642.16 216.153 639.333 212.823C636.506 209.494 632.672 207.624 628.674 207.624C618.625 207.624 616.471 214.387 616.471 214.387L609.293 209.314C609.437 209.314 610.155 217.768 613.744 219.459Z" fill="white"/>
<path d="M999.907 710H910.897C908.249 709.997 905.71 708.764 903.828 706.57C901.947 704.376 900.876 701.397 900.848 698.279L889.362 593.338C889.365 590.2 890.425 587.192 892.309 584.973C894.193 582.754 896.747 581.506 899.412 581.503H1011.39C1014.06 581.506 1016.61 582.754 1018.49 584.973C1020.38 587.192 1021.44 590.2 1021.44 593.338L1021.43 593.554L1009.96 698.279C1009.93 701.397 1008.86 704.376 1006.98 706.57C1005.09 708.764 1002.55 709.997 999.907 710V710ZM892.234 593.234L903.719 698.165C903.721 700.406 904.478 702.555 905.824 704.14C907.169 705.725 908.994 706.616 910.897 706.619H999.907C1001.81 706.616 1003.63 705.725 1004.98 704.14C1006.33 702.555 1007.08 700.406 1007.09 698.165L1007.1 697.947L1018.57 593.234C1018.54 591.011 1017.78 588.889 1016.43 587.326C1015.09 585.764 1013.28 584.887 1011.39 584.884H899.412C897.524 584.887 895.713 585.764 894.37 587.326C893.027 588.889 892.26 591.011 892.234 593.234V593.234Z" fill="#3F3D56"/>
<path d="M955.402 613.627C988.703 613.627 1015.7 608.328 1015.7 601.791C1015.7 595.255 988.703 589.956 955.402 589.956C922.101 589.956 895.105 595.255 895.105 601.791C895.105 608.328 922.101 613.627 955.402 613.627Z" fill="#F2F2F2"/>
<path d="M957.037 589.667C948.287 564.393 943.82 537.345 943.891 510.05C943.911 482.744 948.298 455.687 956.822 430.293C961.627 416.064 967.779 402.518 975.161 389.911C976.736 387.216 973.005 384.677 971.442 387.351C958.093 410.349 948.703 436.207 943.806 463.461C938.867 490.606 938.279 518.598 942.072 545.998C944.217 561.437 947.845 576.54 952.884 591.016C953.923 593.994 958.091 592.69 957.037 589.667V589.667Z" fill="#CCCCCC"/>
<path d="M945.113 467.675C936.319 456.32 942.294 438.693 942.453 425.334C942.752 418.556 941.112 411.856 937.796 406.305C934.698 401.466 929.987 397.868 924.671 398.262C913.047 399.124 907.531 414.516 905.819 426.127C903.543 440.928 905.757 456.201 912.076 469.274C918.394 482.347 928.414 492.387 940.383 497.64C942.973 498.809 944.094 493.907 941.528 492.749C931.316 488.148 922.659 479.747 916.871 468.823C911.084 457.899 908.482 445.048 909.462 432.224C909.793 425.814 911.226 419.551 913.674 413.813C915.804 409.158 919.121 404.44 923.781 403.462C928.403 402.493 932.536 405.943 934.953 410.328C938.032 415.914 938.419 422.433 938.002 428.923C937.093 443.082 932.895 459.417 942.068 471.261C943.939 473.679 946.978 470.083 945.113 467.675V467.675Z" fill="#CCCCCC"/>
<path d="M947.166 530.005C956.382 522.838 957.946 509.427 959.072 497.525C959.73 490.575 960.433 483.088 963.749 477.089C966.383 472.324 971.059 468.021 976.141 468.616C986.298 469.804 987.881 486.102 987.47 495.319C986.822 508.659 982.422 521.365 974.964 531.433C967.356 541.717 957.779 549.409 946.07 551.069C943.353 551.454 943.32 556.531 946.07 556.141C969.451 552.826 988.058 528.124 991.279 501.192C992.684 489.447 992.054 473.628 982.799 466.229C980.577 464.554 978.008 463.629 975.37 463.555C972.732 463.482 970.128 464.263 967.842 465.813C962.723 469.312 958.928 474.975 957.227 481.651C954.901 489.896 955.055 498.685 953.663 507.145C952.514 514.13 950.253 521.534 944.992 525.626C942.689 527.417 944.844 531.811 947.166 530.005H947.166Z" fill="#CCCCCC"/>
<path d="M985.526 389.947C973.6 389.947 961.942 385.783 952.027 377.98C942.111 370.177 934.382 359.086 929.819 346.111C925.255 333.135 924.061 318.857 926.387 305.082C928.714 291.307 934.457 278.654 942.889 268.723C951.322 258.791 962.066 252.028 973.763 249.288C985.459 246.548 997.583 247.954 1008.6 253.329C1019.62 258.704 1029.04 267.806 1035.66 279.484C1042.29 291.161 1045.82 304.891 1045.82 318.936C1045.8 337.763 1039.45 355.812 1028.14 369.125C1016.84 382.438 1001.51 389.926 985.526 389.947V389.947ZM985.526 251.305C974.168 251.305 963.065 255.272 953.622 262.703C944.178 270.134 936.818 280.697 932.471 293.055C928.125 305.412 926.988 319.011 929.204 332.13C931.419 345.249 936.889 357.299 944.92 366.757C952.951 376.216 963.183 382.657 974.323 385.266C985.462 387.876 997.009 386.537 1007.5 381.418C1017.99 376.299 1026.96 367.631 1033.27 356.509C1039.58 345.387 1042.95 332.312 1042.95 318.936C1042.93 301.005 1036.88 283.815 1026.11 271.136C1015.35 258.457 1000.75 251.325 985.526 251.305V251.305Z" fill="#3F3D56"/>
<path fill-rule="evenodd" clip-rule="evenodd" d="M1024.94 319.215C1024.94 310.344 1022.78 301.659 1018.72 294.188C1014.66 286.718 1008.86 280.774 1002.02 277.062C995.18 273.349 987.579 272.023 980.118 273.24C972.656 274.457 965.648 278.167 959.921 283.929C954.194 289.692 949.989 297.266 947.804 305.756C945.618 314.245 945.544 323.295 947.59 331.832C949.636 340.37 953.717 348.038 959.348 353.93C964.98 359.821 971.927 363.689 979.367 365.075V332.638H969.356V319.215H979.367V308.985C979.367 297.353 985.253 290.922 994.255 290.922C997.212 290.971 1000.16 291.274 1003.08 291.83V303.255H998.107C993.214 303.255 991.683 306.832 991.683 310.508V319.217H1002.61L1000.87 332.64H991.683V365.079C1000.96 363.349 1009.4 357.78 1015.5 349.372C1021.59 340.965 1024.94 330.271 1024.94 319.215V319.215Z" fill="white"/>
<path d="M1160 708.309C1160 708.757 1159.85 709.186 1159.58 709.503C1159.31 709.82 1158.94 709.999 1158.56 710H1.43564C1.05489 710 0.689725 709.822 0.420489 709.505C0.151254 709.188 0 708.758 0 708.309C0 707.861 0.151254 707.431 0.420489 707.114C0.689725 706.796 1.05489 706.618 1.43564 706.618H1158.56C1158.94 706.62 1159.31 706.798 1159.58 707.115C1159.85 707.432 1160 707.861 1160 708.309V708.309Z" fill="#3F3D56"/>
<path d="M274.907 710H185.897C183.249 709.997 180.71 708.764 178.828 706.57C176.947 704.376 175.876 701.397 175.848 698.279L164.362 593.338C164.365 590.2 165.425 587.192 167.309 584.973C169.193 582.754 171.747 581.506 174.412 581.503H286.392C289.056 581.506 291.611 582.754 293.495 584.973C295.379 587.192 296.439 590.2 296.442 593.338L296.43 593.554L284.956 698.279C284.928 701.397 283.857 704.376 281.976 706.57C280.094 708.764 277.555 709.997 274.907 710ZM167.234 593.234L178.719 698.165C178.721 700.406 179.478 702.555 180.824 704.14C182.169 705.725 183.994 706.616 185.897 706.619H274.907C276.81 706.616 278.635 705.725 279.98 704.14C281.326 702.555 282.083 700.406 282.085 698.165L282.097 697.947L293.57 593.234C293.544 591.011 292.777 588.889 291.434 587.326C290.091 585.764 288.28 584.887 286.392 584.884H174.412C172.524 584.887 170.713 585.764 169.37 587.326C168.027 588.889 167.26 591.011 167.234 593.234V593.234Z" fill="#3F3D56"/>
<path d="M230.402 613.627C263.703 613.627 290.699 608.328 290.699 601.791C290.699 595.255 263.703 589.956 230.402 589.956C197.101 589.956 170.105 595.255 170.105 601.791C170.105 608.328 197.101 613.627 230.402 613.627Z" fill="#F2F2F2"/>
<path d="M228.613 596.088C237.519 570.273 242.037 542.65 241.912 514.785C241.872 487.023 237.398 459.518 228.722 433.704C223.829 419.166 217.567 405.32 210.055 392.424C208.493 389.753 204.759 392.286 206.336 394.984C219.429 417.516 228.65 442.848 233.478 469.552C238.381 496.241 238.942 523.784 235.131 550.72C232.97 565.813 229.391 580.578 224.46 594.74C223.408 597.757 227.572 599.071 228.613 596.088V596.088Z" fill="#CCCCCC"/>
<path d="M239.43 476.334C247.205 466.295 245.423 452.291 244.048 439.991C243.289 433.207 242.616 425.875 244.793 419.346C246.434 414.425 249.84 409.55 254.457 408.544C259.112 407.53 263.247 411.023 265.882 415.235C268.821 420.308 270.733 426.108 271.47 432.188C273.525 445.736 271.503 459.703 265.753 471.683C260.003 483.664 250.885 492.907 239.97 497.821C237.408 498.978 238.52 503.884 241.115 502.712C251.824 497.893 261.012 489.306 267.43 478.12C274.333 465.872 277.46 451.205 276.287 436.57C275.313 424.474 271.402 408.598 260.493 404.154C249.317 399.601 240.579 412.823 239.319 424.508C238.339 433.594 240.393 442.506 240.926 451.527C241.361 458.88 240.797 467.05 236.385 472.747C234.52 475.155 237.557 478.752 239.43 476.334Z" fill="#CCCCCC"/>
<path d="M236.504 530.698C226.097 522.604 227.623 504.727 225.476 492.169C224.287 485.214 221.862 478.459 217.176 473.777C213.034 469.637 207.417 467.238 202.064 469.37C191.444 473.6 189.174 489.298 189.736 500.739C190.492 515.288 195.329 529.13 203.488 540.091C211.916 551.486 222.548 559.387 235.426 561.213C238.172 561.602 238.148 556.527 235.426 556.141C214.074 553.114 197.299 529.566 194.413 505.252C193.573 499.209 193.759 493.03 194.957 487.072C196.06 482.208 198.216 477.045 202.239 474.738C206.858 472.089 211.945 474.67 215.332 478.669C219.46 483.544 220.964 490.241 221.818 496.864C223.565 510.42 223.443 526.61 234.331 535.078C236.65 536.881 238.81 532.491 236.504 530.698V530.698Z" fill="#CCCCCC"/>
<path d="M202.797 393.748C190.871 393.748 179.213 389.584 169.298 381.781C159.382 373.978 151.653 362.887 147.09 349.912C142.526 336.936 141.332 322.658 143.659 308.883C145.985 295.108 151.728 282.455 160.16 272.524C168.593 262.592 179.337 255.829 191.034 253.089C202.73 250.349 214.854 251.755 225.872 257.13C236.889 262.505 246.307 271.607 252.932 283.284C259.558 294.962 263.094 308.692 263.094 322.736C263.076 341.563 256.717 359.613 245.413 372.926C234.109 386.239 218.783 393.727 202.797 393.748V393.748ZM202.797 255.106C191.439 255.106 180.336 259.073 170.893 266.504C161.449 273.935 154.089 284.498 149.742 296.855C145.396 309.213 144.259 322.812 146.475 335.931C148.69 349.05 154.16 361.1 162.191 370.558C170.222 380.017 180.454 386.458 191.594 389.067C202.733 391.677 214.28 390.338 224.773 385.219C235.266 380.1 244.235 371.432 250.545 360.31C256.855 349.188 260.223 336.113 260.223 322.736C260.205 304.806 254.15 287.616 243.384 274.937C232.618 262.258 218.022 255.126 202.797 255.106V255.106Z" fill="#3F3D56"/>
<path d="M219.22 287.607C223.236 287.621 227.085 289.507 229.925 292.852C232.765 296.196 234.366 300.729 234.378 305.459V341.159C234.366 345.889 232.765 350.422 229.925 353.767C227.085 357.111 223.236 358.997 219.22 359.011H188.906C184.89 358.997 181.041 357.111 178.201 353.767C175.361 350.422 173.76 345.889 173.748 341.159V305.459C173.76 300.729 175.361 296.196 178.201 292.852C181.041 289.507 184.89 287.621 188.906 287.607H219.22L219.22 287.607ZM219.22 280.468H188.906C183.283 280.487 177.895 283.126 173.919 287.809C169.943 292.491 167.702 298.837 167.686 305.459V341.159C167.702 347.781 169.943 354.127 173.919 358.809C177.895 363.492 183.283 366.131 188.906 366.15H219.22C224.843 366.131 230.231 363.492 234.207 358.809C238.183 354.127 240.424 347.781 240.44 341.159V305.459C240.424 298.837 238.183 292.491 234.207 287.809C230.231 283.126 224.843 280.487 219.22 280.468L219.22 280.468Z" fill="white"/>
<path d="M223.767 305.459C222.564 305.456 221.412 304.891 220.563 303.888C219.714 302.885 219.238 301.526 219.239 300.11C219.24 298.693 219.719 297.336 220.57 296.335C221.421 295.334 222.574 294.772 223.777 294.772C224.979 294.772 226.132 295.334 226.983 296.335C227.834 297.336 228.313 298.693 228.314 300.11C228.315 301.526 227.839 302.885 226.99 303.888C226.141 304.891 224.989 305.456 223.786 305.459C223.78 305.459 223.773 305.459 223.767 305.459Z" fill="#048CC9"/>
<path d="M204.063 309.028C206.461 309.028 208.806 309.865 210.8 311.435C212.794 313.004 214.348 315.234 215.266 317.844C216.184 320.453 216.424 323.325 215.956 326.095C215.488 328.865 214.333 331.41 212.637 333.407C210.941 335.404 208.781 336.765 206.428 337.316C204.076 337.867 201.638 337.584 199.422 336.503C197.206 335.422 195.313 333.592 193.98 331.243C192.648 328.895 191.936 326.134 191.936 323.309C191.936 321.434 192.25 319.577 192.86 317.844C193.469 316.111 194.362 314.537 195.488 313.211C196.614 311.885 197.951 310.833 199.422 310.115C200.893 309.397 202.47 309.028 204.063 309.028V309.028ZM204.063 301.888C200.465 301.888 196.949 303.145 193.958 305.498C190.967 307.852 188.635 311.197 187.259 315.112C185.882 319.026 185.522 323.333 186.224 327.488C186.925 331.643 188.658 335.46 191.201 338.456C193.745 341.451 196.986 343.492 200.514 344.318C204.043 345.145 207.7 344.72 211.023 343.099C214.347 341.478 217.187 338.732 219.186 335.21C221.185 331.687 222.251 327.546 222.251 323.309C222.251 320.496 221.781 317.71 220.867 315.112C219.953 312.513 218.613 310.151 216.924 308.162C215.235 306.173 213.23 304.595 211.023 303.519C208.817 302.442 206.451 301.888 204.063 301.888V301.888Z" fill="white"/>
<path d="M547.329 688.137L564.155 682.055L552.245 602.728L527.411 611.703L547.329 688.137Z" fill="#FFB8B8"/>
<path d="M601.4 688.728L548.518 707.841L542.248 683.779L574.698 672.05C580.117 670.092 585.974 670.749 590.982 673.876C595.99 677.004 599.737 682.346 601.4 688.728V688.728L601.4 688.728Z" fill="#2F2E41"/>
<path d="M403.768 688.594L421.367 688.592L429.741 608.639L403.763 608.641L403.768 688.594Z" fill="#FFB8B8"/>
<path d="M455.313 707.838L399.996 707.841L399.995 682.671L433.94 682.669C439.608 682.669 445.044 685.32 449.052 690.04C453.061 694.76 455.312 701.162 455.313 707.838V707.838V707.838Z" fill="#2F2E41"/>
<path d="M402.504 456.828C401.058 455.335 399.908 453.487 399.134 451.414C398.36 449.341 397.982 447.093 398.025 444.829C398.069 442.565 398.533 440.34 399.386 438.31C400.239 436.28 401.459 434.495 402.961 433.081L416.607 230.706L444.36 238.872L422.139 436.282C423.989 439.411 424.801 443.231 424.42 447.017C424.038 450.803 422.491 454.294 420.071 456.826C417.65 459.359 414.525 460.758 411.288 460.758C408.05 460.759 404.925 459.36 402.504 456.828V456.828Z" fill="#FFB8B8"/>
<path d="M458.079 152.214C477.554 152.214 493.34 133.622 493.34 110.688C493.34 87.7529 477.554 69.1608 458.079 69.1608C438.605 69.1608 422.819 87.7529 422.819 110.688C422.819 133.622 438.605 152.214 458.079 152.214Z" fill="#FFB8B8"/>
<path d="M427.419 224.481C419.463 211.618 419.217 193.901 427.788 181.596C433.381 173.567 442.737 167.141 458.356 167.141C499.99 167.141 515.782 206.029 515.782 206.029C515.782 206.029 533.01 243.225 522.96 277.041C512.911 310.856 512.911 314.237 512.911 314.237L446.871 307.474C446.871 307.474 458.012 273.944 427.419 224.481Z" fill="#CCCCCC"/>
<path d="M407.054 258.142L421.281 203.326C422.234 199.656 423.86 196.277 426.043 193.427C428.227 190.578 430.915 188.329 433.918 186.838C436.922 185.347 440.166 184.651 443.423 184.799C446.679 184.947 449.868 185.936 452.765 187.695V187.695C457.79 190.76 461.638 195.961 463.527 202.244C465.417 208.526 465.207 215.42 462.941 221.527L444.854 270.037L407.054 258.142Z" fill="#CCCCCC"/>
<path d="M511.475 305.784L567.465 647.317L537.317 657.461L464.099 432.591L431.079 662.534L399.495 667.606C399.495 667.606 385.641 363.362 446.871 307.474L511.475 305.784Z" fill="#2F2E41"/>
<path d="M518.791 330.569C514.092 330.571 509.508 328.858 505.671 325.664C501.833 322.471 498.931 317.954 497.365 312.736L481.197 259.758L506.297 245.709L520.074 295.243L590.267 291.235C590.643 290.533 591.059 289.862 591.513 289.228V289.228C592.883 287.336 594.56 285.786 596.447 284.67C598.334 283.554 600.392 282.895 602.499 282.732C604.606 282.57 606.719 282.906 608.714 283.721C610.708 284.537 612.544 285.815 614.112 287.481C617.067 290.691 618.885 295.096 619.206 299.815C619.526 304.535 618.324 309.224 615.84 312.946C614.516 314.884 612.876 316.49 611.017 317.668C609.157 318.846 607.116 319.574 605.014 319.807C602.912 320.04 600.791 319.774 598.778 319.025C596.764 318.276 594.898 317.06 593.291 315.447C592.898 315.05 592.523 314.63 592.168 314.187L523.269 330.055C521.794 330.396 520.294 330.568 518.791 330.569Z" fill="#FFB8B8"/>
<path d="M472.143 210.939C471.762 207.127 472.097 203.263 473.123 199.621C474.15 195.978 475.843 192.645 478.084 189.858C480.325 187.071 483.058 184.897 486.09 183.491C489.123 182.084 492.381 181.48 495.633 181.719V181.719C501.281 182.146 506.579 185.087 510.454 189.944C514.329 194.802 516.49 201.213 516.5 207.878V260.858L477.829 267.865L472.143 210.939Z" fill="#CCCCCC"/>
<path d="M465.834 152.591C460.541 152.564 456.459 146.002 456.696 139.775C456.933 133.549 460.484 128.07 464.762 124.401C469.04 120.732 474.058 118.497 478.829 115.8C483.6 113.102 488.329 109.737 491.275 104.559C493.054 101.17 494.116 97.3272 494.372 93.3538C494.628 89.3804 494.069 85.3928 492.744 81.7266C490.002 74.3939 485.296 68.3217 479.345 64.44C470.504 58.3457 460.039 56.397 450.033 58.9821C440.028 61.5672 431.216 68.4964 425.354 78.3894L419.313 97.7619C413.157 106.48 412.181 119.426 415.965 129.852C419.749 140.278 427.806 148.122 436.898 151.851C446.123 155.342 455.997 155.691 465.383 152.857" fill="#2F2E41"/>
<path d="M433.609 88.071C431.012 83.169 426.51 80.0513 421.857 78.2216C416.466 76.102 410.732 75.4763 405.102 76.3935C399.472 77.3106 394.097 79.7457 389.397 83.5093C384.697 87.2728 380.798 92.2632 378.003 98.0919C375.209 103.921 373.594 110.43 373.285 117.114C372.792 127.79 375.631 138.23 377.299 148.74C378.967 159.25 379.298 170.858 374.378 179.843C370.63 186.687 364.38 190.996 358.211 194.675C353.07 197.742 347.509 200.62 341.769 200.009C336.029 199.398 330.26 194.043 330.412 187.258C328.491 192.123 327.193 197.297 326.563 202.611C326.159 207.947 327.275 213.705 330.548 217.425C335.304 222.833 342.841 222.438 349.377 221.271C363.528 218.745 377.858 214.008 389.038 203.484C400.218 192.959 407.636 175.628 404.692 159.133C403.462 152.242 400.572 145.952 398.236 139.47C395.901 132.988 394.077 125.898 395.15 118.971C395.785 115.402 397.078 112.041 398.936 109.125C400.795 106.209 403.174 103.809 405.907 102.094C411.433 98.7105 417.756 97.5813 423.885 98.8836C427.903 99.6602 432.921 100.866 435.304 96.9774C435.936 95.7455 436.258 94.3282 436.235 92.8894C436.211 91.4506 435.842 90.0492 435.17 88.8472C433.795 86.4696 432.044 84.4263 430.012 82.8288" fill="#2F2E41"/>
<path d="M777.241 21.8679C782.369 21.8679 786.525 16.9726 786.525 10.9339C786.525 4.89529 782.369 0 777.241 0C772.114 0 767.957 4.89529 767.957 10.9339C767.957 16.9726 772.114 21.8679 777.241 21.8679Z" fill="#F2F2F2"/>
<path d="M777.241 65.4442C782.369 65.4442 786.525 60.5489 786.525 54.5102C786.525 48.4716 782.369 43.5763 777.241 43.5763C772.114 43.5763 767.957 48.4716 767.957 54.5102C767.957 60.5489 772.114 65.4442 777.241 65.4442Z" fill="#F2F2F2"/>
<path d="M777.241 109.021C782.369 109.021 786.525 104.126 786.525 98.0869C786.525 92.0482 782.369 87.153 777.241 87.153C772.114 87.153 767.957 92.0482 767.957 98.0869C767.957 104.126 772.114 109.021 777.241 109.021Z" fill="#F2F2F2"/>
<path d="M777.241 152.597C782.369 152.597 786.525 147.702 786.525 141.663C786.525 135.625 782.369 130.729 777.241 130.729C772.114 130.729 767.957 135.625 767.957 141.663C767.957 147.702 772.114 152.597 777.241 152.597Z" fill="#F2F2F2"/>
<path d="M816.004 21.8679C821.131 21.8679 825.288 16.9726 825.288 10.9339C825.288 4.89529 821.131 0 816.004 0C810.876 0 806.719 4.89529 806.719 10.9339C806.719 16.9726 810.876 21.8679 816.004 21.8679Z" fill="#F2F2F2"/>
<path d="M816.004 65.4442C821.131 65.4442 825.288 60.5489 825.288 54.5102C825.288 48.4716 821.131 43.5763 816.004 43.5763C810.876 43.5763 806.719 48.4716 806.719 54.5102C806.719 60.5489 810.876 65.4442 816.004 65.4442Z" fill="#F2F2F2"/>
<path d="M816.004 109.021C821.131 109.021 825.288 104.126 825.288 98.0869C825.288 92.0482 821.131 87.153 816.004 87.153C810.876 87.153 806.719 92.0482 806.719 98.0869C806.719 104.126 810.876 109.021 816.004 109.021Z" fill="#F2F2F2"/>
<path d="M816.004 152.597C821.131 152.597 825.288 147.702 825.288 141.663C825.288 135.625 821.131 130.729 816.004 130.729C810.876 130.729 806.719 135.625 806.719 141.663C806.719 147.702 810.876 152.597 816.004 152.597Z" fill="#F2F2F2"/>
<path d="M854.766 21.8679C859.893 21.8679 864.05 16.9726 864.05 10.9339C864.05 4.89529 859.893 0 854.766 0C849.638 0 845.482 4.89529 845.482 10.9339C845.482 16.9726 849.638 21.8679 854.766 21.8679Z" fill="#F2F2F2"/>
<path d="M854.766 65.4442C859.893 65.4442 864.05 60.5489 864.05 54.5102C864.05 48.4716 859.893 43.5763 854.766 43.5763C849.638 43.5763 845.482 48.4716 845.482 54.5102C845.482 60.5489 849.638 65.4442 854.766 65.4442Z" fill="#F2F2F2"/>
<path d="M854.766 109.021C859.893 109.021 864.05 104.126 864.05 98.0869C864.05 92.0482 859.893 87.153 854.766 87.153C849.638 87.153 845.482 92.0482 845.482 98.0869C845.482 104.126 849.638 109.021 854.766 109.021Z" fill="#F2F2F2"/>
<path d="M854.766 152.597C859.893 152.597 864.05 147.702 864.05 141.663C864.05 135.625 859.893 130.729 854.766 130.729C849.638 130.729 845.482 135.625 845.482 141.663C845.482 147.702 849.638 152.597 854.766 152.597Z" fill="#F2F2F2"/>
<path d="M893.528 21.8679C898.655 21.8679 902.812 16.9726 902.812 10.9339C902.812 4.89529 898.655 0 893.528 0C888.4 0 884.244 4.89529 884.244 10.9339C884.244 16.9726 888.4 21.8679 893.528 21.8679Z" fill="#F2F2F2"/>
<path d="M893.528 65.4442C898.655 65.4442 902.812 60.5489 902.812 54.5102C902.812 48.4716 898.655 43.5763 893.528 43.5763C888.4 43.5763 884.244 48.4716 884.244 54.5102C884.244 60.5489 888.4 65.4442 893.528 65.4442Z" fill="#F2F2F2"/>
<path d="M893.528 109.021C898.655 109.021 902.812 104.126 902.812 98.0869C902.812 92.0482 898.655 87.153 893.528 87.153C888.4 87.153 884.244 92.0482 884.244 98.0869C884.244 104.126 888.4 109.021 893.528 109.021Z" fill="#F2F2F2"/>
<path d="M893.528 152.597C898.655 152.597 902.812 147.702 902.812 141.663C902.812 135.625 898.655 130.729 893.528 130.729C888.4 130.729 884.244 135.625 884.244 141.663C884.244 147.702 888.4 152.597 893.528 152.597Z" fill="#F2F2F2"/>
<path d="M932.291 21.8679C937.418 21.8679 941.575 16.9726 941.575 10.9339C941.575 4.89529 937.418 0 932.291 0C927.163 0 923.006 4.89529 923.006 10.9339C923.006 16.9726 927.163 21.8679 932.291 21.8679Z" fill="#F2F2F2"/>
<path d="M932.291 65.4442C937.418 65.4442 941.575 60.5489 941.575 54.5102C941.575 48.4716 937.418 43.5763 932.291 43.5763C927.163 43.5763 923.006 48.4716 923.006 54.5102C923.006 60.5489 927.163 65.4442 932.291 65.4442Z" fill="#F2F2F2"/>
<path d="M932.291 109.021C937.418 109.021 941.575 104.126 941.575 98.0869C941.575 92.0482 937.418 87.153 932.291 87.153C927.163 87.153 923.006 92.0482 923.006 98.0869C923.006 104.126 927.163 109.021 932.291 109.021Z" fill="#F2F2F2"/>
<path d="M932.291 152.597C937.418 152.597 941.575 147.702 941.575 141.663C941.575 135.625 937.418 130.729 932.291 130.729C927.163 130.729 923.006 135.625 923.006 141.663C923.006 147.702 927.163 152.597 932.291 152.597Z" fill="#F2F2F2"/>
<path d="M971.053 21.8679C976.18 21.8679 980.337 16.9726 980.337 10.9339C980.337 4.89529 976.18 0 971.053 0C965.925 0 961.769 4.89529 961.769 10.9339C961.769 16.9726 965.925 21.8679 971.053 21.8679Z" fill="#F2F2F2"/>
<path d="M971.053 65.4442C976.18 65.4442 980.337 60.5489 980.337 54.5102C980.337 48.4716 976.18 43.5763 971.053 43.5763C965.925 43.5763 961.769 48.4716 961.769 54.5102C961.769 60.5489 965.925 65.4442 971.053 65.4442Z" fill="#F2F2F2"/>
<path d="M971.053 109.021C976.18 109.021 980.337 104.126 980.337 98.0869C980.337 92.0482 976.18 87.153 971.053 87.153C965.925 87.153 961.769 92.0482 961.769 98.0869C961.769 104.126 965.925 109.021 971.053 109.021Z" fill="#F2F2F2"/>
<path d="M971.053 152.597C976.18 152.597 980.337 147.702 980.337 141.663C980.337 135.625 976.18 130.729 971.053 130.729C965.925 130.729 961.769 135.625 961.769 141.663C961.769 147.702 965.925 152.597 971.053 152.597Z" fill="#F2F2F2"/>
</g>
<defs>
<clipPath id="clip0">
<rect width="1160" height="710" fill="white"/>
</clipPath>
</defs>
</svg>
