<svg width="1319" height="775" viewBox="0 0 1319 775" fill="none" xmlns="http://www.w3.org/2000/svg">
<g clip-path="url(#clip0)">
<path opacity="0.1" d="M1283.67 719.864C1282.43 720.77 1281.16 721.642 1279.88 722.503C1275.14 725.68 1270.2 728.535 1265.08 731.049C1238.18 744.471 1205.04 751.022 1172.76 755.473C1100.36 765.476 1026.43 767.415 952.811 769.32C753.924 774.493 554.51 779.644 356.128 767.736C277.752 763.033 197.622 755.117 126.584 731.026C116.41 727.577 106.428 723.776 96.6368 719.623C76.8479 711.191 57.8387 700.947 42.0282 688.741C27.1235 677.269 15.1309 664.076 7.93075 649.093C-7.08864 617.867 0.85673 582.797 17.9972 552.201C25.1617 539.785 33.208 527.901 42.074 516.638C55.2819 499.407 69.8542 482.715 83.1767 465.507C130.551 404.224 161.461 326.823 117.733 264.048C105.121 246.014 86.9946 230.183 76.7562 211.358C63.6744 187.266 64.6948 160.525 68.8567 134.495C69.3841 131.214 70.0032 127.956 70.565 124.698C77.7078 86.187 91.0074 44.6814 132.179 20.6362C174.944 -4.34977 235.652 -3.08786 288.747 5.84881C371.297 19.7528 447.448 48.7884 524.345 75.0133C601.242 101.238 681.785 125.192 766.352 127.784C841.014 130.079 928.115 113.02 977.667 68.7496C1025.82 25.7527 1116.28 22.4832 1181.52 48.4557C1226.23 66.2831 1259.65 98.3932 1273.74 134.495C1276.59 141.724 1278.65 149.24 1279.88 156.912C1281.02 163.897 1281.41 170.986 1281.02 178.054C1280.83 181.496 1280.45 184.995 1279.88 188.379C1268.99 259.655 1190.55 315.867 1142.88 379.537C1119.58 410.637 1103.13 447.99 1119.15 481.522C1143.58 532.619 1228.55 550.779 1279.88 588.82C1289.47 595.665 1297.97 603.919 1305.1 613.301C1329.92 647.166 1320.74 692.87 1283.67 719.864Z" fill="#F2F2F2"/>
<path opacity="0.1" d="M616.471 756.989C787.208 756.989 925.618 752.284 925.618 746.481C925.618 740.677 787.208 735.972 616.471 735.972C445.734 735.972 307.324 740.677 307.324 746.481C307.324 752.284 445.734 756.989 616.471 756.989Z" fill="#009DFF"/>
<path d="M862.09 739.483C862.09 739.483 928.588 655.198 923.44 571.419C921.273 536.246 929.929 501.233 949.271 471.785C958.472 457.834 968.934 444.758 980.525 432.723" stroke="#535461" stroke-width="2" stroke-miterlimit="10"/>
<path d="M977.578 379.894C972.878 391.618 980.433 434.111 980.433 434.111C980.433 434.111 1015.28 408.654 1019.98 396.941C1021.1 394.154 1021.65 391.174 1021.62 388.171C1021.59 385.168 1020.97 382.2 1019.79 379.438C1018.61 376.676 1016.9 374.173 1014.75 372.072C1012.61 369.971 1010.07 368.314 1007.28 367.195C1004.5 366.075 1001.52 365.516 998.519 365.548C995.518 365.581 992.552 366.204 989.791 367.384C987.031 368.563 984.529 370.275 982.43 372.421C980.33 374.568 978.674 377.107 977.555 379.894H977.578Z" fill="#009DFF"/>
<path d="M916.481 430.703C918.9 443.093 948.331 474.652 948.331 474.652C948.331 474.652 963.752 434.34 961.333 421.95C960.111 416.06 956.618 410.888 951.611 407.557C946.604 404.226 940.486 403.003 934.585 404.155C928.683 405.307 923.473 408.74 920.084 413.709C916.695 418.679 915.401 424.785 916.481 430.703V430.703Z" fill="#009DFF"/>
<path d="M873.498 542.211C881.833 551.687 923.153 564.008 923.153 564.008C923.153 564.008 916.125 521.424 907.79 511.948C905.808 509.695 903.402 507.855 900.709 506.532C898.016 505.21 895.089 504.431 892.095 504.24C889.101 504.05 886.099 504.451 883.26 505.421C880.422 506.391 877.802 507.911 875.55 509.895C873.298 511.878 871.459 514.286 870.137 516.98C868.816 519.675 868.037 522.603 867.847 525.599C867.656 528.594 868.057 531.598 869.027 534.439C869.996 537.279 871.516 539.901 873.498 542.154V542.211Z" fill="#009DFF"/>
<path d="M859.946 633.907C866.561 644.656 905.21 663.848 905.21 663.848C905.21 663.848 905.474 620.679 898.858 609.93C897.296 607.35 895.24 605.104 892.807 603.323C890.373 601.542 887.612 600.26 884.682 599.551C881.751 598.843 878.709 598.721 875.732 599.194C872.754 599.667 869.9 600.725 867.332 602.307C864.765 603.888 862.536 605.963 860.774 608.41C859.012 610.858 857.751 613.63 857.064 616.568C856.378 619.505 856.279 622.55 856.773 625.525C857.268 628.501 858.346 631.35 859.946 633.907Z" fill="#009DFF"/>
<path d="M991.99 494.82C980.307 499.604 937.794 492.331 937.794 492.331C937.794 492.331 963.017 457.295 974.666 452.512C980.252 450.321 986.475 450.417 991.991 452.778C997.507 455.139 1001.87 459.576 1004.15 465.131C1006.42 470.686 1006.42 476.913 1004.15 482.468C1001.87 488.023 997.506 492.459 991.99 494.82V494.82Z" fill="#009DFF"/>
<path d="M974.792 601.854C962.18 602.932 923.818 583.258 923.818 583.258C923.818 583.258 958.34 557.377 970.905 556.299C973.923 555.99 976.971 556.286 979.873 557.168C982.775 558.05 985.472 559.502 987.807 561.438C990.143 563.374 992.07 565.756 993.476 568.445C994.882 571.133 995.738 574.075 995.996 577.099C996.254 580.123 995.908 583.167 994.978 586.056C994.048 588.944 992.553 591.618 990.579 593.923C988.605 596.227 986.193 598.115 983.482 599.476C980.772 600.838 977.818 601.646 974.792 601.854V601.854Z" fill="#009DFF"/>
<path d="M943.745 703.599C931.534 706.777 890.374 693.882 890.374 693.882C890.374 693.882 920.023 662.541 932.234 659.351C938.034 658.014 944.127 658.994 949.217 662.084C954.306 665.173 957.99 670.128 959.484 675.893C960.978 681.659 960.164 687.78 957.216 692.954C954.268 698.129 949.418 701.948 943.699 703.599H943.745Z" fill="#009DFF"/>
<path opacity="0.25" d="M977.578 379.894C972.878 391.618 980.433 434.111 980.433 434.111C980.433 434.111 1015.28 408.654 1019.98 396.941C1021.1 394.154 1021.65 391.174 1021.62 388.171C1021.59 385.168 1020.97 382.2 1019.79 379.438C1018.61 376.676 1016.9 374.173 1014.75 372.072C1012.61 369.971 1010.07 368.314 1007.28 367.195C1004.5 366.075 1001.52 365.516 998.519 365.548C995.518 365.581 992.552 366.204 989.791 367.384C987.031 368.563 984.529 370.275 982.43 372.421C980.33 374.568 978.674 377.107 977.555 379.894H977.578Z" fill="black"/>
<path opacity="0.25" d="M916.481 430.703C918.9 443.093 948.331 474.652 948.331 474.652C948.331 474.652 963.752 434.34 961.333 421.95C960.111 416.06 956.618 410.888 951.611 407.557C946.604 404.226 940.486 403.003 934.585 404.155C928.683 405.307 923.473 408.74 920.084 413.709C916.695 418.679 915.401 424.785 916.481 430.703V430.703Z" fill="black"/>
<path opacity="0.25" d="M873.498 542.211C881.833 551.687 923.153 564.008 923.153 564.008C923.153 564.008 916.125 521.424 907.79 511.948C905.808 509.695 903.402 507.855 900.709 506.532C898.016 505.21 895.089 504.431 892.095 504.24C889.101 504.05 886.099 504.451 883.26 505.421C880.422 506.391 877.802 507.911 875.55 509.895C873.298 511.878 871.459 514.286 870.137 516.98C868.816 519.675 868.037 522.603 867.847 525.599C867.656 528.594 868.057 531.598 869.027 534.439C869.996 537.279 871.516 539.901 873.498 542.154V542.211Z" fill="black"/>
<path opacity="0.25" d="M859.946 633.907C866.561 644.656 905.21 663.848 905.21 663.848C905.21 663.848 905.474 620.679 898.858 609.93C897.296 607.35 895.24 605.104 892.807 603.323C890.373 601.542 887.612 600.26 884.682 599.551C881.751 598.843 878.709 598.721 875.732 599.194C872.754 599.667 869.9 600.725 867.332 602.307C864.765 603.888 862.536 605.963 860.774 608.41C859.012 610.858 857.751 613.63 857.064 616.568C856.378 619.505 856.279 622.55 856.773 625.525C857.268 628.501 858.346 631.35 859.946 633.907Z" fill="black"/>
<path opacity="0.25" d="M991.99 494.82C980.307 499.604 937.794 492.331 937.794 492.331C937.794 492.331 963.017 457.295 974.666 452.512C980.252 450.321 986.475 450.417 991.991 452.778C997.507 455.139 1001.87 459.576 1004.15 465.131C1006.42 470.686 1006.42 476.913 1004.15 482.468C1001.87 488.023 997.506 492.459 991.99 494.82V494.82Z" fill="black"/>
<path opacity="0.25" d="M974.792 601.854C962.18 602.932 923.818 583.258 923.818 583.258C923.818 583.258 958.34 557.377 970.905 556.299C973.923 555.99 976.971 556.286 979.873 557.168C982.775 558.05 985.472 559.502 987.807 561.438C990.143 563.374 992.07 565.756 993.476 568.445C994.882 571.133 995.738 574.075 995.996 577.099C996.254 580.123 995.908 583.167 994.978 586.056C994.048 588.944 992.553 591.618 990.579 593.923C988.605 596.227 986.193 598.115 983.482 599.476C980.772 600.838 977.818 601.646 974.792 601.854V601.854Z" fill="black"/>
<path opacity="0.25" d="M943.745 703.599C931.534 706.777 890.374 693.882 890.374 693.882C890.374 693.882 920.023 662.541 932.234 659.351C938.034 658.014 944.127 658.994 949.217 662.084C954.306 665.173 957.99 670.128 959.484 675.893C960.978 681.659 960.164 687.78 957.216 692.954C954.268 698.129 949.418 701.948 943.699 703.599H943.745Z" fill="black"/>
<path d="M862.663 735.961C862.663 735.961 957.594 685.886 986.808 607.2C999.075 574.16 1021.2 545.664 1050.77 526.586C1064.84 517.563 1079.7 509.848 1095.18 503.539" stroke="#535461" stroke-width="2" stroke-miterlimit="10"/>
<path d="M1113.86 454.037C1104.83 462.836 1094.52 504.755 1094.52 504.755C1094.52 504.755 1136.68 495.577 1145.73 486.813C1149.97 482.564 1152.38 476.813 1152.42 470.803C1152.47 464.792 1150.14 459.007 1145.95 454.699C1141.77 450.391 1136.05 447.906 1130.04 447.782C1124.04 447.658 1118.23 449.905 1113.86 454.037V454.037Z" fill="#009DFF"/>
<path d="M1037.44 475.731C1034.63 488.04 1048.75 528.823 1048.75 528.823C1048.75 528.823 1079.17 498.227 1082 485.918C1082.74 482.967 1082.88 479.9 1082.42 476.894C1081.95 473.888 1080.9 471.005 1079.31 468.413C1077.72 465.822 1075.63 463.573 1073.16 461.8C1070.69 460.027 1067.89 458.765 1064.93 458.087C1061.96 457.41 1058.89 457.33 1055.9 457.854C1052.91 458.377 1050.05 459.493 1047.49 461.136C1044.93 462.779 1042.73 464.916 1041.01 467.423C1039.28 469.929 1038.08 472.753 1037.46 475.731H1037.44Z" fill="#009DFF"/>
<path d="M953.008 560.245C956.792 572.291 989.559 600.397 989.559 600.397C989.559 600.397 1000.38 558.616 996.599 546.57C995.748 543.645 994.322 540.92 992.404 538.554C990.486 536.189 988.115 534.23 985.43 532.794C982.746 531.358 979.801 530.474 976.769 530.192C973.738 529.911 970.681 530.239 967.778 531.156C964.875 532.073 962.184 533.562 959.864 535.534C957.544 537.506 955.641 539.923 954.268 542.641C952.894 545.36 952.077 548.325 951.864 551.364C951.652 554.403 952.049 557.453 953.031 560.337L953.008 560.245Z" fill="#009DFF"/>
<path d="M903.456 638.587C905.153 651.091 932.703 684.303 932.703 684.303C932.703 684.303 950.429 644.954 948.755 632.438C948.351 629.463 947.366 626.596 945.855 624.002C944.344 621.407 942.338 619.136 939.95 617.318C937.562 615.499 934.839 614.169 931.938 613.404C929.036 612.638 926.012 612.452 923.038 612.855C920.065 613.259 917.2 614.245 914.607 615.757C912.014 617.268 909.744 619.276 907.927 621.666C906.109 624.055 904.78 626.779 904.015 629.682C903.25 632.586 903.064 635.612 903.467 638.587H903.456Z" fill="#009DFF"/>
<path d="M1080.44 564.937C1067.83 564.581 1031.9 540.685 1031.9 540.685C1031.9 540.685 1069.13 518.888 1081.74 519.232C1087.74 519.488 1093.4 522.095 1097.49 526.491C1101.58 530.887 1103.78 536.718 1103.61 542.724C1103.44 548.729 1100.91 554.426 1096.58 558.583C1092.24 562.74 1086.45 565.022 1080.44 564.937V564.937Z" fill="#009DFF"/>
<path d="M1021.38 655.818C1009.45 651.7 982.313 618.155 982.313 618.155C982.313 618.155 1024.34 608.484 1036.28 612.603C1041.88 614.678 1046.45 618.864 1049 624.265C1051.55 629.667 1051.89 635.854 1049.95 641.503C1048 647.151 1043.92 651.812 1038.58 654.488C1033.24 657.163 1027.06 657.641 1021.38 655.818V655.818Z" fill="#009DFF"/>
<path d="M951.862 736.248C939.411 734.206 906.988 705.732 906.988 705.732C906.988 705.732 946.795 689.086 959.246 691.128C965.14 692.201 970.376 695.547 973.829 700.445C977.281 705.343 978.673 711.402 977.705 717.317C976.737 723.232 973.487 728.53 968.653 732.071C963.82 735.612 957.79 737.111 951.862 736.248V736.248Z" fill="#009DFF"/>
<path d="M870.987 742.959H860.817L786.431 358.728L776.892 742.959H766.092L754.008 359.371L681.525 742.959H670.083L719.348 348.037L720.954 335.199L817.594 324.381L820.597 348.037L870.987 742.959Z" fill="#464353"/>
<path d="M665.703 247.358H604.192V285.526H665.703V247.358Z" fill="#464353"/>
<path d="M961.091 230.667L998.285 215.639H1006.44C1007.63 215.639 1008.77 216.111 1009.61 216.952C1010.45 217.794 1010.92 218.935 1010.92 220.124V324.932C1010.92 326.122 1010.45 327.263 1009.61 328.104C1008.77 328.945 1007.63 329.418 1006.44 329.418H998.285L961.091 313.919V230.667Z" fill="#464353"/>
<path d="M961.092 235.439H885.043V309.147H961.092V235.439Z" fill="#464353"/>
<path d="M801.989 96.9954H753.033V105.898H801.989V96.9954Z" fill="#514E7F"/>
<path d="M834.975 108.525H697.175V209.191H834.975V108.525Z" fill="#514E7F"/>
<path opacity="0.1" d="M834.975 197.272H697.175V209.203H834.975V197.272Z" fill="black"/>
<path opacity="0.1" d="M886.946 235.439H883.862V309.147H886.946V235.439Z" fill="black"/>
<path opacity="0.1" d="M665.703 247.358H644.722V285.526H665.703V247.358Z" fill="black"/>
<path opacity="0.1" d="M820.597 348.037H719.348L720.953 335.199L817.593 324.381L820.597 348.037Z" fill="black"/>
<path d="M872.764 199.176H658.893C652.117 199.176 646.625 204.672 646.625 211.451V333.846C646.625 340.625 652.117 346.121 658.893 346.121H872.764C879.539 346.121 885.032 340.625 885.032 333.846V211.451C885.032 204.672 879.539 199.176 872.764 199.176Z" fill="#514E7F"/>
<path d="M960.369 230.667H961.092V313.919H960.369C958.791 313.919 957.278 313.292 956.162 312.175C955.046 311.058 954.419 309.544 954.419 307.965V236.621C954.419 235.042 955.046 233.527 956.162 232.411C957.278 231.294 958.791 230.667 960.369 230.667Z" fill="#514E7F"/>
<path d="M998.284 215.673H1006C1007.31 215.673 1008.56 216.191 1009.48 217.114C1010.4 218.037 1010.92 219.289 1010.92 220.594V324.553C1010.92 325.859 1010.4 327.11 1009.48 328.033C1008.56 328.956 1007.31 329.475 1006 329.475H998.284V215.673Z" fill="#514E7F"/>
<path opacity="0.1" d="M615.164 247.358H604.192V285.526H615.164V247.358Z" fill="black"/>
<path d="M604.995 235.439H600.053C595.494 235.439 591.798 239.137 591.798 243.699V292.065C591.798 296.627 595.494 300.325 600.053 300.325H604.995C609.554 300.325 613.25 296.627 613.25 292.065V243.699C613.25 239.137 609.554 235.439 604.995 235.439Z" fill="#514E7F"/>
<path d="M697.175 177.23C735.097 177.23 765.84 146.47 765.84 108.525C765.84 70.5798 735.097 39.8192 697.175 39.8192C659.252 39.8192 628.51 70.5798 628.51 108.525C628.51 146.47 659.252 177.23 697.175 177.23Z" fill="#464353"/>
<path d="M697.175 160.057C725.618 160.057 748.676 136.985 748.676 108.525C748.676 80.0644 725.618 56.9927 697.175 56.9927C668.731 56.9927 645.673 80.0644 645.673 108.525C645.673 136.985 668.731 160.057 697.175 160.057Z" fill="#009DFF"/>
<path d="M824.484 160.057C852.136 160.057 874.552 137.627 874.552 109.959C874.552 82.2904 852.136 59.8607 824.484 59.8607C796.832 59.8607 774.415 82.2904 774.415 109.959C774.415 137.627 796.832 160.057 824.484 160.057Z" fill="#464353"/>
<path d="M824.484 147.53C845.221 147.53 862.032 130.709 862.032 109.959C862.032 89.2093 845.221 72.3883 824.484 72.3883C803.746 72.3883 786.935 89.2093 786.935 109.959C786.935 130.709 803.746 147.53 824.484 147.53Z" fill="#009DFF"/>
<path d="M820.597 227.638C824.238 227.638 827.19 224.685 827.19 221.042C827.19 217.399 824.238 214.445 820.597 214.445C816.956 214.445 814.005 217.399 814.005 221.042C814.005 224.685 816.956 227.638 820.597 227.638Z" fill="#009DFF"/>
<path opacity="0.5" d="M841.567 227.638C845.208 227.638 848.159 224.685 848.159 221.042C848.159 217.399 845.208 214.445 841.567 214.445C837.926 214.445 834.975 217.399 834.975 221.042C834.975 224.685 837.926 227.638 841.567 227.638Z" fill="#009DFF"/>
<path d="M758.594 243.802L758.124 242.873C761.031 243.84 763.822 245.125 766.447 246.705C765.301 236.736 727.087 208.744 720.208 208.744C713.329 208.744 705.682 196.859 705.682 196.859C705.682 196.859 685.813 193.796 682.752 190.549C679.69 187.303 659.053 189.196 654.089 190.343C649.124 191.49 641.477 187.28 641.477 187.28C641.477 187.28 637.269 180.397 631.926 180.397C626.584 180.397 620.862 172.733 620.862 172.733C620.862 172.733 615.875 168.145 611.289 167.365C606.703 166.584 600.97 161.629 598.288 157.785C595.605 153.942 582.236 152.049 574.6 153.197C566.965 154.344 546.316 151.636 546.316 151.636C554.72 147.805 556.749 138.604 556.749 138.604C549.228 138.214 529.462 121.603 529.462 121.603C529.462 121.603 530.276 126.972 531.216 134.463L529.944 132.822L529.772 132.96C529.368 127.616 529.31 122.251 529.6 116.899C529.6 116.486 529.668 116.073 529.691 115.649C534.586 111.358 538.216 105.81 540.188 99.605C542.16 93.3997 542.4 86.7732 540.881 80.4415C540.675 79.5696 540.434 78.7207 540.159 77.8832C541.622 78.4921 543.168 78.8788 544.745 79.0304H545.559C546.508 79.0367 547.447 78.8415 548.314 78.4579C549.182 78.0743 549.958 77.5109 550.592 76.8049V76.8049C550.807 76.533 550.995 76.2411 551.154 75.933C551.193 75.8743 551.227 75.813 551.257 75.7494C551.394 75.4678 551.509 75.1764 551.601 74.8776C551.633 74.7719 551.66 74.6647 551.682 74.5564C551.74 74.3218 551.785 74.0844 551.819 73.8451C551.819 73.6501 551.819 73.4436 551.819 73.2371C551.819 73.0306 551.819 72.9388 551.819 72.7897C551.772 71.026 551.382 69.2883 550.673 67.6732C549.469 64.7134 547.738 61.7881 547.864 58.5874C547.864 58.3235 547.921 58.0711 547.955 57.8188C548.276 55.3064 549.595 52.9776 550.386 50.557V50.4538C550.501 50.0981 550.592 49.7425 550.673 49.3869C550.71 49.2819 550.741 49.1746 550.764 49.0657C550.85 48.6455 550.907 48.2201 550.936 47.7923C550.936 47.7923 550.936 47.7349 550.936 47.7005C551.234 42.9052 547.371 38.7179 542.991 36.7792C539.07 35.0354 534.587 34.5651 530.998 32.1904C526.905 29.4945 524.658 24.8254 521.631 20.9594C517.229 15.3381 510.338 11.1393 503.287 11.9424C498.942 12.4357 494.998 14.7186 490.675 15.6019C484.106 16.9671 477.158 14.9825 470.623 16.5082C469.036 16.772 467.592 17.5839 466.541 18.8026C466.102 19.4177 465.819 20.1302 465.716 20.879V20.879C465.624 21.572 465.624 22.274 465.716 22.9669V23.0243C465.79 23.6855 465.908 24.3409 466.071 24.986L466.174 25.3875C466.174 25.5252 466.232 25.6514 466.266 25.789C466.3 25.9267 466.415 26.3282 466.484 26.5921C466.61 27.0395 466.713 27.4869 466.828 27.9458V28.1064C466.931 28.5767 467.034 29.0471 467.114 29.5289C467.299 30.5221 467.422 31.526 467.481 32.5346V32.5346C467.751 35.373 467.138 38.2256 465.727 40.7026C462.861 45.2914 456.773 47.3219 454.124 52.1057C453.499 53.26 453.109 54.5275 452.978 55.8341C452.93 56.2683 452.911 56.7052 452.921 57.1419V57.314C452.921 57.6926 452.921 58.0711 453.024 58.4612C453.018 58.5529 453.018 58.6448 453.024 58.7365C453.082 59.0768 453.159 59.4138 453.253 59.7461C453.253 59.8608 453.31 59.964 453.345 60.0673C453.471 60.4598 453.624 60.8431 453.803 61.2145V61.2145C455.03 63.7727 457.346 65.8836 457.828 68.6598C457.828 68.7401 457.828 68.8204 457.885 68.9122C458.149 71 457.289 73.0421 456.842 75.0955C456.783 75.3454 456.737 75.5981 456.704 75.8527V75.8527C456.704 75.933 456.704 76.0133 456.704 76.0936C456.704 76.1739 456.704 76.4378 456.704 76.6213C456.704 76.8049 456.704 76.8163 456.704 76.9196C456.704 77.0228 456.704 77.2293 456.704 77.3785C456.698 77.4855 456.698 77.5927 456.704 77.6997C456.704 77.8488 456.704 77.998 456.704 78.1356C456.704 78.2733 456.704 78.3421 456.704 78.4454C456.704 78.5486 456.773 78.7322 456.819 78.8698L456.899 79.1566C456.953 79.2935 457.014 79.4276 457.082 79.5581L457.208 79.8105C457.292 79.9496 457.384 80.0837 457.484 80.212C457.526 80.2759 457.572 80.3372 457.621 80.3956C457.777 80.5799 457.954 80.7454 458.149 80.8889C459.731 82.0361 462.196 81.7378 463.491 83.1833C463.637 83.3583 463.76 83.551 463.858 83.7569L463.927 83.8946C464.022 84.0966 464.095 84.3081 464.145 84.5255V84.5255C464.328 85.3877 464.328 86.2789 464.145 87.1411C463.686 89.4355 462.712 91.5234 462.196 93.7719C462.093 94.2308 462.024 94.7011 461.967 95.1715C461.967 95.3894 461.967 95.5959 461.909 95.8024V95.9401C461.909 96.1351 461.909 96.3416 461.909 96.5366C461.909 96.7317 461.909 96.6399 461.909 96.6972C461.909 96.984 461.909 97.2823 461.978 97.5691C462.047 97.8559 461.978 97.8444 462.047 97.9706L462.116 98.3033C462.116 98.4525 462.196 98.6016 462.242 98.7507L462.345 99.0375C462.402 99.1981 462.482 99.3588 462.551 99.5194C462.585 99.5943 462.623 99.6671 462.666 99.7373C462.782 99.972 462.92 100.195 463.079 100.403C464.466 102.284 466.748 102.915 469.155 102.927C470.521 102.919 471.881 102.765 473.214 102.468C473.512 103.167 473.822 103.867 474.154 104.544C475.816 107.893 477.994 110.959 480.609 113.63C480.609 113.986 480.54 114.33 480.494 114.697C480.231 117.312 479.91 120.123 479.543 122.957C476.573 121.591 474.28 121.064 473.374 122.05C469.534 126.272 473.374 140.841 473.374 140.841C473.374 140.841 454.629 140.841 450.043 145.052C445.457 149.262 437.053 145.052 437.053 145.052C437.053 145.052 419.855 146.979 421.001 150.432C422.148 153.885 411.829 150.432 411.829 150.432C411.829 150.432 404.56 151.201 404.95 156.168C405.34 161.135 393.863 163.441 395.388 166.894C396.913 170.347 388.509 172.63 388.509 172.63C388.509 172.63 380.105 172.252 383.166 177.219C383.166 177.219 378.58 187.957 374.762 188.691C370.944 189.425 365.969 198.27 365.969 198.27C365.969 198.27 351.247 200.954 351.912 205.555C352.577 210.155 329.28 243.068 329.28 243.068C329.28 243.068 321.633 258.842 326.987 270.348C332.341 281.855 336.159 289.518 337.306 293.728C338.452 297.938 352.348 316.477 352.233 319.93C352.233 321.009 355.673 326.813 360.362 334.178L358.986 335.601L355.971 338.71C355.971 338.71 346.409 362.48 357.874 363.627C367.562 364.591 374.522 365.29 378.053 364.327C378.626 364.193 379.17 363.956 379.658 363.627L379.796 363.524C383.969 369.684 386.927 373.986 386.927 373.986C386.927 373.986 387.34 373.378 388.073 372.334L389.22 373.975C389.22 373.975 390.137 372.667 391.696 370.533C391.192 380.961 391.123 391.24 391.123 391.24C391.123 391.24 396.099 390.471 393.806 413.473C391.513 436.474 407.564 455.254 407.564 455.254V489.383C407.564 489.383 407.564 490.243 407.725 491.677C408.149 496.576 409.548 508.128 413.675 515.768C419.029 525.726 413.675 551.802 413.675 551.802C413.675 551.802 413.32 573.071 414.604 599.594C414.604 600.317 414.684 601.062 414.719 601.796C391.536 621.184 366.668 646.881 366.668 646.881C367.886 647.222 369.045 647.744 370.108 648.43L368.72 650.208L362.403 657.998L357.519 664.032L365.258 687.882L373.708 684.578C373.708 684.578 378.294 692.528 377.331 697.92C377.184 698.895 376.789 699.815 376.184 700.593C375.892 700.984 375.689 701.434 375.588 701.912C373.375 710.551 382.605 747.8 397.246 749.418C397.246 749.418 402.21 751.058 403.804 746.584C404.572 744.427 404.56 740.848 402.841 735.032C402.841 735.032 395.102 725.694 400.112 715.633C403.047 709.748 407.897 701.866 411.405 696.302L412.85 694.008C416.003 697.989 417.94 700.547 417.94 700.547L429.199 688.433C429.44 688.949 429.681 689.454 429.933 689.935C430.775 691.623 431.749 693.242 432.845 694.777L440.481 725.074L443.565 724.386C443.496 725.12 443.45 725.9 443.404 726.68C443.152 732.118 443.404 739.173 445.915 744.209C447.796 748.064 450.971 750.748 456.154 750.622C473.925 750.186 479.084 740.561 479.084 740.561V716.47L485.195 715.105C485.195 715.105 484.748 662.173 483.177 632.656C483.177 632.002 483.108 631.371 483.074 630.752C483.074 630.66 483.074 630.568 483.074 630.488L522.319 588.259L525.335 587.055C550.558 577.086 550.948 551.4 550.948 551.4C550.948 551.4 550.948 537.221 553.998 525.336C557.047 513.451 554.387 451.72 548.655 436.394C542.922 421.067 541.007 403.79 541.007 403.79C541.007 403.79 546.74 395.76 541.007 389.072C539.388 387.07 538.039 384.864 536.995 382.51L544.459 381.282L548.758 380.571L551.051 380.181C549.904 390.322 549.71 398.112 552.427 399.97C560.842 405.706 589.115 386.548 589.115 386.548C578.797 386.548 573.064 309.491 575.162 307.575C577.26 305.659 580.39 267.044 577.65 260.161C574.91 253.278 587.269 222.545 587.269 222.545L589.173 219.723C589.173 219.723 634.277 239.42 639.241 243.194C644.206 246.969 659.878 234.017 662.55 239.03C665.221 244.043 682.041 251.511 682.041 251.511C682.041 251.511 706.886 248.999 709.557 255.137C712.228 261.274 728.291 275.648 728.291 275.648C728.3 272.278 728.503 268.911 728.899 265.565C729.231 266.356 729.552 267.159 729.896 267.974C737.509 285.996 750.178 308.814 761.919 296.539C775.218 282.589 765.094 256.8 758.594 243.802ZM418.663 325.253V325.471L418.571 325.379L418.663 325.253ZM409.766 236.827L404.904 288.118L395.354 298.019L394.207 299.235L384.336 288.486C384.336 288.486 379.36 286.191 384.336 281.969C389.312 277.748 375.932 268.203 375.932 268.203C375.932 268.203 375.542 261.32 380.518 259.393C385.494 257.465 391.983 244.823 391.983 244.823L409.949 235.646L409.766 236.827ZM473.695 499.352C474.044 499.029 474.428 498.748 474.842 498.514C476.986 497.298 478.362 498.629 479.073 500.969C480.009 504.891 479.725 509.006 478.259 512.762C475.587 518.9 482.088 543.438 482.088 543.438C482.088 543.438 473.672 547.259 472.148 554.555C471.921 555.451 471.532 556.299 471.001 557.056C470.898 556.413 470.806 555.794 470.714 555.197C469.969 550.608 469.568 547.649 469.568 547.649C468.197 541.745 467.937 535.637 468.8 529.638C470.015 522.261 472.469 507.279 473.386 501.6C473.615 500.224 473.741 499.398 473.753 499.306L473.695 499.352Z" fill="url(#paint0_linear)"/>
<path d="M526.985 125.848L529.462 124.196L536.444 138.937L533.761 142.092H525.644C525.644 142.092 525.931 134.061 526.125 133.775C526.32 133.488 526.985 125.848 526.985 125.848Z" fill="#464353"/>
<path d="M479.05 710.172V741.72C479.05 741.72 473.89 751.322 456.119 751.758C453.961 751.885 451.817 751.339 449.983 750.194C448.149 749.05 446.716 747.363 445.881 745.368C443.404 740.343 443.118 733.3 443.37 727.873C443.497 725.159 443.784 722.455 444.23 719.774L479.05 710.172Z" fill="#3F3D56"/>
<path opacity="0.1" d="M479.05 710.172V719.935L443.37 727.873C443.497 725.159 443.784 722.455 444.23 719.774L479.05 710.172Z" fill="black"/>
<path d="M485.16 716.286L440.446 726.233L432.81 696.015C431.717 694.483 430.743 692.868 429.898 691.186C429.405 690.222 428.924 689.201 428.465 688.134C420.141 669.079 416.438 634.709 414.856 605.467C414.776 603.987 414.695 602.519 414.627 601.073C413.342 574.619 413.698 553.396 413.698 553.396C413.698 553.396 419.052 527.389 413.698 517.454C409.57 509.791 408.172 498.273 407.747 493.363C407.633 491.906 407.587 491.069 407.587 491.069L408.412 488.901L411.783 479.975H448.862L470.416 498.227L473.695 501.003L473.328 503.298C472.4 508.965 469.946 523.947 468.742 531.267C467.879 537.251 468.14 543.343 469.51 549.232C469.51 549.232 469.958 552.145 470.657 556.769C470.829 557.916 471.024 559.132 471.242 560.451C473.982 577.407 479.118 608.37 481.308 615.769C481.916 617.8 482.455 622.893 482.856 629.788C482.948 631.164 483.028 632.598 483.108 634.101C484.713 663.492 485.16 716.286 485.16 716.286Z" fill="#514E7F"/>
<path opacity="0.1" d="M479.05 741.398V741.72C479.05 741.72 473.89 751.322 456.119 751.758C453.961 751.885 451.817 751.339 449.983 750.194C448.149 749.049 446.716 747.363 445.881 745.368C453.849 747.329 466.782 748.591 479.05 741.398Z" fill="black"/>
<path d="M761.861 298.707C750.075 310.948 737.463 288.187 729.839 270.211C725.562 260.092 722.879 251.477 722.879 251.477L754.248 238.193C754.248 238.193 756.174 241.256 758.594 246.108C765.094 259.071 775.218 284.792 761.861 298.707Z" fill="#FFB8B8"/>
<path d="M529.634 119.504C529.131 130.86 529.982 142.236 532.168 153.392C532.168 153.392 468.353 160.275 474.085 150.34C477.444 144.512 479.623 129.129 480.838 117.37C481.721 109.041 482.111 102.537 482.111 102.537C482.111 102.537 543.254 78.0669 534.082 98.7164C531.342 104.877 530.07 112.173 529.634 119.504Z" fill="#FFB8B8"/>
<path d="M535.023 283.794L526.447 386.273L565.807 379.779L558.927 295.266L561.221 272.7L535.023 283.794Z" fill="#464353"/>
<path opacity="0.1" d="M565.807 379.94L548.712 382.762L526.435 386.433L528.006 367.734L535.023 283.954L543.954 280.168L550.283 277.496L561.221 272.861L558.928 295.426L565.807 379.94Z" fill="black"/>
<path d="M400.078 716.745C395.067 726.783 402.806 736.098 402.806 736.098C404.526 741.915 404.537 745.471 403.769 747.57C402.176 752.033 397.211 750.393 397.211 750.393C381.596 748.672 372.137 706.524 376.15 701.694C380.162 696.864 373.708 685.771 373.708 685.771L365.258 689.063L357.519 665.271L362.403 659.248L368.72 651.47L372.997 646.193L415.704 690.784C415.704 690.784 413.882 693.526 411.371 697.461C407.862 702.979 403.013 710.895 400.078 716.745Z" fill="#3F3D56"/>
<path opacity="0.1" d="M483.142 634.044L429.898 691.186C420.565 672.945 416.553 636.35 414.856 605.456C424.773 597.196 434.347 590.083 441.593 586.653C441.593 586.653 466.105 568.906 471.276 560.394C474.016 577.349 479.152 608.312 481.342 615.712C482.065 618.144 482.661 624.969 483.142 634.044Z" fill="black"/>
<path opacity="0.1" d="M470.416 498.216L408.413 488.889L411.783 479.964H448.862L470.416 498.216Z" fill="black"/>
<path opacity="0.1" d="M482.936 629.731L428.511 688.134C420.142 669.079 416.438 634.709 414.856 605.467C414.776 603.987 414.696 602.519 414.627 601.074C424.636 592.722 434.324 585.541 441.593 582.076C441.593 582.076 464.466 565.522 470.691 556.723C470.863 557.87 471.058 559.086 471.276 560.405C474.016 577.361 479.153 608.324 481.343 615.723C481.95 617.742 482.455 622.836 482.936 629.731Z" fill="black"/>
<path opacity="0.1" d="M415.704 690.807C415.704 690.807 413.881 693.549 411.371 697.484C402.256 685.955 380.644 659.409 368.72 651.493L372.997 646.216L415.704 690.807Z" fill="black"/>
<path d="M553.951 526.988C550.902 538.85 550.902 552.995 550.902 552.995C550.902 552.995 550.512 578.611 525.288 588.558L522.273 589.705L417.94 701.706C417.94 701.706 379.337 651.229 366.725 648.166C366.725 648.166 417.55 595.773 441.627 584.301C441.627 584.301 470.68 563.273 472.205 556.012C473.729 548.75 482.145 544.918 482.145 544.918C482.145 544.918 475.644 520.449 478.316 514.323C479.782 510.578 480.066 506.474 479.13 502.564C478.419 500.269 477.043 498.904 474.899 500.109C474.485 500.342 474.101 500.623 473.752 500.946L407.644 491V457.009C407.644 457.009 391.593 438.275 393.886 415.331C396.179 392.387 391.203 393.156 391.203 393.156C391.203 393.156 391.444 354.403 394.711 351.168C397.979 347.933 429.371 333.111 429.371 333.111L527.788 350.606L531.846 369.443C531.846 369.443 535.286 384.425 541.019 391.079C546.751 397.733 541.019 405.752 541.019 405.752C541.019 405.752 542.933 422.96 548.666 438.275C554.398 453.59 557.013 515.137 553.951 526.988Z" fill="#514E7F"/>
<path opacity="0.1" d="M534.082 98.7164C531.342 104.877 530.07 112.219 529.634 119.504C522.768 125.454 513.886 128.549 504.812 128.152C495.737 127.755 487.159 123.897 480.838 117.37C481.721 109.041 482.111 102.537 482.111 102.537C482.111 102.537 543.254 78.0669 534.082 98.7164Z" fill="black"/>
<path d="M541.902 91.5236C541.896 100.591 538.429 109.315 532.209 115.91C525.99 122.505 517.487 126.473 508.44 127.004C499.393 127.535 490.485 124.588 483.538 118.765C476.591 112.943 472.128 104.685 471.064 95.6798C469.999 86.6748 472.413 77.603 477.81 70.3192C483.208 63.0355 491.183 58.0901 500.104 56.4941C509.025 54.8982 518.219 56.7723 525.804 61.7332C533.39 66.6941 538.796 74.3672 540.916 83.1834C541.572 85.9147 541.903 88.7143 541.902 91.5236V91.5236Z" fill="#FFB8B8"/>
<path opacity="0.1" d="M513.067 153.392C513.067 153.392 487.522 141.541 485.929 140.004C484.335 138.467 431.343 274.616 431.343 274.616L416.438 342.3C416.438 342.3 495.926 376.326 513.124 371.737C530.322 367.149 531.847 371.737 531.847 371.737C531.847 371.737 549.434 273.079 555.167 264.291C560.9 255.503 549.813 166.011 549.813 166.011L529.944 139.992L513.067 153.392Z" fill="black"/>
<path opacity="0.1" d="M513.067 148.803C513.067 148.803 487.522 136.953 485.929 135.415C484.335 133.878 431.343 270.027 431.343 270.027L416.438 337.712C416.438 337.712 495.926 371.738 513.124 367.149C530.322 362.56 531.847 367.149 531.847 367.149C531.847 367.149 549.434 268.49 555.167 259.703C560.9 250.915 549.813 161.422 549.813 161.422L529.944 135.404L513.067 148.803Z" fill="black"/>
<path d="M555.098 261.997C553.951 263.821 552.22 269.488 550.283 277.335C548.93 282.796 547.462 289.3 545.96 296.298C539.196 327.88 531.789 369.455 531.789 369.455C531.789 369.455 531.319 368.055 528.006 367.573C525.323 367.183 520.76 367.401 513.101 369.455C495.903 374.044 416.404 340.006 416.404 340.006L418.697 329.681L431.309 272.322C431.309 272.322 484.438 136.184 485.963 137.721C486.892 138.65 496.821 143.457 504.388 147.025C509.214 149.319 513.101 151.097 513.101 151.097L529.152 138.409L530.035 137.71L549.813 163.717C549.813 163.717 560.831 253.198 555.098 261.997Z" fill="#009DFF"/>
<path opacity="0.1" d="M494.333 164.485C496.626 173.307 491.283 187.807 491.283 187.807C491.283 187.807 472.939 232.938 467.585 253.794C462.23 274.65 431.607 316.683 431.607 316.683C431.607 316.683 427.113 321.192 420.818 327.467C420.119 328.167 419.385 328.89 418.651 329.647L431.263 272.287C431.263 272.287 484.393 136.149 485.917 137.686C486.846 138.616 496.775 143.422 504.342 146.99C499.607 151.304 492.808 158.646 494.333 164.485Z" fill="black"/>
<path d="M492.039 164.485C494.333 173.307 488.99 187.807 488.99 187.807C488.99 187.807 470.645 232.938 465.291 253.794C459.937 274.65 429.314 316.684 429.314 316.684C429.314 316.684 424.819 321.192 418.525 327.467C417.78 328.213 417 328.982 416.232 329.762C403.941 342.002 386.663 359.164 381.263 364.177C380.472 364.923 379.933 365.405 379.704 365.566C379.216 365.895 378.672 366.132 378.099 366.265C374.567 367.229 367.608 366.529 357.92 365.566C346.455 364.418 356.017 340.717 356.017 340.717L359.032 337.608L361.784 334.763L393.015 302.607L395.308 300.187L404.858 290.332L409.72 239.167L409.834 237.94C409.834 237.94 408.413 234.693 406.223 229.738C400.387 216.327 388.922 190.446 384.725 182.083C384.244 181.108 383.866 180.385 383.579 179.938C383.579 179.88 383.522 179.823 383.487 179.777C380.426 174.81 388.83 175.188 388.83 175.188C388.83 175.188 397.245 172.894 395.709 169.452C394.173 166.011 405.649 163.716 405.271 158.749C404.893 153.782 412.15 153.013 412.15 153.013C412.15 153.013 422.469 156.455 421.322 153.013C420.176 149.571 437.374 147.656 437.374 147.656C437.374 147.656 445.778 151.866 450.364 147.656C454.95 143.445 473.764 143.457 473.764 143.457C473.764 143.457 469.923 128.922 473.764 124.712C477.605 120.501 506.405 143.457 506.405 143.457C506.405 143.457 489.746 155.675 492.039 164.485Z" fill="#464353"/>
<path opacity="0.1" d="M396.5 360.266C396.5 360.266 428.224 405.006 450.387 390.483C472.549 375.959 420.577 338.09 420.577 338.09L396.5 360.266Z" fill="black"/>
<path d="M396.5 357.971C396.5 357.971 428.224 402.712 450.387 388.188C472.549 373.665 420.577 335.796 420.577 335.796L396.5 357.971Z" fill="#FFB8B8"/>
<path opacity="0.1" d="M548.712 382.601C551.131 361.482 558.148 329.75 552.427 320.125C549.595 315.353 547.497 306.255 545.96 296.298C545.135 290.94 544.481 285.331 543.954 280.008C542.555 265.886 542.108 253.794 542.108 253.794C542.108 253.794 528.35 192.396 531.021 179.777C532.695 171.884 530.769 152.107 529.095 138.409L529.978 137.709L549.755 163.716C549.755 163.716 560.831 253.198 555.098 261.997C553.952 263.821 552.22 269.488 550.283 277.335L561.22 272.746L558.927 295.311L565.807 379.825L548.712 382.601Z" fill="black"/>
<path d="M529.462 124.196C529.462 124.196 549.228 140.773 556.749 141.151C556.749 141.151 554.72 150.329 546.316 154.16C546.316 154.16 566.953 156.891 574.6 155.709C582.247 154.527 595.616 156.455 598.287 160.298C600.959 164.141 606.76 169.074 611.346 169.831C615.932 170.588 620.919 175.188 620.919 175.188L587.269 224.896C587.269 224.896 575.036 255.492 577.707 262.375C580.379 269.259 577.317 307.885 575.219 309.789C573.121 311.693 578.854 388.567 589.172 388.567C589.172 388.567 560.899 407.691 552.484 401.955C544.068 396.219 563.192 334.27 554.777 320.114C546.361 305.957 544.458 253.783 544.458 253.783C544.458 253.783 530.7 192.396 533.383 179.777C536.066 167.158 529.462 124.196 529.462 124.196Z" fill="#464353"/>
<path opacity="0.1" d="M758.593 246.108C748.378 242.919 732.728 242.827 729.839 270.199C725.562 260.081 722.879 251.465 722.879 251.465L754.248 238.181C754.248 238.181 756.174 241.255 758.593 246.108Z" fill="black"/>
<path d="M602.174 172.894L620.92 175.188C620.92 175.188 626.653 182.84 631.984 182.84C637.315 182.84 641.534 189.723 641.534 189.723C641.534 189.723 649.182 193.922 654.146 192.775C659.11 191.628 679.748 189.735 682.809 192.981C685.87 196.228 705.739 199.279 705.739 199.279C705.739 199.279 713.387 211.13 720.266 211.13C727.145 211.13 765.358 239.053 766.505 248.987C766.505 248.987 728.67 224.896 728.291 277.862C728.291 277.862 712.24 263.522 709.557 257.408C706.874 251.293 682.041 253.783 682.041 253.783C682.041 253.783 665.233 246.315 662.55 241.347C659.867 236.38 644.206 249.263 639.241 245.489C634.277 241.714 589.173 222.074 589.173 222.074L575.22 195.838L602.174 172.894Z" fill="#464353"/>
<path d="M515.738 219.356C517.53 219.356 518.983 217.902 518.983 216.109C518.983 214.316 517.53 212.862 515.738 212.862C513.946 212.862 512.493 214.316 512.493 216.109C512.493 217.902 513.946 219.356 515.738 219.356Z" fill="#3F3D56"/>
<path d="M512.494 287.143C514.285 287.143 515.738 285.69 515.738 283.897C515.738 282.104 514.285 280.65 512.494 280.65C510.702 280.65 509.249 282.104 509.249 283.897C509.249 285.69 510.702 287.143 512.494 287.143Z" fill="#3F3D56"/>
<path d="M515.738 251.465C517.53 251.465 518.983 250.012 518.983 248.219C518.983 246.426 517.53 244.972 515.738 244.972C513.946 244.972 512.493 246.426 512.493 248.219C512.493 250.012 513.946 251.465 515.738 251.465Z" fill="#3F3D56"/>
<path d="M506.371 322.821C508.163 322.821 509.616 321.367 509.616 319.574C509.616 317.781 508.163 316.328 506.371 316.328C504.579 316.328 503.126 317.781 503.126 319.574C503.126 321.367 504.579 322.821 506.371 322.821Z" fill="#3F3D56"/>
<path opacity="0.1" d="M403.827 747.628C402.233 752.091 397.269 750.45 397.269 750.45C381.653 748.729 372.194 706.581 376.207 701.752C380.22 696.922 373.708 685.771 373.708 685.771L365.258 689.064L357.519 665.271L362.403 659.248C367.264 667.68 374.224 679.806 375.863 682.903C378.976 689.326 380.453 696.42 380.163 703.553C379.899 711.01 388.544 746.664 403.827 747.628Z" fill="black"/>
<path opacity="0.1" d="M540.916 83.1371C540.136 82.8733 539.356 82.5635 538.623 82.2538C535.997 81.1869 533.234 79.9594 531.64 77.665C530.184 75.5312 529.714 72.5256 527.444 71.3095C524.83 69.91 521.711 71.8028 518.88 72.4567C515.509 73.2483 512 72.3076 508.721 71.103C503.837 69.3019 497.016 65.9865 492.005 69.4167C488.107 72.0782 489.62 77.7224 488.623 81.749C487.075 88.0012 480.437 92.0738 479.187 98.3948C478.625 101.183 478.992 104.59 476.734 106.322C476.074 106.792 475.325 107.12 474.532 107.286C472.319 102.8 471.076 97.8982 470.884 92.8995C470.693 87.9007 471.558 82.9178 473.422 78.2763C475.286 73.6347 478.109 69.439 481.704 65.9631C485.299 62.4872 489.587 59.8093 494.287 58.1045C498.987 56.3996 503.994 55.7061 508.98 56.0693C513.967 56.4325 518.82 57.8441 523.224 60.212C527.628 62.5799 531.483 65.8508 534.537 69.811C537.592 73.7713 539.777 78.3317 540.95 83.1945L540.916 83.1371Z" fill="black"/>
<path d="M508.699 68.7746C511.943 69.9792 515.475 70.9199 518.857 70.1168C521.735 69.44 524.796 67.5471 527.41 68.9696C529.703 70.1971 530.161 73.1913 531.606 75.3251C533.2 77.6195 535.963 78.9044 538.6 79.9139C540.566 80.8313 542.669 81.4203 544.825 81.6576C545.905 81.7633 546.994 81.6185 548.008 81.2345C549.022 80.8505 549.934 80.2376 550.673 79.4435C552.713 76.9771 552.094 73.2831 550.879 70.3348C549.664 67.3865 547.944 64.4497 548.07 61.2605C548.219 57.4747 550.959 54.1823 551.189 50.408C551.487 45.6242 547.623 41.4484 543.243 39.5097C539.322 37.7774 534.839 37.2956 531.251 34.9209C527.158 32.2364 524.91 27.5788 521.884 23.7242C517.481 18.1144 510.59 13.9272 503.539 14.7302C499.194 15.2235 495.25 17.495 490.928 18.3783C484.358 19.7435 477.41 17.7588 470.875 19.2846C469.296 19.5331 467.853 20.3241 466.793 21.5216C465.188 23.6783 466.014 26.6955 466.725 29.2881C467.997 33.9572 468.536 39.2458 466.002 43.3527C463.136 47.9989 457.048 49.9606 454.4 54.7329C453.634 56.1329 453.211 57.6947 453.165 59.29C453.119 60.8853 453.452 62.4688 454.136 63.9105C455.397 66.5491 457.839 68.6943 458.217 71.5967C458.481 73.6846 457.621 75.7152 457.174 77.7572C456.727 79.7992 456.853 82.3459 458.539 83.4931C460.224 84.6403 462.586 84.3535 463.881 85.7875C464.273 86.357 464.531 87.0078 464.637 87.6911C464.742 88.3745 464.691 89.0728 464.489 89.7339C464.03 92.0283 463.056 94.1047 462.54 96.3532C462.209 97.456 462.117 98.6167 462.269 99.758C462.421 100.899 462.814 101.995 463.423 102.973C465.647 105.978 470.141 105.795 473.741 104.992C474.78 104.826 475.771 104.435 476.642 103.844C478.935 102.112 478.534 98.705 479.096 95.9173C480.345 89.6077 486.984 85.5122 488.531 79.2715C489.529 75.2448 488.015 69.5891 491.914 66.9276C496.981 63.6581 503.814 66.9735 508.699 68.7746Z" fill="#464353"/>
<path opacity="0.1" d="M503.126 483.784C503.126 483.784 539.115 506.728 540.262 515.527L503.126 483.784Z" fill="black"/>
<path opacity="0.1" d="M501.281 502.139C501.281 502.139 542.555 522.02 540.262 528.903L501.281 502.139Z" fill="black"/>
<path opacity="0.1" d="M498.54 519.726C498.54 519.726 521.86 531.966 523.385 539.228L498.54 519.726Z" fill="black"/>
<path opacity="0.1" d="M508.48 547.259C508.48 547.259 523.763 560.646 526.825 557.205C529.886 553.763 508.48 547.259 508.48 547.259Z" fill="black"/>
<path opacity="0.1" d="M487.075 555.679C487.075 555.679 498.988 574.791 493.255 575.939C487.522 577.086 487.075 555.679 487.075 555.679Z" fill="black"/>
<path opacity="0.1" d="M434.782 216.109C434.782 216.109 414.523 228.338 420.634 231.401C426.745 234.464 434.782 216.109 434.782 216.109Z" fill="black"/>
<path opacity="0.1" d="M434.782 170.978C434.782 170.978 414.145 208.836 423.696 206.163C433.246 203.49 434.782 170.978 434.782 170.978Z" fill="black"/>
<path opacity="0.1" d="M654.089 208.836C654.089 208.836 641.477 223.68 643.77 231.78L654.089 208.836Z" fill="black"/>
<path opacity="0.1" d="M687.016 216.109C687.016 216.109 668.087 232.927 670.862 234.843L687.016 216.109Z" fill="black"/>
<path opacity="0.1" d="M698.802 236.77C698.802 236.77 696.888 247.829 699.949 248.242L698.802 236.77Z" fill="black"/>
<path opacity="0.05" d="M492.235 470.098C487.362 476.408 487.362 487.593 485.161 492.182C483.957 494.705 481.274 499.065 479.096 502.598C478.385 500.304 477.009 498.939 474.865 500.143C473.455 489.623 470.967 471.463 470.164 467.804C469.018 462.641 481.629 448.875 481.629 448.875C481.629 448.875 493.954 451.456 497.107 457.766C500.26 464.075 497.107 463.8 492.235 470.098Z" fill="black"/>
<path opacity="0.1" d="M428.603 337.333C414.845 339.237 389.243 375.948 389.243 375.948C389.243 375.948 385.884 371.061 381.217 364.235C375.347 355.573 367.459 343.769 361.727 334.821L395.32 300.152L401.43 306.737C401.43 306.737 413.285 318.588 413.285 320.882C413.285 321.777 415.578 324.496 418.491 327.467C422.951 332.09 428.603 337.333 428.603 337.333Z" fill="black"/>
<path opacity="0.1" d="M384.726 182.083C384.244 181.108 383.866 180.385 383.579 179.938L398.392 180.924L406.246 229.703C400.387 216.327 388.922 190.446 384.726 182.083Z" fill="black"/>
<path opacity="0.1" d="M416.209 329.796C403.919 342.037 386.641 359.199 381.24 364.212C380.449 364.958 379.911 365.439 379.681 365.6C379.193 365.929 378.649 366.166 378.076 366.3C372.676 358.361 364.971 346.924 359.01 337.62L361.761 334.775L393.015 302.607L396.879 306.772C396.879 306.772 408.734 318.622 408.734 320.917C408.734 322.018 412.437 326.01 416.209 329.796Z" fill="black"/>
<path d="M400.708 180.924L383.51 179.777C383.51 179.777 378.924 190.48 375.106 191.249C371.289 192.018 366.313 200.805 366.313 200.805C366.313 200.805 351.591 203.49 352.233 208.078C352.875 212.667 329.601 245.488 329.601 245.488C329.601 245.488 321.954 261.228 327.308 272.7C332.662 284.172 336.48 291.824 337.627 296.022C338.773 300.221 352.348 318.588 352.233 322.029C352.119 325.471 386.927 375.948 386.927 375.948C386.927 375.948 412.529 339.237 426.287 337.322C426.287 337.322 411.004 323.177 411.004 320.882C411.004 318.588 399.241 306.737 399.241 306.737L384.336 290.677C384.336 290.677 379.36 288.382 384.336 284.172C389.312 279.962 375.932 270.406 375.932 270.406C375.932 270.406 375.542 263.522 380.518 261.607C385.494 259.691 391.983 247.083 391.983 247.083L409.949 237.906L400.708 180.924Z" fill="#464353"/>
<path opacity="0.1" d="M335.035 257.018C335.035 257.018 355.673 252.819 356.051 255.492C356.429 258.165 335.035 257.018 335.035 257.018Z" fill="black"/>
<path opacity="0.1" d="M352.233 277.862C352.233 277.862 369.729 280.157 368.961 283.897C368.193 287.636 352.233 277.862 352.233 277.862Z" fill="black"/>
<path opacity="0.1" d="M366.691 212.851C366.691 212.851 383.51 236.678 385.803 231.745L366.691 212.851Z" fill="black"/>
<g opacity="0.1">
<path opacity="0.1" d="M467.757 35.3107C467.859 32.5311 467.511 29.7532 466.725 27.0853C466.393 25.9569 466.141 24.807 465.968 23.6437C465.821 25.5875 466.079 27.5406 466.725 29.3797C467.269 31.3164 467.615 33.3037 467.757 35.3107V35.3107Z" fill="black"/>
<path opacity="0.1" d="M548.162 60.549C548.609 57.1074 550.971 53.9756 551.189 50.4537C551.223 49.8678 551.2 49.2799 551.12 48.6985C550.673 52.2548 548.208 55.4096 548.07 59.0232C548.055 59.5336 548.086 60.0442 548.162 60.549V60.549Z" fill="black"/>
<path opacity="0.1" d="M550.673 77.1833C549.934 77.9774 549.022 78.5902 548.008 78.9742C546.994 79.3582 545.905 79.503 544.825 79.3974C542.669 79.1601 540.566 78.5711 538.6 77.6537C535.963 76.5868 533.2 75.3593 531.606 73.0649C530.15 70.9311 529.68 67.9369 527.41 66.7094C524.796 65.3098 521.677 67.2027 518.845 67.8566C515.475 68.6596 511.966 67.7189 508.699 66.5144C503.815 64.7133 496.981 61.3979 491.971 64.8165C488.073 67.478 489.586 73.1337 488.589 77.1603C487.041 83.4011 480.403 87.4851 479.153 93.8062C478.591 96.5939 478.958 100.001 476.699 101.733C475.825 102.325 474.83 102.717 473.787 102.88C470.141 103.684 465.647 103.867 463.469 100.861C462.839 100.002 462.444 98.9942 462.322 97.9361C462.026 99.7586 462.436 101.625 463.469 103.156C465.693 106.161 470.187 105.978 473.787 105.175C474.83 105.011 475.825 104.62 476.699 104.028C478.992 102.295 478.591 98.8883 479.153 96.1006C480.403 89.791 487.041 85.6955 488.589 79.4547C489.586 75.4281 488.073 69.7724 491.971 67.1109C496.981 63.6693 503.815 67.0077 508.699 68.8088C511.943 70.0133 515.475 70.954 518.845 70.151C521.735 69.4741 524.796 67.5813 527.41 69.0038C529.703 70.2313 530.15 73.2255 531.606 75.3593C533.2 77.6537 535.963 78.9385 538.6 79.948C540.566 80.8655 542.669 81.4545 544.825 81.6918C545.905 81.7974 546.994 81.6526 548.008 81.2686C549.022 80.8846 549.934 80.2718 550.673 79.4777C551.229 78.732 551.626 77.8797 551.839 76.9738C552.052 76.0679 552.077 75.1278 551.911 74.2121C551.79 75.3004 551.36 76.3315 550.673 77.1833V77.1833Z" fill="black"/>
<path opacity="0.1" d="M458.218 69.3478C457.839 66.4454 455.397 64.3002 454.136 61.6616C453.662 60.6681 453.36 59.6014 453.242 58.5068C453.022 60.3712 453.332 62.2597 454.136 63.956C455.363 66.5143 457.679 68.6251 458.16 71.3898C458.277 70.7154 458.296 70.0278 458.218 69.3478Z" fill="black"/>
<path opacity="0.1" d="M464.592 87.267C464.756 86.65 464.782 86.0044 464.669 85.376C464.557 84.7476 464.307 84.1517 463.939 83.6304C462.643 82.1505 460.178 82.4832 458.596 81.336C458.176 81.0041 457.827 80.5915 457.569 80.1226C457.311 79.6537 457.15 79.138 457.094 78.6057C456.842 80.4756 457.094 82.5406 458.596 83.6304C460.098 84.7203 462.643 84.4908 463.939 85.9248C464.261 86.313 464.486 86.7734 464.592 87.267V87.267Z" fill="black"/>
</g>
<path d="M192.431 681.423C192.431 681.423 145.011 678.555 150.595 711.812C150.595 711.812 149.448 717.686 154.814 720.359C154.814 720.359 154.894 717.893 159.675 718.73C161.376 719.014 163.104 719.095 164.823 718.971C167.15 718.812 169.363 717.903 171.129 716.378V716.378C171.129 716.378 184.463 710.86 189.645 689.063C189.645 689.063 193.475 684.303 193.326 683.087L185.3 686.528C185.3 686.528 188.04 692.264 185.885 697.105C185.885 697.105 185.621 686.781 184.085 686.976C183.775 687.033 179.923 688.983 179.923 688.983C179.923 688.983 184.635 699.044 181.069 706.363C181.069 706.363 182.422 693.962 178.444 689.706L172.814 692.998C172.814 692.998 178.318 703.392 174.58 711.881C174.58 711.881 175.543 698.872 171.634 693.801L166.52 697.782C166.52 697.782 171.691 708.027 168.538 715.07C168.538 715.07 168.125 699.916 165.419 698.78C165.419 698.78 160.948 702.715 160.272 704.333C160.272 704.333 163.803 711.778 161.613 715.702C161.613 715.702 160.272 705.606 159.159 705.56C159.159 705.56 154.711 712.248 154.252 716.826C154.252 716.826 154.447 710.011 158.082 704.918C155.517 705.409 153.151 706.637 151.271 708.451C151.271 708.451 151.959 703.725 159.182 703.312C159.182 703.312 162.863 698.241 163.849 697.931C163.849 697.931 156.66 697.335 152.315 699.262C152.315 699.262 156.144 694.811 165.156 696.83L170.2 692.712C170.2 692.712 160.753 691.427 156.74 692.849C156.74 692.849 161.326 688.903 171.565 691.782L177.045 688.501C177.045 688.501 169.02 686.758 164.181 687.354C164.181 687.354 169.249 684.624 178.65 687.584L182.583 685.817C182.583 685.817 176.678 684.67 174.947 684.475C173.216 684.28 173.124 683.809 173.124 683.809C176.863 683.191 180.7 683.619 184.211 685.048C184.211 685.048 192.58 681.939 192.431 681.423Z" fill="#009DFF"/>
<path opacity="0.1" d="M159.767 728.94C178.308 728.94 193.337 726.397 193.337 723.261C193.337 720.125 178.308 717.583 159.767 717.583C141.227 717.583 126.197 720.125 126.197 723.261C126.197 726.397 141.227 728.94 159.767 728.94Z" fill="#009DFF"/>
</g>
<defs>
<linearGradient id="paint0_linear" x1="546.924" y1="750.748" x2="546.924" y2="11.8047" gradientUnits="userSpaceOnUse">
<stop stop-color="#808080" stop-opacity="0.25"/>
<stop offset="0.54" stop-color="#808080" stop-opacity="0.12"/>
<stop offset="1" stop-color="#808080" stop-opacity="0.1"/>
</linearGradient>
<clipPath id="clip0">
<rect width="1319" height="775" fill="white"/>
</clipPath>
</defs>
</svg>
